<svg width="479" height="325" viewBox="0 0 479 325" fill="none" xmlns="http://www.w3.org/2000/svg">
<path d="M167.808 324.83L65.5892 312.023C61.4448 311.631 58.1986 307.188 58.3404 302.117L58.9589 279.745C59.1007 274.674 62.5794 270.828 66.7316 271.15L169.089 281.017C173.237 281.339 176.471 285.939 176.314 291.288L175.601 315.87C175.443 321.223 171.953 325.235 167.808 324.83Z" fill="#0065EB"/>
<path d="M157.05 305.846L72.779 295.967C70.9825 295.806 69.5761 293.883 69.6273 291.673C69.6904 289.463 71.2031 287.795 72.9956 287.952L157.302 297.513C158.389 297.607 159.236 298.812 159.197 300.206L159.098 303.499C159.055 304.892 158.137 305.944 157.05 305.846Z" fill="#47A1FF"/>
<path d="M129.173 286.87L450.663 323.815C456.482 324.47 461.513 319.333 461.903 312.339L478.291 7.76768C478.539 3.30116 475.62 -0.13311 471.767 0.0984577L129.24 21.0495C125.383 21.3046 122.204 24.4641 122.149 28.1143L118.785 275.437C118.694 281.132 123.346 286.254 129.173 286.87Z" fill="#B2DEFF"/>
<path d="M472.327 0.0121735L129.796 20.975C125.939 21.2301 122.764 24.3896 122.705 28.0398L122.516 39.7359L478.043 22.019L478.831 7.67747C479.099 3.2031 476.188 -0.231169 472.327 0.0121735Z" fill="#536171"/>
<path d="M379.854 316.06L450.876 323.937C456.694 324.596 461.725 319.455 462.115 312.46L478.519 7.6815C478.768 3.21498 475.848 -0.219292 471.996 0.0122761L394.099 4.80456L379.854 316.06Z" fill="#E9F7FF"/>
<path d="M472.327 0.0121742L129.796 20.975C125.939 21.2301 122.764 24.3896 122.705 28.0398L122.516 39.7359L478.043 25.5239L478.831 7.65785C479.099 3.2031 476.188 -0.231168 472.327 0.0121742Z" fill="#003CBE"/>
<path d="M477.937 25.1079L122.504 39.7281L122.314 51.3771L477.011 40.0774L477.937 25.1079Z" fill="#67B3FF"/>
<path d="M133.727 31.4859C133.502 31.2816 133.325 31.0313 133.206 30.7521C133.088 30.473 133.032 30.1717 133.041 29.8688C133.063 29.2241 133.336 28.6131 133.802 28.1654V28.1654C133.893 28.084 133.967 27.9846 134.018 27.8736C134.069 27.7625 134.097 27.6421 134.1 27.5199C134.102 27.3976 134.08 27.2762 134.033 27.1631C133.987 27.05 133.917 26.9476 133.829 26.8624C133.633 26.7005 133.383 26.6187 133.128 26.6332C132.874 26.6478 132.635 26.7577 132.458 26.9409C131.63 27.7408 131.145 28.8299 131.107 29.9787C131.092 30.5196 131.193 31.0574 131.404 31.5558C131.616 32.0542 131.932 32.5015 132.332 32.8674C132.528 33.0298 132.778 33.1123 133.032 33.0985C133.287 33.0846 133.526 32.9755 133.703 32.7929C133.794 32.7111 133.867 32.6116 133.918 32.5006C133.969 32.3896 133.997 32.2693 134 32.1473C134.002 32.0252 133.98 31.9039 133.933 31.7908C133.887 31.6778 133.818 31.5753 133.731 31.4898L133.727 31.4859Z" fill="#FDD661"/>
<path d="M133.798 28.1653C134.269 27.7 134.894 27.4211 135.555 27.3803C135.869 27.3574 136.183 27.3977 136.48 27.4989C136.778 27.6001 137.051 27.76 137.285 27.9691V27.9691C137.48 28.1327 137.731 28.2157 137.986 28.2011C138.241 28.1865 138.48 28.0754 138.656 27.8906C138.747 27.8081 138.82 27.708 138.871 27.5963C138.922 27.4846 138.95 27.3637 138.953 27.241C138.955 27.1183 138.933 26.9964 138.886 26.8827C138.84 26.769 138.771 26.6659 138.683 26.5797C138.266 26.2068 137.777 25.9218 137.246 25.7418C136.716 25.5617 136.154 25.4902 135.595 25.5317C134.407 25.6054 133.286 26.1077 132.443 26.9447C132.352 27.0262 132.278 27.1254 132.227 27.2363C132.176 27.3472 132.148 27.4674 132.145 27.5894C132.142 27.7115 132.164 27.8329 132.21 27.9461C132.256 28.0593 132.324 28.162 132.412 28.2477C132.607 28.4114 132.858 28.4944 133.113 28.4798C133.368 28.4652 133.607 28.3541 133.783 28.1692L133.798 28.1653Z" fill="#3AB0E4"/>
<path d="M137.214 31.2934C136.744 31.7605 136.119 32.0398 135.457 32.0784C135.143 32.1005 134.828 32.0595 134.531 31.9577C134.234 31.8558 133.961 31.6953 133.727 31.4857V31.4857C133.531 31.3239 133.28 31.242 133.026 31.2566C132.772 31.2712 132.532 31.381 132.356 31.5642C132.265 31.646 132.192 31.7455 132.141 31.8565C132.09 31.9675 132.062 32.0877 132.06 32.2098C132.057 32.3319 132.08 32.4532 132.126 32.5662C132.172 32.6793 132.241 32.7817 132.329 32.8673C132.746 33.2411 133.234 33.5275 133.765 33.7095C134.295 33.8916 134.857 33.9655 135.417 33.927C136.605 33.8615 137.727 33.3627 138.569 32.5258C138.66 32.444 138.734 32.3444 138.785 32.2332C138.836 32.1219 138.864 32.0015 138.867 31.8791C138.87 31.7567 138.848 31.635 138.802 31.5215C138.756 31.4079 138.688 31.305 138.6 31.2188C138.405 31.0556 138.155 30.9725 137.9 30.9864C137.645 31.0002 137.406 31.11 137.229 31.2934H137.214Z" fill="#EA5D68"/>
<path d="M133.798 28.1654C133.623 28.3503 133.383 28.4614 133.128 28.4759C132.873 28.4905 132.623 28.4075 132.427 28.2439C132.34 28.1584 132.271 28.0559 132.225 27.9429C132.178 27.8298 132.156 27.7085 132.158 27.5865C132.161 27.4644 132.189 27.3442 132.24 27.2331C132.291 27.1221 132.364 27.0226 132.455 26.9409C132.631 26.7577 132.87 26.6478 133.125 26.6332C133.379 26.6187 133.629 26.7005 133.826 26.8624C133.914 26.9476 133.983 27.05 134.03 27.1631C134.076 27.2762 134.099 27.3976 134.096 27.5199C134.094 27.6421 134.066 27.7625 134.015 27.8736C133.963 27.9846 133.89 28.084 133.798 28.1654V28.1654Z" fill="#3289C3"/>
<path d="M133.7 32.7929C133.523 32.9755 133.283 33.0846 133.029 33.0985C132.774 33.1123 132.524 33.0298 132.329 32.8674C132.241 32.7819 132.172 32.6795 132.126 32.5664C132.08 32.4533 132.057 32.332 132.06 32.21C132.062 32.0879 132.09 31.9677 132.141 31.8567C132.192 31.7456 132.265 31.6462 132.356 31.5644C132.532 31.381 132.772 31.2712 133.027 31.2573C133.281 31.2435 133.532 31.3266 133.727 31.4898C133.815 31.5753 133.884 31.6778 133.93 31.7909C133.976 31.9039 133.998 32.0252 133.996 32.1473C133.993 32.2693 133.966 32.3896 133.915 32.5006C133.864 32.6116 133.791 32.7111 133.7 32.7929V32.7929Z" fill="#D2475F"/>
<path d="M359.813 287.801L134.992 265.146C134.566 265.101 134.172 264.901 133.885 264.585C133.598 264.268 133.438 263.858 133.436 263.431L134.223 155.105C134.23 154.897 134.277 154.693 134.362 154.504C134.448 154.315 134.57 154.145 134.722 154.004C134.874 153.862 135.053 153.752 135.248 153.68C135.443 153.607 135.65 153.574 135.858 153.582L364.493 160.227C364.716 160.246 364.932 160.309 365.129 160.412C365.327 160.515 365.501 160.657 365.643 160.828C365.785 161 365.892 161.197 365.956 161.41C366.02 161.623 366.041 161.846 366.018 162.067L361.472 286.172C361.432 287.161 360.688 287.911 359.813 287.801Z" fill="#E9F7FF"/>
<path d="M359.947 170.914L338.819 170.164C338.588 170.142 338.376 170.03 338.228 169.852C338.08 169.674 338.009 169.444 338.031 169.214C338.03 168.981 338.121 168.757 338.285 168.59C338.449 168.423 338.672 168.328 338.906 168.323L360.038 169.042C360.153 169.053 360.265 169.087 360.367 169.141C360.469 169.196 360.559 169.27 360.632 169.359C360.705 169.449 360.76 169.552 360.793 169.662C360.827 169.773 360.837 169.889 360.825 170.003C360.83 170.24 360.74 170.469 360.575 170.639C360.41 170.81 360.184 170.909 359.947 170.914Z" fill="#00D981"/>
<path d="M365.144 150.908L140.377 146.803C139.841 146.803 139.31 146.697 138.815 146.492C138.319 146.287 137.87 145.987 137.491 145.608C137.113 145.23 136.813 144.781 136.609 144.286C136.405 143.792 136.302 143.263 136.304 142.729L137.462 78.7883C137.491 77.172 138.144 75.6291 139.286 74.4806C140.428 73.3321 141.97 72.6665 143.592 72.6223L366.389 66.1973C367.258 66.1708 368.123 66.3238 368.929 66.6465C369.736 66.9692 370.467 67.4548 371.077 68.0726C371.686 68.6904 372.161 69.4271 372.47 70.2364C372.78 71.0458 372.919 71.9102 372.877 72.7754L369.497 146.387C369.379 148.918 367.433 150.951 365.144 150.908Z" fill="#E9F7FF"/>
<path d="M372.743 68.5599L349.161 69.2075L349.413 63.4458C349.439 62.6631 349.755 61.9178 350.3 61.3533C350.845 60.7888 351.58 60.4451 352.364 60.3883L369.473 59.8349C371.506 59.7682 373.07 61.4677 372.968 63.6342L372.743 68.5599Z" fill="#67B3FF"/>
<path d="M344.327 69.3725L320.745 70.0319L320.97 64.38C320.999 63.604 321.316 62.8663 321.86 62.3096C322.403 61.7529 323.135 61.4166 323.912 61.3657L341.896 60.777C342.266 60.7689 342.633 60.8386 342.974 60.9814C343.314 61.1243 343.621 61.3371 343.873 61.6061C344.126 61.875 344.318 62.1939 344.439 62.5421C344.559 62.8902 344.604 63.2597 344.571 63.6265L344.327 69.3725Z" fill="#8BCBFF"/>
<path d="M372.393 80.0049L137.202 83.7021L137.352 75.4285C137.391 73.207 139.463 71.59 141.78 71.5036L373.031 65.9578L372.393 80.0049Z" fill="#8BCBFF"/>
<path d="M184.232 65.7733L139.467 66.6956C139.241 66.7108 139.015 66.6793 138.802 66.6031C138.589 66.5269 138.394 66.4077 138.229 66.2529C138.064 66.0981 137.934 65.9111 137.845 65.7037C137.756 65.4962 137.712 65.2727 137.714 65.0472C137.736 64.5768 137.936 64.1319 138.272 63.8011C138.609 63.4703 139.058 63.2776 139.53 63.2614L184.319 62.2448C184.542 62.2212 184.768 62.2455 184.981 62.316C185.195 62.3866 185.39 62.5017 185.555 62.6537C185.72 62.8058 185.85 62.9912 185.937 63.1975C186.025 63.4038 186.066 63.6264 186.06 63.8501V64.2073C186.036 65.1649 185.217 65.738 184.232 65.7733Z" fill="#67B3FF"/>
<path d="M353.495 137.775L276.453 137.304C274.534 137.304 273.077 135.562 273.203 133.438L274.089 117.154C274.211 115.031 275.878 113.3 277.808 113.288L355.197 113.323C357.123 113.323 358.561 115.097 358.407 117.319L357.253 133.784C357.099 136.001 355.417 137.775 353.495 137.775Z" fill="white"/>
<path d="M284.308 137.352L276.539 137.305C274.569 137.305 273.072 135.605 273.194 133.537L274.14 116.966C274.188 115.978 274.605 115.044 275.308 114.347C276.011 113.649 276.95 113.238 277.942 113.194L285.738 113.143" fill="#B2DEFF"/>
<path d="M300.795 132.096L292.026 132.069C291.779 132.068 291.534 132.016 291.308 131.917C291.081 131.818 290.878 131.673 290.71 131.492C290.511 131.272 290.359 131.015 290.262 130.735C290.166 130.455 290.128 130.158 290.151 129.863L290.71 120.757C290.73 120.2 290.956 119.67 291.345 119.27C291.735 118.869 292.26 118.627 292.818 118.591L301.607 118.559C301.853 118.559 302.096 118.609 302.321 118.707C302.546 118.805 302.748 118.949 302.915 119.128C303.116 119.348 303.27 119.607 303.367 119.889C303.464 120.17 303.502 120.468 303.478 120.765L302.899 129.926C302.883 130.484 302.658 131.015 302.269 131.417C301.88 131.818 301.354 132.06 300.795 132.096ZM301.607 119.199L292.822 119.23C292.425 119.264 292.055 119.444 291.784 119.734C291.513 120.024 291.359 120.404 291.352 120.8L290.793 129.906C290.777 130.114 290.804 130.324 290.872 130.521C290.94 130.719 291.047 130.901 291.187 131.056C291.294 131.176 291.425 131.273 291.572 131.34C291.718 131.408 291.877 131.445 292.038 131.449L300.807 131.472C301.203 131.438 301.572 131.258 301.842 130.968C302.112 130.678 302.264 130.298 302.269 129.902L302.848 120.726C302.865 120.516 302.839 120.305 302.771 120.106C302.704 119.907 302.596 119.724 302.454 119.568C302.346 119.451 302.215 119.358 302.07 119.294C301.924 119.231 301.766 119.198 301.607 119.199Z" fill="#00D981"/>
<path d="M278.816 122.728C278.805 122.946 278.713 123.153 278.557 123.307C278.401 123.461 278.192 123.551 277.973 123.56C277.868 123.558 277.765 123.535 277.67 123.491C277.575 123.448 277.49 123.385 277.42 123.307C277.351 123.23 277.298 123.138 277.266 123.039C277.233 122.94 277.222 122.835 277.232 122.731C277.243 122.514 277.335 122.307 277.49 122.153C277.645 122 277.853 121.909 278.071 121.899C278.176 121.901 278.28 121.923 278.376 121.967C278.471 122.01 278.557 122.072 278.627 122.15C278.697 122.228 278.75 122.32 278.782 122.419C278.815 122.518 278.826 122.623 278.816 122.728Z" fill="#1A8CFF"/>
<path d="M281.078 122.724C281.067 122.942 280.975 123.149 280.818 123.303C280.662 123.457 280.454 123.547 280.235 123.556C280.13 123.554 280.028 123.53 279.933 123.486C279.838 123.443 279.754 123.38 279.684 123.302C279.615 123.224 279.563 123.133 279.531 123.034C279.499 122.935 279.488 122.831 279.498 122.728C279.508 122.509 279.6 122.303 279.755 122.148C279.91 121.994 280.118 121.902 280.337 121.892C280.442 121.893 280.546 121.917 280.641 121.96C280.736 122.004 280.822 122.067 280.891 122.145C280.961 122.223 281.014 122.315 281.046 122.415C281.078 122.514 281.089 122.62 281.078 122.724Z" fill="#1A8CFF"/>
<path d="M278.647 125.267C278.637 125.485 278.545 125.691 278.39 125.845C278.234 125.999 278.027 126.089 277.808 126.099C277.703 126.097 277.6 126.074 277.504 126.03C277.409 125.987 277.324 125.924 277.254 125.845C277.184 125.767 277.132 125.675 277.1 125.576C277.068 125.476 277.057 125.371 277.068 125.267C277.078 125.049 277.17 124.844 277.326 124.69C277.481 124.537 277.688 124.447 277.907 124.439C278.012 124.44 278.115 124.463 278.21 124.506C278.306 124.549 278.391 124.612 278.461 124.69C278.531 124.768 278.583 124.859 278.615 124.959C278.648 125.058 278.658 125.163 278.647 125.267Z" fill="#1A8CFF"/>
<path d="M280.924 125.267C280.913 125.485 280.821 125.691 280.666 125.845C280.511 125.999 280.303 126.089 280.085 126.099C279.98 126.097 279.876 126.074 279.781 126.03C279.685 125.987 279.6 125.924 279.53 125.845C279.461 125.767 279.408 125.675 279.376 125.576C279.344 125.476 279.333 125.371 279.344 125.267C279.354 125.049 279.445 124.842 279.601 124.688C279.756 124.534 279.964 124.443 280.183 124.435C280.288 124.436 280.392 124.46 280.487 124.503C280.583 124.547 280.668 124.61 280.737 124.688C280.807 124.767 280.86 124.858 280.892 124.958C280.924 125.058 280.935 125.163 280.924 125.267Z" fill="#1A8CFF"/>
<path d="M278.489 127.905C278.481 128.127 278.389 128.338 278.23 128.495C278.071 128.652 277.858 128.743 277.634 128.748C277.529 128.747 277.426 128.723 277.33 128.68C277.235 128.636 277.15 128.573 277.08 128.495C277.01 128.417 276.958 128.325 276.926 128.225C276.894 128.126 276.883 128.02 276.894 127.916C276.904 127.698 276.995 127.492 277.151 127.339C277.306 127.185 277.514 127.096 277.733 127.088C277.838 127.087 277.942 127.108 278.038 127.15C278.135 127.191 278.222 127.252 278.293 127.329C278.364 127.406 278.418 127.497 278.452 127.596C278.486 127.695 278.499 127.8 278.489 127.905Z" fill="#1A8CFF"/>
<path d="M280.787 127.908C280.777 128.127 280.684 128.333 280.528 128.487C280.372 128.641 280.163 128.73 279.944 128.736C279.839 128.734 279.737 128.711 279.642 128.667C279.547 128.623 279.463 128.561 279.393 128.483C279.324 128.405 279.272 128.314 279.24 128.215C279.208 128.116 279.197 128.012 279.207 127.908C279.217 127.69 279.308 127.483 279.464 127.329C279.619 127.175 279.827 127.085 280.046 127.076C280.151 127.078 280.254 127.102 280.349 127.146C280.444 127.19 280.529 127.253 280.599 127.331C280.668 127.409 280.721 127.501 280.753 127.6C280.786 127.699 280.797 127.804 280.787 127.908Z" fill="#1A8CFF"/>
<path d="M346.009 129.043L312.322 128.98C311.065 128.98 310.119 127.83 310.21 126.413L310.403 123.375C310.494 121.958 311.585 120.808 312.85 120.804L346.576 120.722C347.837 120.722 348.778 121.899 348.68 123.332L348.463 126.433C348.365 127.873 347.266 129.043 346.009 129.043Z" fill="#B2DEFF"/>
<path d="M296.087 128.705C296.047 128.706 296.007 128.7 295.969 128.686C295.925 128.67 295.885 128.646 295.851 128.616C295.817 128.585 295.789 128.547 295.769 128.506C295.749 128.464 295.738 128.419 295.736 128.373C295.734 128.327 295.74 128.281 295.756 128.238L297.769 122.594C297.801 122.507 297.865 122.435 297.95 122.396C298.034 122.356 298.131 122.351 298.218 122.382C298.306 122.413 298.378 122.478 298.418 122.562C298.458 122.646 298.462 122.742 298.431 122.83L296.418 128.474C296.394 128.542 296.349 128.601 296.29 128.642C296.23 128.684 296.16 128.706 296.087 128.705Z" fill="#00D981"/>
<path d="M294.795 128.163C294.742 128.164 294.689 128.152 294.641 128.129C294.593 128.106 294.552 128.072 294.519 128.03L292.604 125.608C292.552 125.542 292.525 125.459 292.53 125.374C292.534 125.29 292.569 125.21 292.628 125.149L294.811 122.888C294.875 122.821 294.963 122.782 295.056 122.78C295.149 122.778 295.24 122.813 295.307 122.877C295.374 122.941 295.413 123.029 295.416 123.121C295.418 123.214 295.383 123.304 295.319 123.371L293.349 125.416L295.074 127.598C295.104 127.634 295.125 127.676 295.138 127.721C295.151 127.765 295.154 127.812 295.149 127.858C295.143 127.904 295.129 127.948 295.106 127.989C295.083 128.029 295.052 128.064 295.015 128.093C294.951 128.139 294.874 128.164 294.795 128.163Z" fill="#00D981"/>
<path d="M299.161 128.144C299.073 128.145 298.988 128.113 298.924 128.054C298.86 127.99 298.823 127.905 298.821 127.815C298.818 127.726 298.849 127.638 298.908 127.571L300.902 125.349L299.176 123.336C299.116 123.265 299.087 123.173 299.094 123.081C299.102 122.988 299.145 122.902 299.216 122.841C299.251 122.811 299.291 122.788 299.335 122.774C299.379 122.76 299.426 122.754 299.472 122.758C299.518 122.762 299.563 122.774 299.604 122.795C299.646 122.816 299.682 122.845 299.712 122.881L301.635 125.126C301.691 125.189 301.722 125.271 301.722 125.355C301.722 125.44 301.691 125.522 301.635 125.585L299.44 128.038C299.404 128.075 299.36 128.103 299.312 128.121C299.264 128.14 299.212 128.147 299.161 128.144Z" fill="#00D981"/>
<path d="M355.275 110.592L277.898 111.185C275.968 111.185 274.507 109.489 274.633 107.366L275.566 91.5994C275.692 89.476 277.363 87.3291 279.301 87.282L356.977 86.1242C358.911 86.0849 360.357 87.8511 360.199 90.0687L359.049 106.553C358.891 108.767 357.213 110.58 355.275 110.592Z" fill="white"/>
<path d="M285.789 111.122L277.989 111.184C276.019 111.184 274.502 109.532 274.628 107.464L275.574 91.1126C275.626 90.1188 276.044 89.179 276.748 88.4735C277.453 87.768 278.394 87.3465 279.391 87.2898L287.223 87.1328" fill="#B2DEFF"/>
<path d="M293.515 105.737C293.27 105.737 293.029 105.687 292.804 105.591C292.58 105.494 292.378 105.353 292.211 105.175C292.011 104.957 291.858 104.7 291.761 104.421C291.665 104.141 291.626 103.845 291.647 103.551L292.211 94.4488C292.232 93.8894 292.459 93.3573 292.848 92.9535C293.238 92.5498 293.762 92.3025 294.322 92.2587L303.147 92.1056C303.395 92.1003 303.641 92.1468 303.87 92.2421C304.098 92.3374 304.304 92.4794 304.475 92.659C304.676 92.8772 304.83 93.1345 304.927 93.4148C305.024 93.6951 305.062 93.9924 305.038 94.2879L304.463 103.449C304.443 104.01 304.216 104.544 303.826 104.948C303.436 105.353 302.909 105.6 302.347 105.643L293.542 105.737H293.515ZM303.178 92.7454H303.155L294.33 92.8985C293.935 92.9364 293.566 93.1168 293.294 93.4058C293.022 93.6947 292.865 94.0725 292.853 94.4684L292.29 103.59C292.274 103.797 292.301 104.005 292.369 104.201C292.436 104.398 292.544 104.578 292.684 104.732C292.794 104.847 292.926 104.939 293.073 105.002C293.22 105.065 293.379 105.097 293.538 105.097L302.343 105.003C302.743 104.965 303.115 104.782 303.388 104.488C303.661 104.194 303.815 103.81 303.821 103.409L304.4 94.2486C304.417 94.0408 304.392 93.8316 304.324 93.6343C304.256 93.437 304.148 93.2559 304.006 93.1026C303.9 92.9898 303.772 92.9 303.629 92.8386C303.487 92.7772 303.334 92.7454 303.178 92.7454Z" fill="#00D981"/>
<path d="M280.254 96.584C280.243 96.8034 280.15 97.011 279.995 97.1668C279.839 97.3225 279.631 97.4155 279.411 97.4278C279.306 97.4284 279.202 97.4069 279.107 97.3649C279.011 97.3228 278.925 97.261 278.854 97.1836C278.784 97.1061 278.731 97.0148 278.699 96.9155C278.666 96.8163 278.655 96.7113 278.666 96.6075C278.678 96.3884 278.77 96.1813 278.926 96.0262C279.082 95.8711 279.289 95.7789 279.509 95.7676C279.614 95.7671 279.717 95.7884 279.813 95.8303C279.908 95.8721 279.994 95.9335 280.064 96.0105C280.134 96.0875 280.188 96.1783 280.22 96.2771C280.253 96.3759 280.265 96.4805 280.254 96.584Z" fill="#1A8CFF"/>
<path d="M282.539 96.5642C282.528 96.7837 282.435 96.9913 282.28 97.147C282.124 97.3028 281.916 97.3957 281.696 97.408C281.591 97.4086 281.488 97.3872 281.392 97.3451C281.296 97.303 281.21 97.2412 281.14 97.1638C281.069 97.0864 281.016 96.995 280.984 96.8958C280.951 96.7965 280.94 96.6915 280.951 96.5877C280.963 96.3676 281.056 96.1595 281.212 96.0037C281.369 95.8478 281.578 95.7553 281.798 95.7439C281.903 95.7439 282.006 95.7657 282.102 95.808C282.197 95.8504 282.282 95.9122 282.352 95.9896C282.422 96.067 282.475 96.1581 282.507 96.2571C282.539 96.3561 282.55 96.4607 282.539 96.5642Z" fill="#1A8CFF"/>
<path d="M280.1 99.1272C280.088 99.346 279.995 99.5526 279.84 99.7075C279.684 99.8625 279.477 99.9549 279.257 99.9671C279.153 99.9671 279.049 99.9452 278.954 99.9029C278.858 99.8606 278.772 99.7988 278.702 99.7215C278.632 99.6442 278.579 99.5532 278.546 99.4542C278.514 99.3552 278.502 99.2505 278.513 99.1468C278.523 98.9274 278.615 98.7198 278.771 98.5645C278.927 98.4092 279.135 98.3174 279.356 98.3069C279.46 98.3063 279.564 98.3278 279.66 98.3699C279.756 98.4119 279.842 98.4737 279.912 98.5511C279.982 98.6286 280.035 98.7199 280.068 98.8192C280.1 98.9184 280.111 99.0234 280.1 99.1272Z" fill="#1A8CFF"/>
<path d="M282.39 99.0919C282.378 99.3118 282.284 99.5194 282.128 99.6751C281.972 99.8307 281.763 99.9236 281.543 99.9358C281.437 99.938 281.332 99.9178 281.235 99.8765C281.137 99.8351 281.05 99.7736 280.978 99.696C280.907 99.6184 280.853 99.5265 280.82 99.4264C280.787 99.3263 280.775 99.2203 280.786 99.1155C280.798 98.896 280.89 98.6884 281.046 98.5327C281.201 98.3769 281.409 98.2839 281.63 98.2716C281.735 98.2694 281.841 98.2897 281.938 98.331C282.036 98.3723 282.123 98.4337 282.195 98.5113C282.267 98.5888 282.321 98.6807 282.355 98.7808C282.389 98.8809 282.4 98.9869 282.39 99.0919Z" fill="#1A8CFF"/>
<path d="M279.943 101.765C279.932 101.984 279.84 102.192 279.684 102.347C279.528 102.502 279.32 102.594 279.1 102.605C278.995 102.605 278.892 102.583 278.796 102.54C278.701 102.498 278.615 102.436 278.545 102.359C278.475 102.282 278.422 102.191 278.389 102.092C278.356 101.993 278.345 101.888 278.355 101.784C278.366 101.565 278.458 101.357 278.614 101.202C278.77 101.047 278.978 100.955 279.198 100.944C279.303 100.944 279.407 100.965 279.503 101.007C279.599 101.049 279.685 101.111 279.755 101.189C279.825 101.266 279.878 101.357 279.911 101.457C279.943 101.556 279.954 101.661 279.943 101.765Z" fill="#1A8CFF"/>
<path d="M282.228 101.733C282.217 101.953 282.125 102.16 281.969 102.316C281.813 102.472 281.606 102.565 281.385 102.577C281.281 102.577 281.177 102.554 281.082 102.512C280.987 102.469 280.901 102.407 280.831 102.329C280.762 102.251 280.709 102.16 280.677 102.061C280.645 101.962 280.634 101.857 280.645 101.753C280.655 101.534 280.747 101.327 280.902 101.172C281.057 101.017 281.264 100.925 281.484 100.913C281.589 100.913 281.692 100.934 281.788 100.976C281.884 101.018 281.97 101.08 282.04 101.157C282.111 101.235 282.164 101.326 282.196 101.425C282.228 101.525 282.239 101.63 282.228 101.733Z" fill="#1A8CFF"/>
<path d="M347.758 101.965L313.929 102.357C312.669 102.357 311.715 101.235 311.806 99.818L312.003 96.7801C312.093 95.3632 313.185 94.1975 314.457 94.1779L348.337 93.6284C349.602 93.6088 350.547 94.7627 350.449 96.2071L350.236 99.3077C350.122 100.768 349.015 101.953 347.758 101.965Z" fill="#B2DEFF"/>
<path d="M295.275 96.2425C295.182 96.2425 295.093 96.2057 295.028 96.1402C294.962 96.0747 294.925 95.9858 294.925 95.8932C294.925 95.8006 294.962 95.7117 295.028 95.6462C295.093 95.5807 295.182 95.5439 295.275 95.5439L302.012 95.4026C302.105 95.4026 302.194 95.4394 302.26 95.5049C302.326 95.5704 302.363 95.6593 302.363 95.7519C302.363 95.8445 302.326 95.9334 302.26 95.9989C302.194 96.0644 302.105 96.1012 302.012 96.1012L295.279 96.2425H295.275Z" fill="#00D981"/>
<path d="M295.153 98.405C295.066 98.3959 294.985 98.3549 294.927 98.29C294.868 98.2252 294.836 98.141 294.836 98.0538C294.836 97.9665 294.868 97.8824 294.927 97.8175C294.985 97.7527 295.066 97.7117 295.153 97.7025L301.886 97.573C301.979 97.573 302.068 97.6098 302.134 97.6753C302.2 97.7408 302.237 97.8297 302.237 97.9223C302.237 98.0149 302.2 98.1038 302.134 98.1693C302.068 98.2348 301.979 98.2716 301.886 98.2716L295.153 98.405Z" fill="#00D981"/>
<path d="M295.027 100.568C294.94 100.558 294.86 100.518 294.801 100.453C294.742 100.388 294.71 100.304 294.71 100.216C294.71 100.129 294.742 100.045 294.801 99.9801C294.86 99.9153 294.94 99.8743 295.027 99.8651L301.76 99.7395C301.847 99.7487 301.927 99.7897 301.986 99.8545C302.045 99.9194 302.077 100.004 302.077 100.091C302.077 100.178 302.045 100.262 301.986 100.327C301.927 100.392 301.847 100.433 301.76 100.442L295.031 100.568H295.027Z" fill="#00D981"/>
<path d="M294.901 102.73C294.814 102.721 294.734 102.68 294.675 102.615C294.616 102.55 294.584 102.466 294.584 102.379C294.584 102.292 294.616 102.208 294.675 102.143C294.734 102.078 294.814 102.037 294.901 102.028L301.626 101.91C301.713 101.919 301.794 101.96 301.852 102.025C301.911 102.09 301.943 102.174 301.943 102.261C301.943 102.348 301.911 102.433 301.852 102.497C301.794 102.562 301.713 102.603 301.626 102.613L294.901 102.73Z" fill="#00D981"/>
<path d="M261.198 137.485L146.499 137.018C146.039 137.011 145.586 136.91 145.166 136.723C144.747 136.536 144.37 136.266 144.058 135.93C143.746 135.593 143.506 135.197 143.352 134.766C143.198 134.334 143.133 133.876 143.162 133.419L145.002 92.3804C145.041 91.4269 145.438 90.5229 146.115 89.8471C146.791 89.1712 147.697 88.7727 148.654 88.7303L264.291 87.3762C266.229 87.3369 267.699 89.0168 267.577 91.1323L264.902 133.678C264.776 135.79 263.121 137.497 261.198 137.485Z" fill="white"/>
<path d="M154.355 137.061L146.586 137.018C146.127 137.023 145.671 136.935 145.247 136.759C144.823 136.584 144.439 136.324 144.119 135.996C143.799 135.667 143.549 135.278 143.384 134.85C143.22 134.423 143.145 133.967 143.163 133.509L144.632 92.608C144.692 91.6544 145.11 90.7582 145.803 90.0973C146.495 89.4364 147.412 89.0591 148.371 89.0403L156.199 88.8833" fill="#B2DEFF"/>
<path d="M149.013 110.466C149 110.677 148.908 110.875 148.754 111.021C148.601 111.166 148.398 111.249 148.186 111.251C148.083 111.254 147.98 111.236 147.885 111.197C147.789 111.158 147.703 111.1 147.632 111.026C147.56 110.952 147.505 110.864 147.469 110.768C147.434 110.671 147.419 110.569 147.425 110.466C147.437 110.255 147.53 110.057 147.683 109.911C147.837 109.765 148.04 109.683 148.253 109.681C148.356 109.678 148.458 109.697 148.554 109.736C148.649 109.774 148.735 109.833 148.807 109.906C148.878 109.98 148.934 110.068 148.969 110.165C149.005 110.261 149.02 110.364 149.013 110.466Z" fill="#1A8CFF"/>
<path d="M151.294 110.443C151.283 110.653 151.191 110.852 151.038 110.998C150.885 111.144 150.682 111.226 150.47 111.228C150.367 111.231 150.264 111.213 150.168 111.175C150.073 111.136 149.986 111.078 149.915 111.004C149.843 110.93 149.788 110.842 149.752 110.745C149.717 110.648 149.703 110.545 149.71 110.443C149.721 110.232 149.812 110.033 149.965 109.887C150.118 109.742 150.321 109.659 150.533 109.658C150.636 109.654 150.739 109.672 150.835 109.711C150.931 109.749 151.017 109.808 151.089 109.882C151.16 109.956 151.216 110.044 151.251 110.14C151.286 110.237 151.301 110.34 151.294 110.443Z" fill="#1A8CFF"/>
<path d="M148.914 112.833C148.902 113.043 148.811 113.241 148.658 113.387C148.505 113.533 148.303 113.615 148.091 113.618C147.99 113.621 147.889 113.604 147.794 113.566C147.7 113.529 147.615 113.473 147.543 113.401C147.472 113.329 147.416 113.243 147.38 113.149C147.343 113.054 147.326 112.954 147.331 112.853C147.342 112.642 147.433 112.443 147.586 112.297C147.739 112.152 147.942 112.069 148.154 112.068C148.255 112.065 148.356 112.083 148.45 112.12C148.544 112.158 148.629 112.214 148.701 112.286C148.772 112.358 148.828 112.443 148.864 112.538C148.901 112.632 148.918 112.732 148.914 112.833Z" fill="#1A8CFF"/>
<path d="M151.195 112.813C151.184 113.024 151.092 113.223 150.939 113.369C150.786 113.514 150.583 113.597 150.371 113.598C150.268 113.601 150.166 113.583 150.07 113.544C149.975 113.505 149.889 113.447 149.817 113.373C149.745 113.299 149.69 113.211 149.655 113.115C149.619 113.019 149.604 112.916 149.611 112.813C149.623 112.603 149.715 112.405 149.867 112.259C150.02 112.114 150.223 112.031 150.434 112.028C150.537 112.025 150.64 112.044 150.735 112.083C150.831 112.121 150.917 112.18 150.988 112.254C151.06 112.327 151.115 112.415 151.151 112.512C151.186 112.608 151.201 112.711 151.195 112.813Z" fill="#1A8CFF"/>
<path d="M148.812 115.29C148.8 115.5 148.708 115.698 148.555 115.844C148.403 115.99 148.2 116.072 147.988 116.075C147.885 116.078 147.783 116.059 147.687 116.021C147.592 115.982 147.506 115.924 147.434 115.85C147.363 115.776 147.307 115.688 147.272 115.592C147.236 115.495 147.221 115.392 147.228 115.29C147.239 115.079 147.33 114.881 147.483 114.735C147.637 114.589 147.84 114.507 148.051 114.505C148.154 114.502 148.257 114.521 148.352 114.559C148.448 114.598 148.534 114.656 148.606 114.73C148.677 114.804 148.732 114.892 148.768 114.988C148.803 115.085 148.818 115.187 148.812 115.29Z" fill="#1A8CFF"/>
<path d="M151.093 115.274C151.083 115.485 150.992 115.684 150.839 115.83C150.685 115.976 150.482 116.058 150.27 116.059C150.167 116.062 150.064 116.043 149.969 116.005C149.873 115.966 149.787 115.908 149.716 115.834C149.644 115.76 149.589 115.672 149.553 115.576C149.518 115.479 149.503 115.377 149.509 115.274C149.52 115.063 149.612 114.865 149.765 114.719C149.918 114.573 150.121 114.491 150.333 114.489C150.436 114.486 150.538 114.505 150.634 114.543C150.729 114.582 150.815 114.64 150.887 114.714C150.958 114.788 151.014 114.876 151.049 114.972C151.085 115.069 151.1 115.172 151.093 115.274Z" fill="#1A8CFF"/>
<path d="M79.0148 282.751L5.23516 275.271C2.26081 275.078 -0.102913 272.335 0.00345411 269.14L0.452561 255.034C0.55105 251.839 3.06448 249.363 6.05852 249.504L79.9367 254.167C82.9347 254.308 85.2669 257.157 85.1526 260.529L84.6405 277.013C84.5263 280.365 82.005 282.94 79.0148 282.751Z" fill="#4CF1AF"/>
<path d="M72.6169 271.652L11.7983 266.2C11.1487 266.136 10.5494 265.823 10.1263 265.327C9.70327 264.832 9.48923 264.192 9.52914 263.543C9.52369 263.225 9.58304 262.909 9.70362 262.614C9.82419 262.319 10.0035 262.052 10.2307 261.828C10.4579 261.604 10.7282 261.429 11.0254 261.312C11.3226 261.195 11.6405 261.14 11.9598 261.149L72.7981 266.4C73.1965 266.452 73.5598 266.654 73.8139 266.964C74.068 267.274 74.1936 267.669 74.1651 268.069L74.0942 270.141C74.0995 270.337 74.0651 270.533 73.9933 270.716C73.9214 270.899 73.8134 271.066 73.6757 271.207C73.538 271.348 73.3733 271.46 73.1915 271.536C73.0096 271.613 72.8142 271.652 72.6169 271.652V271.652Z" fill="#00C459"/>
<g style="mix-blend-mode:multiply">
<path fill-rule="evenodd" clip-rule="evenodd" d="M119.921 190.859L258.24 197.366C262.924 197.512 266.966 193.43 267.273 188.253L269.475 146.257C269.774 141.076 266.178 136.872 261.45 136.872L120.675 135.483L119.921 190.859Z" fill="#E9F7FF"/>
</g>
<path d="M247.803 186.966L59.8398 178.123C55.1557 177.982 51.4368 173.739 51.5668 169.131L52.4492 132.952C52.5674 128.344 56.503 124.604 61.2344 124.6L251.014 126.472C255.741 126.472 259.338 130.675 259.039 135.856L256.836 177.852C256.529 183.029 252.487 187.111 247.803 186.966Z" fill="#E9F7FF"/>
<path d="M79.0177 179.085L60.0803 178.233C55.2741 178.092 51.4685 174.336 51.5867 169.842L52.4455 132.744C52.5597 128.25 56.5899 124.604 61.4434 124.6L80.5738 124.58" fill="#007CFF"/>
<path d="M118.89 168.036H118.764L97.3406 167.157C96.7065 167.143 96.0814 167.004 95.5018 166.747C94.9221 166.491 94.3996 166.122 93.9645 165.662C93.5178 165.191 93.1703 164.636 92.9423 164.029C92.7143 163.423 92.6104 162.777 92.6368 162.129L93.3066 142.093C93.3542 140.799 93.9009 139.573 94.8329 138.671C95.7649 137.769 97.0103 137.26 98.3098 137.25H98.3373L119.891 137.772C120.522 137.774 121.146 137.904 121.725 138.153C122.305 138.402 122.828 138.765 123.263 139.22C123.718 139.694 124.071 140.254 124.302 140.868C124.533 141.482 124.637 142.137 124.606 142.791L123.838 163.201C123.796 164.486 123.258 165.706 122.336 166.606C121.415 167.507 120.181 168.019 118.89 168.036V168.036ZM118.823 166.466C119.715 166.465 120.572 166.116 121.211 165.496C121.851 164.875 122.222 164.031 122.246 163.142L123.015 142.733C123.035 142.289 122.965 141.846 122.809 141.43C122.654 141.014 122.415 140.633 122.108 140.311C121.816 140.008 121.466 139.766 121.078 139.6C120.69 139.434 120.273 139.348 119.851 139.345L98.3019 138.823C97.4108 138.829 96.5565 139.178 95.9176 139.797C95.2788 140.415 94.905 141.257 94.8745 142.144L94.2166 162.216C94.2011 162.652 94.2726 163.086 94.4267 163.494C94.5809 163.903 94.8148 164.276 95.1148 164.594C95.4083 164.904 95.7609 165.152 96.1518 165.325C96.5428 165.497 96.9643 165.591 97.3919 165.599L118.823 166.466Z" fill="#00D981"/>
<path d="M64.3109 146.018C64.2794 146.512 64.0565 146.975 63.689 147.309C63.3215 147.643 62.8383 147.822 62.3411 147.808C62.0962 147.813 61.8526 147.77 61.6247 147.681C61.3967 147.592 61.1889 147.458 61.0135 147.288C60.8381 147.117 60.6986 146.914 60.6032 146.689C60.5078 146.464 60.4585 146.223 60.458 145.979C60.4895 145.484 60.7124 145.021 61.0799 144.687C61.4474 144.353 61.9306 144.175 62.4278 144.189C62.6727 144.183 62.9163 144.226 63.1442 144.315C63.3722 144.405 63.58 144.538 63.7554 144.709C63.9308 144.879 64.0703 145.083 64.1657 145.307C64.2611 145.532 64.3104 145.774 64.3109 146.018V146.018Z" fill="#43A1FF"/>
<path d="M69.89 146.088C69.8595 146.584 69.6371 147.048 69.2696 147.384C68.9022 147.719 68.4183 147.899 67.9202 147.886C67.6748 147.891 67.4308 147.848 67.2025 147.758C66.9743 147.668 66.7664 147.533 66.591 147.362C66.4156 147.191 66.2762 146.987 66.1811 146.761C66.086 146.536 66.0371 146.294 66.0371 146.049C66.0685 145.554 66.2914 145.091 66.6587 144.756C67.0261 144.422 67.5094 144.242 68.0069 144.256C68.2521 144.25 68.496 144.293 68.7242 144.382C68.9525 144.472 69.1604 144.606 69.3359 144.777C69.5113 144.948 69.6507 145.152 69.7459 145.377C69.841 145.602 69.89 145.844 69.89 146.088V146.088Z" fill="#43A1FF"/>
<path d="M64.1576 151.572C64.1261 152.065 63.9028 152.528 63.5351 152.86C63.1674 153.193 62.6842 153.37 62.1878 153.353C61.9427 153.358 61.6991 153.313 61.4714 153.223C61.2436 153.133 61.0361 152.998 60.8609 152.827C60.6857 152.656 60.5463 152.452 60.4509 152.227C60.3554 152.002 60.3057 151.761 60.3047 151.517C60.3362 151.023 60.5594 150.561 60.9271 150.228C61.2948 149.895 61.7781 149.718 62.2745 149.735C62.5199 149.729 62.7639 149.773 62.9921 149.863C63.2204 149.953 63.4283 150.088 63.6037 150.259C63.7791 150.43 63.9184 150.634 64.0135 150.859C64.1086 151.085 64.1576 151.327 64.1576 151.572V151.572Z" fill="#43A1FF"/>
<path d="M69.7279 151.65C69.6984 152.145 69.4758 152.609 69.1078 152.942C68.7398 153.276 68.2554 153.453 67.7581 153.436C67.5126 153.44 67.2688 153.395 67.0408 153.305C66.8127 153.214 66.605 153.079 66.4298 152.908C66.2546 152.737 66.1153 152.532 66.02 152.307C65.9248 152.082 65.8755 151.84 65.875 151.595C65.9065 151.1 66.1294 150.637 66.4969 150.304C66.8644 149.97 67.3476 149.791 67.8448 149.805C68.0908 149.8 68.3355 149.844 68.5643 149.934C68.793 150.025 69.0013 150.16 69.1768 150.332C69.3523 150.504 69.4915 150.709 69.5862 150.935C69.6808 151.162 69.729 151.405 69.7279 151.65Z" fill="#43A1FF"/>
<path d="M63.9964 157.321C63.9669 157.816 63.7441 158.279 63.3758 158.611C63.0075 158.943 62.5232 159.119 62.0266 159.099C61.7813 159.102 61.5378 159.057 61.3102 158.966C61.0826 158.875 60.8754 158.739 60.7007 158.568C60.5259 158.396 60.387 158.192 60.2921 157.966C60.1971 157.741 60.148 157.499 60.1475 157.255C60.179 156.761 60.4025 156.3 60.7704 155.969C61.1383 155.637 61.6216 155.462 62.1172 155.481C62.3624 155.477 62.6058 155.522 62.8334 155.613C63.0609 155.703 63.2681 155.838 63.443 156.01C63.6178 156.181 63.7567 156.385 63.8517 156.61C63.9467 156.835 63.9959 157.077 63.9964 157.321Z" fill="#43A1FF"/>
<path d="M69.5628 157.42C69.5343 157.915 69.3119 158.378 68.9435 158.712C68.5752 159.045 68.0902 159.221 67.593 159.202C67.3474 159.205 67.1035 159.159 66.8757 159.068C66.6478 158.976 66.4405 158.84 66.2657 158.668C66.0909 158.496 65.9521 158.292 65.8573 158.066C65.7626 157.84 65.7138 157.598 65.7139 157.353C65.7444 156.859 65.9673 156.396 66.3352 156.063C66.7032 155.73 67.187 155.554 67.6836 155.571C67.9293 155.568 68.1731 155.613 68.401 155.705C68.6288 155.796 68.8362 155.932 69.011 156.104C69.1858 156.276 69.3246 156.481 69.4193 156.707C69.5141 156.933 69.5628 157.175 69.5628 157.42V157.42Z" fill="#43A1FF"/>
<path d="M229.157 164.3L146.821 161.125C146.08 161.103 145.351 160.932 144.678 160.623C144.004 160.313 143.4 159.872 142.902 159.325C142.404 158.778 142.021 158.137 141.777 157.439C141.534 156.741 141.433 156.002 141.483 155.265L141.759 147.658C141.889 144.479 144.493 141.928 147.578 141.952L230.197 143.478C233.282 143.506 235.638 146.226 235.457 149.589L235.063 158.346C234.874 161.694 232.234 164.359 229.157 164.3Z" fill="#B2DEFF"/>
<path d="M116.608 167.31L104.069 150.755L94.2829 157.266L93.3965 155.948L104.435 148.604L117.881 166.356L116.608 167.31Z" fill="#00D981"/>
<path d="M122.739 161.227L116.948 155.351L111.46 159.166L110.55 157.863L117.141 153.279L123.873 160.116L122.739 161.227Z" fill="#00D981"/>
<path d="M113.036 150.696H112.981C112.507 150.693 112.039 150.595 111.604 150.408C111.169 150.221 110.776 149.95 110.448 149.609C110.136 149.285 109.892 148.902 109.732 148.483C109.572 148.064 109.497 147.616 109.514 147.168C109.565 146.242 109.971 145.372 110.649 144.737C111.327 144.101 112.224 143.751 113.154 143.757H113.19C113.666 143.757 114.137 143.852 114.575 144.039C115.014 144.225 115.409 144.498 115.738 144.84C116.051 145.166 116.294 145.55 116.455 145.971C116.615 146.391 116.689 146.84 116.672 147.29C116.621 148.214 116.214 149.083 115.538 149.717C114.861 150.351 113.965 150.702 113.036 150.696V150.696ZM113.162 145.343C112.643 145.334 112.141 145.524 111.76 145.874C111.378 146.224 111.147 146.707 111.113 147.223C111.105 147.46 111.144 147.696 111.229 147.918C111.314 148.14 111.442 148.342 111.606 148.514C111.787 148.702 112.005 148.851 112.246 148.953C112.487 149.055 112.747 149.107 113.008 149.107H113.036C113.553 149.115 114.054 148.924 114.434 148.574C114.814 148.224 115.044 147.741 115.077 147.227C115.086 146.989 115.046 146.752 114.961 146.53C114.876 146.309 114.746 146.106 114.58 145.935C114.399 145.748 114.182 145.599 113.942 145.497C113.701 145.395 113.443 145.343 113.182 145.343H113.162Z" fill="#00D981"/>
<g style="mix-blend-mode:multiply">
<path d="M119.313 248.653L300.019 262.877C306.074 263.419 311.385 259.282 311.621 253.85L313.756 211.775C313.756 211.775 306.303 201.602 300.756 201.178C295.209 200.754 119.297 232.66 119.297 232.66L119.313 248.653Z" fill="#E9F7FF"/>
</g>
<path d="M296.017 253.622L100.222 236.859C98.4056 236.708 96.7178 235.866 95.5082 234.508C94.2987 233.151 93.6602 231.381 93.7252 229.567L94.6589 195.962C94.6797 195.07 94.8779 194.191 95.2419 193.375C95.6059 192.56 96.1285 191.825 96.7794 191.212C97.4304 190.599 98.1969 190.121 99.0345 189.805C99.8722 189.489 100.764 189.342 101.659 189.372L298.636 199.679C302.375 199.828 305.211 203.317 304.975 207.47L303.194 246.546C302.93 250.698 299.728 253.866 296.017 253.622Z" fill="#F3FBFF"/>
<path d="M115.381 237.86L100.375 236.89C96.5659 236.643 93.5797 233.452 93.7019 229.759L94.6434 195.809C94.7655 192.119 97.9763 189.246 101.813 189.399L116.937 189.976" fill="#007CFF"/>
<path d="M147.141 229.049C147.067 229.053 146.992 229.053 146.917 229.049V229.049L129.945 227.655C128.905 227.567 127.939 227.08 127.252 226.297C126.565 225.513 126.21 224.495 126.262 223.456L126.833 206.94C126.849 206.409 126.972 205.887 127.193 205.404C127.414 204.92 127.73 204.486 128.121 204.126C128.491 203.784 128.925 203.519 129.399 203.347C129.872 203.176 130.375 203.1 130.879 203.125L147.976 204.016C149.025 204.089 150.001 204.572 150.694 205.359C151.387 206.146 151.74 207.174 151.676 208.219L150.974 225.238C150.957 225.776 150.831 226.306 150.605 226.796C150.378 227.285 150.055 227.724 149.655 228.087C148.968 228.71 148.071 229.054 147.141 229.049V229.049ZM146.999 227.785C147.329 227.805 147.66 227.758 147.971 227.648C148.282 227.539 148.568 227.367 148.812 227.145C149.087 226.895 149.309 226.593 149.465 226.256C149.621 225.918 149.707 225.554 149.718 225.183L150.387 208.16C150.438 207.448 150.203 206.744 149.736 206.202C149.268 205.661 148.605 205.325 147.89 205.268L130.792 204.377C130.459 204.364 130.126 204.416 129.813 204.531C129.5 204.647 129.213 204.822 128.968 205.048C128.7 205.295 128.484 205.594 128.332 205.925C128.181 206.257 128.097 206.615 128.086 206.979L127.538 223.495C127.498 224.207 127.737 224.908 128.205 225.447C128.673 225.987 129.334 226.325 130.048 226.388L146.999 227.785Z" fill="#00D981"/>
<path d="M135.642 211.885L136.627 211.936L139.727 220.029L138.462 219.963L137.742 217.961L133.94 217.757L133.073 219.664L131.812 219.598L135.642 211.885ZM137.383 216.988L136.04 213.283H136.016L134.361 216.815L137.383 216.988Z" fill="#00D981"/>
<path d="M140.736 211.603L141.748 211.654L141.59 215.578H141.614C141.813 215.303 142.086 215.091 142.402 214.966C142.747 214.821 143.12 214.757 143.493 214.778C143.879 214.794 144.258 214.886 144.608 215.049C144.927 215.202 145.211 215.418 145.443 215.684C145.671 215.953 145.844 216.264 145.952 216.599C146.067 216.959 146.116 217.336 146.097 217.714C146.087 218.089 146.007 218.459 145.861 218.805C145.725 219.127 145.527 219.419 145.278 219.664C145.027 219.908 144.726 220.094 144.395 220.21C144.033 220.339 143.648 220.391 143.265 220.363C142.899 220.342 142.543 220.241 142.221 220.069C141.898 219.912 141.625 219.669 141.433 219.366H141.409L141.378 220.127L140.361 220.072L140.736 211.603ZM143.198 219.413C143.448 219.432 143.699 219.399 143.934 219.315C144.147 219.239 144.34 219.119 144.502 218.962C144.665 218.801 144.792 218.609 144.876 218.397C144.973 218.162 145.025 217.912 145.03 217.659C145.043 217.404 145.012 217.149 144.939 216.905C144.872 216.685 144.761 216.481 144.612 216.305C144.467 216.128 144.288 215.984 144.084 215.881C143.856 215.772 143.608 215.711 143.355 215.704C143.105 215.686 142.854 215.721 142.619 215.806C142.405 215.88 142.211 216 142.047 216.155C141.887 216.317 141.761 216.509 141.677 216.721C141.581 216.955 141.528 217.205 141.52 217.459C141.51 217.713 141.542 217.968 141.614 218.212C141.681 218.432 141.793 218.636 141.941 218.813C142.091 218.978 142.273 219.112 142.477 219.205C142.7 219.323 142.946 219.393 143.198 219.413V219.413Z" fill="#00D981"/>
<path d="M281.211 233.758L169.108 224.943C166.673 224.806 164.794 222.588 164.908 220.021L165.153 214.479C165.271 211.897 167.339 209.903 169.781 210.017L282.058 217.101C284.497 217.219 286.356 219.495 286.207 222.204L285.891 229.155C285.738 231.831 283.646 233.896 281.211 233.758Z" fill="#C0E3FF"/>
<path d="M103.932 209.263C103.923 209.46 103.875 209.652 103.791 209.829C103.707 210.007 103.588 210.166 103.441 210.297C103.294 210.428 103.123 210.529 102.937 210.593C102.751 210.658 102.553 210.685 102.357 210.672C101.953 210.656 101.572 210.482 101.296 210.189C101.019 209.895 100.87 209.505 100.879 209.103C100.888 208.906 100.936 208.714 101.02 208.536C101.104 208.358 101.223 208.199 101.37 208.068C101.517 207.937 101.688 207.836 101.875 207.772C102.061 207.707 102.258 207.681 102.455 207.694C102.859 207.709 103.241 207.882 103.517 208.176C103.794 208.47 103.943 208.861 103.932 209.263V209.263Z" fill="#43A1FF"/>
<path d="M108.344 209.483C108.335 209.68 108.287 209.872 108.203 210.05C108.119 210.227 108 210.387 107.853 210.518C107.706 210.649 107.535 210.751 107.349 210.815C107.163 210.88 106.965 210.908 106.769 210.896C106.366 210.878 105.986 210.704 105.71 210.41C105.434 210.117 105.284 209.728 105.291 209.326C105.3 209.13 105.348 208.937 105.433 208.76C105.517 208.582 105.636 208.423 105.783 208.291C105.929 208.16 106.101 208.059 106.287 207.994C106.473 207.929 106.67 207.902 106.867 207.913C107.271 207.93 107.652 208.103 107.928 208.397C108.205 208.691 108.354 209.081 108.344 209.483V209.483Z" fill="#43A1FF"/>
<path d="M103.775 213.808C103.766 214.004 103.718 214.197 103.634 214.374C103.549 214.551 103.43 214.71 103.283 214.84C103.137 214.971 102.965 215.072 102.779 215.136C102.593 215.2 102.396 215.226 102.199 215.213C101.796 215.196 101.415 215.022 101.139 214.729C100.863 214.435 100.713 214.046 100.722 213.644C100.731 213.448 100.779 213.255 100.864 213.078C100.948 212.901 101.067 212.742 101.214 212.611C101.361 212.481 101.532 212.38 101.718 212.316C101.904 212.252 102.101 212.226 102.298 212.238C102.701 212.257 103.081 212.431 103.357 212.724C103.633 213.018 103.783 213.407 103.775 213.808Z" fill="#43A1FF"/>
<path d="M108.183 214.036C108.175 214.232 108.128 214.425 108.044 214.603C107.96 214.781 107.841 214.94 107.694 215.072C107.547 215.203 107.375 215.304 107.189 215.368C107.002 215.432 106.805 215.458 106.608 215.445C106.204 215.429 105.823 215.255 105.546 214.961C105.27 214.668 105.121 214.277 105.13 213.875C105.139 213.679 105.187 213.486 105.271 213.308C105.355 213.131 105.474 212.972 105.621 212.84C105.768 212.709 105.939 212.608 106.126 212.544C106.312 212.48 106.509 212.453 106.706 212.466C107.11 212.482 107.491 212.656 107.767 212.95C108.044 213.243 108.193 213.633 108.183 214.036V214.036Z" fill="#43A1FF"/>
<path d="M103.609 218.526C103.601 218.722 103.554 218.915 103.47 219.092C103.385 219.27 103.266 219.429 103.119 219.559C102.972 219.69 102.8 219.79 102.614 219.853C102.427 219.916 102.23 219.942 102.033 219.927C101.63 219.909 101.25 219.735 100.974 219.441C100.698 219.148 100.548 218.759 100.556 218.357C100.564 218.161 100.612 217.969 100.697 217.792C100.781 217.615 100.9 217.457 101.047 217.326C101.194 217.196 101.366 217.097 101.552 217.034C101.738 216.971 101.936 216.946 102.132 216.96C102.535 216.976 102.915 217.15 103.192 217.442C103.468 217.735 103.618 218.124 103.609 218.526Z" fill="#43A1FF"/>
<path d="M108.018 218.769C108.009 218.965 107.961 219.157 107.877 219.335C107.792 219.512 107.673 219.671 107.526 219.801C107.38 219.932 107.208 220.033 107.022 220.097C106.836 220.161 106.639 220.187 106.442 220.174C106.04 220.154 105.662 219.979 105.387 219.686C105.112 219.393 104.962 219.005 104.969 218.604C104.978 218.408 105.026 218.216 105.111 218.039C105.195 217.862 105.314 217.703 105.461 217.572C105.608 217.442 105.779 217.341 105.965 217.277C106.151 217.213 106.348 217.187 106.545 217.199C106.947 217.22 107.325 217.395 107.6 217.688C107.875 217.981 108.025 218.368 108.018 218.769V218.769Z" fill="#43A1FF"/>
<path d="M399.863 92.7964C399.778 92.7923 399.695 92.7707 399.619 92.733C399.543 92.6953 399.476 92.6423 399.421 92.5774C399.367 92.5125 399.326 92.4371 399.303 92.3559C399.279 92.2747 399.273 92.1895 399.283 92.1057L400.186 73.5841C400.187 73.4082 400.253 73.2389 400.37 73.1075C400.487 72.9761 400.649 72.8917 400.824 72.8698L463.581 71.394C463.667 71.4001 463.751 71.4239 463.827 71.4638C463.904 71.5037 463.971 71.559 464.025 71.626C464.079 71.6931 464.119 71.7706 464.141 71.8536C464.164 71.9366 464.169 72.0233 464.156 72.1084L463.1 91.2736C463.102 91.4525 463.037 91.6258 462.919 91.7603C462.8 91.8949 462.636 91.9815 462.458 92.0036L399.863 92.7964Z" fill="#4CF1AF"/>
</svg>
