<svg viewBox="0 0 24 24" xmlns="http://www.w3.org/2000/svg">
<path d="M6.40971 7.10135C6.85235 4.16195 9.46357 2 12.5 2C14.8092 2 16.7407 3.21552 17.7615 5.11316C20.1843 5.19523 22.0833 7.18956 22.0833 9.59083C22.0833 11.5597 21.0628 12.7013 20.0533 13.3279C19.5564 13.6363 19.0636 13.8208 18.6973 13.9284C18.5133 13.9824 18.3587 14.0178 18.2482 14.04C18.1929 14.051 18.1484 14.0589 18.1166 14.064C18.1006 14.0666 18.0878 14.0686 18.0784 14.07L18.0668 14.0716L18.063 14.0721L18.0615 14.0723L18.061 14.0724C18.0607 14.0724 18.0604 14.0725 17.9958 13.5767L18.0604 14.0725C17.7866 14.1082 17.5357 13.9151 17.5 13.6413C17.4644 13.3678 17.6568 13.1173 17.93 13.081C17.9301 13.081 17.9302 13.081 17.9303 13.081C17.9304 13.081 17.9304 13.081 17.9304 13.081L17.9308 13.0809C17.9309 13.0809 17.9311 13.0809 17.9312 13.0809L17.9338 13.0805L17.9557 13.0771C17.9764 13.0737 18.009 13.068 18.0518 13.0595C18.1374 13.0423 18.2632 13.0137 18.4155 12.9689C18.7218 12.8789 19.1259 12.7266 19.5259 12.4783C20.3101 11.9916 21.0833 11.1403 21.0833 9.59083C21.0833 7.64039 19.4731 6.03941 17.4725 6.113C17.2727 6.12034 17.0878 6.00796 17.0022 5.82724C16.1893 4.10971 14.53 3 12.5 3C9.77813 3 7.50913 5.04742 7.35246 7.69124C7.34386 7.83639 7.2725 7.97059 7.15699 8.0589C7.04148 8.1472 6.89325 8.18084 6.75094 8.15107C5.2012 7.82682 3.75 9.00601 3.75 10.5867C3.75 11.2535 3.92319 11.7168 4.15642 12.0466C4.39273 12.3808 4.71347 12.6098 5.05366 12.7667C5.39534 12.9244 5.7437 13.0032 6.01137 13.0417C6.14393 13.0608 6.25339 13.0695 6.32787 13.0735C6.36503 13.0755 6.39323 13.0762 6.41096 13.0765L6.42942 13.0767L6.43089 13.0767C6.43103 13.0767 6.43117 13.0767 6.43132 13.0767C6.43111 13.0767 6.43089 13.0767 6.43833 13.5767L6.44578 14.0766C6.72189 14.0725 6.94239 13.8453 6.93828 13.5692C6.93417 13.2932 6.70723 13.0728 6.43132 13.0767M6.40971 7.10135C4.45607 7.00142 2.75 8.55787 2.75 10.5867C2.75 11.4386 2.97536 12.1084 3.33994 12.624C3.70144 13.1352 4.17778 13.4639 4.63467 13.6747C5.09008 13.8849 5.5388 13.984 5.86895 14.0315C6.03529 14.0555 6.17492 14.0668 6.2748 14.0721C6.32482 14.0747 6.36512 14.0759 6.3941 14.0764C6.40859 14.0766 6.42028 14.0767 6.42895 14.0767L6.43969 14.0767L6.44333 14.0766L6.4447 14.0766L6.44528 14.0766C6.44554 14.0766 6.44578 14.0766 6.43833 13.5767" />
<path d="M9.5 13.5C9.77614 13.5 10 13.7239 10 14V21.5C10 21.7761 9.77614 22 9.5 22C9.22386 22 9 21.7761 9 21.5V14C9 13.7239 9.22386 13.5 9.5 13.5Z" />
<path d="M6.64645 18.6464C6.84171 18.4512 7.15829 18.4512 7.35355 18.6464L9.5 20.7929L11.6464 18.6464C11.8417 18.4512 12.1583 18.4512 12.3536 18.6464C12.5488 18.8417 12.5488 19.1583 12.3536 19.3536L9.85355 21.8536C9.75978 21.9473 9.63261 22 9.5 22C9.36739 22 9.24021 21.9473 9.14645 21.8536L6.64645 19.3536C6.45118 19.1583 6.45118 18.8417 6.64645 18.6464Z" />
<path d="M14.5 9.5C14.7761 9.5 15 9.72386 15 10V18.3333C15 18.6095 14.7761 18.8333 14.5 18.8333C14.2239 18.8333 14 18.6095 14 18.3333V10C14 9.72386 14.2239 9.5 14.5 9.5Z" />
<path d="M14.1464 9.64645C14.3417 9.45118 14.6583 9.45118 14.8536 9.64645L17.3536 12.1464C17.5488 12.3417 17.5488 12.6583 17.3536 12.8536C17.1583 13.0488 16.8417 13.0488 16.6464 12.8536L14.5 10.7071L12.3536 12.8536C12.1583 13.0488 11.8417 13.0488 11.6464 12.8536C11.4512 12.6583 11.4512 12.3417 11.6464 12.1464L14.1464 9.64645Z" />
</svg>
