<svg xmlns="http://www.w3.org/2000/svg" width="18" height="18" viewBox="0 0 24 24">
  <path d="M18.325 6.12799C17.9606 6.1306 17.5989 6.19032 17.253 6.30499C17.1954 5.17598 16.7178 4.10927 15.9142 3.31422C15.1105 2.51917 14.0387 2.05319 12.9092 2.00773C11.7796 1.96226 10.6738 2.34061 9.80885 3.06849C8.94388 3.79638 8.38219 4.82126 8.234 5.94199C7.64653 5.63798 6.99546 5.47727 6.334 5.47299C5.18552 5.47219 4.08375 5.92759 3.27099 6.73903C2.45824 7.55048 2.00106 8.65151 2 9.79999C2.00427 10.5097 2.18467 11.2072 2.525 11.83H21.388C21.7547 11.2765 21.9644 10.634 21.9949 9.97086C22.0255 9.30768 21.8756 8.64863 21.5614 8.06384C21.2471 7.47904 20.7802 6.99038 20.2103 6.64985C19.6404 6.30932 18.9889 6.12966 18.325 6.12999V6.12799Z" />
  <path d="M9.07 17L8.054 18.018V13.884C8.054 13.6188 7.94864 13.3644 7.76111 13.1769C7.57357 12.9894 7.31921 12.884 7.054 12.884C6.78878 12.884 6.53443 12.9894 6.34689 13.1769C6.15935 13.3644 6.054 13.6188 6.054 13.884V18.018L5.038 17C4.85036 16.8125 4.59591 16.7072 4.33064 16.7073C4.06537 16.7074 3.81101 16.8129 3.6235 17.0005C3.43599 17.1881 3.3307 17.4426 3.3308 17.7079C3.33089 17.9731 3.43636 18.2275 3.624 18.415L5.64 20.432L7.054 21.846L8.362 20.538L10.483 18.417C10.6709 18.2296 10.7767 17.9753 10.7771 17.7099C10.7774 17.4446 10.6724 17.1899 10.485 17.002C10.2976 16.8141 10.0433 16.7083 9.77791 16.7079C9.51255 16.7076 9.2579 16.8126 9.07 17Z" />
  <path d="M17.414 14.3L16 12.884L14.691 14.192L12.57 16.314C12.3878 16.5026 12.2871 16.7552 12.2893 17.0174C12.2916 17.2796 12.3968 17.5304 12.5822 17.7158C12.7676 17.9012 13.0184 18.0064 13.2806 18.0087C13.5428 18.011 13.7954 17.9102 13.984 17.728L15 16.712V20.846C15 21.1112 15.1054 21.3656 15.2929 21.5531C15.4804 21.7406 15.7348 21.846 16 21.846C16.2652 21.846 16.5196 21.7406 16.7071 21.5531C16.8946 21.3656 17 21.1112 17 20.846V16.713L18.015 17.728C18.1078 17.8209 18.2181 17.8946 18.3394 17.9449C18.4607 17.9952 18.5908 18.0212 18.7222 18.0212C18.8535 18.0213 18.9836 17.9954 19.1049 17.9452C19.2263 17.895 19.3366 17.8213 19.4295 17.7285C19.5224 17.6357 19.5961 17.5254 19.6464 17.4041C19.6967 17.2828 19.7227 17.1527 19.7227 17.0214C19.7228 16.89 19.6969 16.7599 19.6467 16.6386C19.5965 16.5172 19.5228 16.4069 19.43 16.314L17.414 14.3Z" />
</svg>