<svg xmlns="http://www.w3.org/2000/svg" viewBox="0 0 24 24">
  <title>billing</title>
  <g fill="#000" clip-path="url(#clip0)">
    <path
      d="M8.64 16.696h7.2v1.043h-7.2v-1.043zm6.048 4.174h4.032v1.043h-4.032V20.87zM14.4 5.217h-1.92c-.288 0-.48-.208-.48-.521 0-.313.192-.522.48-.522h1.92c.288 0 .48.209.48.522 0 .313-.192.521-.48.521zm4.32 2.087h-5.28c-.288 0-.48-.208-.48-.521 0-.313.192-.522.48-.522h5.28c.288 0 .48.209.48.522 0 .313-.192.521-.48.521zm-.48 2.087H12c-.288 0-.48-.208-.48-.521 0-.313.192-.522.48-.522h6.24c.288 0 .48.209.48.522 0 .313-.192.521-.48.521zm.48 2.087H12c-.288 0-.48-.208-.48-.521 0-.314.192-.522.48-.522h6.72c.288 0 .48.208.48.521 0 .314-.192.522-.48.522zm-.96 2.087H12c-.288 0-.48-.208-.48-.521 0-.314.192-.522.48-.522h5.76c.288 0 .48.208.48.521 0 .314-.192.522-.48.522zm.48 2.087h-6.72c-.288 0-.48-.208-.48-.522 0-.313.192-.521.48-.521h6.72c.288 0 .48.208.48.521 0 .313-.192.522-.48.522zM10.56 0h12v1.043h-12V0z"
    />
    <path
      d="M12.96 24h-12c-.288 0-.48-.209-.48-.522 0-.313.192-.522.48-.522.384 0 .672-.104.864-.313.48-.521.48-1.67.48-2.713 0-1.147 0-2.19.576-2.817.192-.313.576-.417.96-.417h4.416c.96-5.74.864-14.505.864-14.609 0-.73.288-2.087 1.44-2.087v1.043c-.48 0-.48 1.044-.48 1.044 0 .417.096 9.496-.96 15.235-.096.208-.288.417-.48.417h-4.8c-.192 0-.288.104-.384.104-.288.314-.288 1.253-.288 2.087 0 1.044 0 2.192-.384 3.026h10.08c.384 0 .672-.104.864-.313.48-.521.48-1.67.48-2.713 0-1.147 0-2.19.576-2.817.288-.313.576-.417 1.056-.417.48 0 .864.104 1.152.417.48.522.48 1.252.384 1.878 0 .626 0 1.253.288 1.461.192.209.576.313 1.056.313.096 0 .192 0 .48-.209 1.92-2.19 2.112-14.086 1.92-18.469 0-.73.288-2.087 1.44-2.087C23.904 0 24 2.504 24 3.652c0 .313-.192.522-.48.522h-1.44c0 4.591-.192 14.817-2.304 17.217-.288.418-.672.522-1.152.522-.768 0-1.344-.209-1.728-.626-.576-.626-.576-1.46-.576-2.296 0-.521 0-1.043-.192-1.148 0-.104-.192-.104-.288-.104-.192 0-.288.104-.384.104-.288.314-.288 1.253-.288 2.087 0 1.253 0 2.61-.768 3.444-.288.417-.768.626-1.44.626zm9.12-20.87h.96c-.096-1.043-.288-1.982-.48-2.087-.48 0-.48 1.044-.48 1.044V3.13z"
    />
  </g>
  <defs>
    <clipPath id="clip0">
      <path fill="#fff" d="M0 0h24v24H0z" />
    </clipPath>
  </defs>
</svg>
