<svg xmlns="http://www.w3.org/2000/svg" width="18" height="18" viewBox="0 0 24 24">
  <path d="M11.583 22h-.166L2.25 17.238c-.167-.095-.25-.286-.25-.476v-7.62c0-.19.083-.285.167-.38.083-.095.333-.095.416-.095l9.167 4.762c.167.095.25.285.25.476v7.619c0 .19-.083.285-.167.38-.083.096-.166.096-.25.096zm-8.75-5.524l8.334 4.286V14.19L2.833 9.905v6.571z" />
  <path d="M11.583 22c-.083 0-.166 0-.25-.095-.083-.096-.166-.19-.166-.381v-7.62c0-.19.083-.38.25-.475l10-4.762c.166-.096.25 0 .416 0 .084.19.167.285.167.476v7.619c0 .19-.083.38-.25.476L11.75 22h-.167zM12 14.19v6.572l9.167-4.381V9.81L12 14.19zm0-2.666c-1.667 0-2.917-.857-2.917-1.905S10.333 7.714 12 7.714c1.667 0 2.917.857 2.917 1.905s-1.25 1.905-2.917 1.905zm0-2.857c-1.25 0-2.083.571-2.083.952s.833.952 2.083.952c1.25 0 2.083-.571 2.083-.952 0-.38-.833-.952-2.083-.952zm0-2.381c-1.667 0-2.917-.857-2.917-1.905S10.333 2.476 12 2.476c1.667 0 2.917.857 2.917 1.905S13.667 6.286 12 6.286zm0-2.857c-1.25 0-2.083.571-2.083.952 0 .38.833.952 2.083.952 1.25 0 2.083-.571 2.083-.952S13.25 3.429 12 3.429zm5.833 5.714c-1.666 0-2.916-.857-2.916-1.905s1.25-1.905 2.916-1.905c1.667 0 2.917.857 2.917 1.905s-1.25 1.905-2.917 1.905zm0-2.857c-1.25 0-2.083.571-2.083.952s.833.952 2.083.952c1.25 0 2.084-.57 2.084-.952 0-.38-.834-.952-2.084-.952zM6.583 9.143c-1.666 0-2.916-.857-2.916-1.905s1.25-1.905 2.916-1.905c1.667 0 2.917.857 2.917 1.905S8.25 9.143 6.583 9.143zm0-2.857c-1.25 0-2.083.571-2.083.952s.833.952 2.083.952c1.25 0 2.084-.57 2.084-.952 0-.38-.834-.952-2.084-.952z" />
  <path d="M2.417 9.62A.454.454 0 012 9.332c-.083-.285 0-.476.25-.666l2.167-1.048c.25-.095.416 0 .583.286.167.285 0 .476-.25.666L2.583 9.62h-.166zm5.916-2.953a.454.454 0 01-.416-.286.441.441 0 01.25-.571l1.75-.953c.25-.095.416 0 .583.286.083.286 0 .476-.25.667l-1.75.857h-.167zm7.584.095h-.167l-2-1.048c-.25-.095-.333-.38-.25-.666.083-.19.333-.286.583-.19l2 1.047c.25.095.334.38.25.666a.598.598 0 01-.416.19zm5.666 2.857h-.166L19.5 8.667c-.25-.096-.333-.381-.25-.667.167-.286.333-.381.583-.286l1.917.953c.25.19.333.38.25.666a.454.454 0 01-.417.286z" />
</svg>
