<svg viewBox="0 0 24 24" fill="none" xmlns="http://www.w3.org/2000/svg">
<path d="M18.25 22H2.41667C2.16667 22 2 21.8333 2 21.5833V4.08333C2 3.83333 2.16667 3.66666 2.41667 3.66666H12.8333C13.0833 3.66666 13.25 3.83333 13.25 4.08333C13.25 4.33333 13.0833 4.5 12.8333 4.5H2.83333V21.1667H17.8333V12.8333C17.8333 12.5833 18 12.4167 18.25 12.4167C18.5 12.4167 18.6667 12.5833 18.6667 12.8333V21.5833C18.6667 21.8333 18.5 22 18.25 22Z" />
<path d="M8.33333 16.5C8.25 16.5 8.08333 16.5 8 16.4167C7.83333 16.25 7.83333 16 8 15.8333L15.5833 8.25C15.75 8.08333 16 8.08333 16.1667 8.25C16.3333 8.41667 16.3333 8.66667 16.1667 8.83333L8.66667 16.3333C8.58333 16.4167 8.5 16.5 8.33333 16.5V16.5Z" />
<path d="M13.0833 13.8333C12.3333 13.8333 11.6667 13.5833 11.25 13.1667C10.1667 12.0833 9.91667 10.75 10.4167 9.16666C11.1667 7.08333 13.25 5.08333 14 5C14.0833 5 14.25 5 14.3333 5.08333C14.4167 5.16666 14.5 5.25 14.5 5.41666V6.83333C15.5 6.33333 16 4.33333 16 4.25C16 4.08333 16.0833 4 16.25 3.91666C18.75 2.83333 21.4167 2.41666 21.5 2.41666C21.6667 2.41666 21.75 2.41666 21.8333 2.58333C22 2.66666 22 2.83333 22 2.91666C21.9167 3.16666 20.75 8.41666 17.9167 11.1667C16 13.0833 14.3333 13.8333 13.0833 13.8333V13.8333ZM13.6667 6.08333C12.9167 6.66666 11.5833 8.08333 11.1667 9.58333C10.8333 10.75 11.0833 11.6667 11.8333 12.5C12.6667 13.3333 14.75 13.1667 17.3333 10.5833C19.4167 8.5 20.5833 4.75 21 3.33333C20.0833 3.5 18.4167 3.91666 16.75 4.58333C16.5833 5.33333 15.8333 7.66666 14.0833 7.66666C13.8333 7.66666 13.6667 7.5 13.6667 7.25V6.08333V6.08333Z" />
</svg>
