<svg viewBox="0 0 24 24" xmlns="http://www.w3.org/2000/svg">
  <path d="M0.5 3C0.5 2.72386 0.723858 2.5 1 2.5H7.69565C7.97179 2.5 8.19565 2.72386 8.19565 3V4.5H20.1304C20.4066 4.5 20.6304 4.72386 20.6304 5V6.5H23C23.2761 6.5 23.5 6.72386 23.5 7V19C23.5 20.9121 22.0112 22.5 20.1304 22.5H3.3913C1.77241 22.5 0.5 21.1358 0.5 19.5V3ZM5.54616 21.5H20.1304C21.4177 21.5 22.5 20.4019 22.5 19V7.5H6.28261V19.5C6.28261 20.2627 6.00564 20.9662 5.54616 21.5ZM19.6304 6.5H5.78261C5.50647 6.5 5.28261 6.72386 5.28261 7V19.5C5.28261 20.6259 4.41458 21.5 3.3913 21.5C2.36637 21.5 1.5 20.6262 1.5 19.5V3.5H7.19565V5C7.19565 5.27614 7.41951 5.5 7.69565 5.5H19.6304V6.5Z" />
  <path d="M16.8515 12.0048C17.0241 12.0288 17.1717 12.1409 17.2411 12.3006L19.6324 17.8006C19.6996 17.9552 19.6845 18.1332 19.592 18.2742C19.4996 18.4151 19.3424 18.5 19.1739 18.5H9.60869C9.41665 18.5 9.24158 18.39 9.15823 18.217C9.07489 18.044 9.098 17.8385 9.21771 17.6884L11.609 14.6884C11.7583 14.5011 12.0194 14.446 12.2316 14.5569L13.7842 15.3685L16.3959 12.183C16.5064 12.0483 16.679 11.9808 16.8515 12.0048ZM16.6504 13.4499L14.2997 16.317C14.1495 16.5002 13.8914 16.5529 13.6814 16.4431L12.1339 15.6342L10.6467 17.5H18.4113L16.6504 13.4499Z" />
  <path d="M11.5217 10.5C11.0262 10.5 10.587 10.9265 10.587 11.5C10.587 12.0735 11.0262 12.5 11.5217 12.5C12.0173 12.5 12.4565 12.0735 12.4565 11.5C12.4565 10.9265 12.0173 10.5 11.5217 10.5ZM9.58696 11.5C9.58696 10.4166 10.4325 9.5 11.5217 9.5C12.611 9.5 13.4565 10.4166 13.4565 11.5C13.4565 12.5834 12.611 13.5 11.5217 13.5C10.4325 13.5 9.58696 12.5834 9.58696 11.5Z" />
</svg>
