<svg viewBox="0 0 24 24" fill="none" xmlns="http://www.w3.org/2000/svg">
  <path d="M2 2.5C2 2.22386 2.22386 2 2.5 2H8.83334C9.10948 2 9.33334 2.22386 9.33334 2.5V5.5H19C19.2761 5.5 19.5 5.72386 19.5 6V8H21.5C21.7761 8 22 8.22386 22 8.5V19C22 19.7321 21.8787 20.4687 21.515 21.0372C21.1289 21.641 20.5038 22 19.6526 22H5C4.28836 22 3.5539 21.692 2.99948 21.2335C2.44748 20.777 2 20.1067 2 19.3333V2.5ZM7.05143 21H19.6526C20.1814 21 20.4801 20.7994 20.6726 20.4984C20.8876 20.1622 21 19.6487 21 19V9H7.66667V19.3333C7.66667 19.9529 7.4328 20.5372 7.05143 21ZM18.5 8H7.16667C6.89053 8 6.66667 8.22386 6.66667 8.5V19.3333C6.66667 20.2079 5.87398 21 5 21C4.55997 21 4.04443 20.8 3.63677 20.4629C3.22669 20.1238 3 19.7108 3 19.3333V3H8.33334V6C8.33334 6.27614 8.55719 6.5 8.83334 6.5H18.5V8Z" />
  <path d="M16.8203 13.005C16.9894 13.029 17.1345 13.1376 17.2052 13.2931L19.2885 17.8764C19.3589 18.0312 19.3458 18.2111 19.2537 18.354C19.1617 18.497 19.0033 18.5833 18.8333 18.5833H10.5C10.306 18.5833 10.1295 18.4711 10.0472 18.2954C9.96492 18.1197 9.99169 17.9123 10.1159 17.7632L12.1992 15.2632C12.3478 15.085 12.5994 15.0324 12.8069 15.1361L14.1244 15.7949L16.3704 13.1746C16.4815 13.0449 16.6512 12.981 16.8203 13.005ZM16.6193 14.4208L14.6296 16.7421C14.4803 16.9163 14.2316 16.9665 14.0264 16.8639L12.7139 16.2076L11.5675 17.5833H18.0568L16.6193 14.4208Z" />
  <path d="M12.1667 11.9167C11.7525 11.9167 11.4167 12.2525 11.4167 12.6667C11.4167 13.0809 11.7525 13.4167 12.1667 13.4167C12.5809 13.4167 12.9167 13.0809 12.9167 12.6667C12.9167 12.2525 12.5809 11.9167 12.1667 11.9167ZM10.4167 12.6667C10.4167 11.7002 11.2002 10.9167 12.1667 10.9167C13.1332 10.9167 13.9167 11.7002 13.9167 12.6667C13.9167 13.6332 13.1332 14.4167 12.1667 14.4167C11.2002 14.4167 10.4167 13.6332 10.4167 12.6667Z" />
</svg>
