<svg width="24" height="24" viewBox="0 0 24 24" fill="none" xmlns="http://www.w3.org/2000/svg">
<path fill-rule="evenodd" clip-rule="evenodd" d="M0 2.5C0 2.22386 0.223858 2 0.5 2H7.5C7.77614 2 8 2.22386 8 2.5V4H23.5C23.7761 4 24 4.22386 24 4.5V18.5C24 20.4333 22.432 22 20.5 22H3C1.34173 22 0 20.657 0 19V2.5ZM5.23596 21H20.5C21.88 21 23 19.8807 23 18.5V7H6V19C6 19.7685 5.71103 20.4693 5.23596 21ZM5.5 6H23V5H7.5C7.22386 5 7 4.77614 7 4.5V3H1V19C1 20.105 1.89427 21 3 21C4.10399 21 5 20.1047 5 19V6.5C5 6.22386 5.22386 6 5.5 6Z" />
<path fill-rule="evenodd" clip-rule="evenodd" d="M17.0703 11.505C17.2394 11.529 17.3845 11.6376 17.4552 11.7931L19.9552 17.2931C20.0255 17.4479 20.0124 17.6278 19.9204 17.7707C19.8284 17.9136 19.67 18 19.5 18H9.50001C9.306 18 9.1295 17.8878 9.04721 17.7121C8.96492 17.5364 8.99169 17.329 9.1159 17.1799L11.6159 14.1799C11.7644 14.0017 12.0161 13.949 12.2236 14.0528L13.8744 14.8782L16.6204 11.6746C16.7315 11.5449 16.9012 11.481 17.0703 11.505ZM16.8693 12.9208L14.3796 15.8254C14.2303 15.9996 13.9816 16.0498 13.7764 15.9472L12.1306 15.1243L10.5675 17H18.7235L16.8693 12.9208Z" />
<path fill-rule="evenodd" clip-rule="evenodd" d="M11.5 10C10.9477 10 10.5 10.4477 10.5 11C10.5 11.5523 10.9477 12 11.5 12C12.0523 12 12.5 11.5523 12.5 11C12.5 10.4477 12.0523 10 11.5 10ZM9.5 11C9.5 9.89543 10.3954 9 11.5 9C12.6046 9 13.5 9.89543 13.5 11C13.5 12.1046 12.6046 13 11.5 13C10.3954 13 9.5 12.1046 9.5 11Z" />
</svg>
