<svg viewBox="0 0 24 24" xmlns="http://www.w3.org/2000/svg">
<path d="M4.91667 8.35243V7.50749H5.75V8.66666C5.75 8.85266 5.62672 9.01613 5.44788 9.06727L3.33207 9.67226C3.33206 9.67227 3.33206 9.67227 3.33205 9.67227C3.2139 9.70606 3.08547 9.79524 2.98466 9.92881C2.88385 10.0624 2.83333 10.2103 2.83333 10.3333H7V11.1667H2.41667C2.18655 11.1667 2 10.9801 2 10.75V10.3333C2 9.99803 2.1299 9.67802 2.31951 9.4268C2.50911 9.17559 2.78109 8.9631 3.10293 8.87105L3.10295 8.87105L4.91667 8.35243Z" />
<path d="M7.41666 8.66667V7.48167H8.24999V8.35248L10.0627 8.87101C10.0628 8.87103 10.0626 8.87099 10.0627 8.87101C10.3848 8.96302 10.6572 9.17546 10.847 9.4267C11.0367 9.67798 11.1667 9.99804 11.1667 10.3333V10.75C11.1667 10.9801 10.9801 11.1667 10.75 11.1667H6.16666V10.3333H10.3333C10.3333 10.2103 10.2828 10.0624 10.182 9.92894C10.0812 9.79544 9.95257 9.7062 9.83396 9.67234L7.71873 9.06727C7.53992 9.01612 7.41666 8.85266 7.41666 8.66667Z" />
<path d="M6.58332 2.83333C5.46592 2.83333 4.49999 3.83253 4.49999 5.1425C4.49999 6.45247 5.46592 7.45167 6.58332 7.45167C7.70073 7.45167 8.66666 6.45247 8.66666 5.1425C8.66666 3.83253 7.70073 2.83333 6.58332 2.83333ZM3.66666 5.1425C3.66666 3.4416 4.9393 2 6.58332 2C8.22734 2 9.49999 3.4416 9.49999 5.1425C9.49999 6.8434 8.22734 8.285 6.58332 8.285C4.9393 8.285 3.66666 6.8434 3.66666 5.1425Z" />
<path d="M7.06076 3.81279C7.19116 3.83201 7.30477 3.9118 7.36711 4.02792C7.51439 4.30226 7.79073 4.45876 8.09934 4.50245C8.42964 4.54921 8.6798 4.45344 8.76287 4.37038L9.35213 4.95963C9.01853 5.29323 8.46453 5.3958 7.98253 5.32756C7.61749 5.27588 7.23124 5.11887 6.93133 4.82229C6.50338 5.11779 6.0131 5.27016 5.54477 5.30997C4.94453 5.36098 4.33354 5.23058 3.89835 4.92395L4.37832 4.24273C4.61729 4.4111 5.02047 4.51819 5.47419 4.47963C5.92044 4.4417 6.36954 4.26621 6.70537 3.93038C6.79857 3.83718 6.93037 3.79357 7.06076 3.81279Z" />
<path d="M15.75 8.35243V7.50749H16.5833V8.66666C16.5833 8.85266 16.46 9.01613 16.2812 9.06727L14.1654 9.67226C14.1654 9.67227 14.1654 9.67227 14.1654 9.67227C14.0472 9.70606 13.9188 9.79524 13.818 9.92881C13.7172 10.0624 13.6667 10.2103 13.6667 10.3333H17.8333V11.1667H13.25C13.0199 11.1667 12.8333 10.9801 12.8333 10.75V10.3333C12.8333 9.99803 12.9632 9.67802 13.1528 9.4268C13.3424 9.17559 13.6144 8.9631 13.9363 8.87105L13.9363 8.87105L15.75 8.35243Z" />
<path d="M18.25 8.66666V7.495H19.0833V8.35247L20.896 8.871C20.8961 8.87102 20.896 8.87098 20.896 8.871C21.2182 8.96301 21.4905 9.17545 21.6803 9.42669C21.8701 9.67797 22 9.99802 22 10.3333V10.75C22 10.9801 21.8135 11.1667 21.5833 11.1667H17V10.3333H21.1667C21.1667 10.2103 21.1162 10.0624 21.0153 9.92893C20.9145 9.79543 20.7859 9.70618 20.6673 9.67233L18.5521 9.06726C18.3733 9.01611 18.25 8.85265 18.25 8.66666Z" />
<path d="M17.4167 2.83333C16.2993 2.83333 15.3333 3.83253 15.3333 5.1425C15.3333 6.45247 16.2993 7.45167 17.4167 7.45167C18.5341 7.45167 19.5 6.45247 19.5 5.1425C19.5 3.83253 18.5341 2.83333 17.4167 2.83333ZM14.5 5.1425C14.5 3.4416 15.7726 2 17.4167 2C19.0607 2 20.3333 3.4416 20.3333 5.1425C20.3333 6.8434 19.0607 8.285 17.4167 8.285C15.7726 8.285 14.5 6.8434 14.5 5.1425Z" />
<path d="M17.8941 3.81279C18.0245 3.83201 18.1381 3.9118 18.2004 4.02792C18.3483 4.30337 18.6222 4.45831 18.9259 4.50118C19.2509 4.54708 19.4988 4.45199 19.5829 4.36788L20.1721 4.95713C19.8396 5.28969 19.2899 5.39418 18.8093 5.32633C18.4459 5.27501 18.0626 5.11818 17.7643 4.82251C17.3365 5.11787 16.8463 5.27017 16.3781 5.30997C15.7779 5.36098 15.1669 5.23058 14.7317 4.92395L15.2116 4.24273C15.4506 4.4111 15.8538 4.51819 16.3075 4.47963C16.7538 4.4417 17.2029 4.26621 17.5387 3.93038C17.6319 3.83718 17.7637 3.79357 17.8941 3.81279Z" />
<path d="M10.3333 19.1858V18.3408H11.1667V19.5C11.1667 19.686 11.0434 19.8495 10.8645 19.9006L8.74872 20.5056C8.74872 20.5056 8.74871 20.5056 8.74871 20.5056C8.63056 20.5394 8.50213 20.6286 8.40132 20.7621C8.30051 20.8957 8.24999 21.0436 8.24999 21.1667H12.4167V22H7.83332C7.6032 22 7.41666 21.8134 7.41666 21.5833V21.1667C7.41666 20.8314 7.54655 20.5114 7.73616 20.2601C7.92576 20.0089 8.19774 19.7964 8.51959 19.7044L8.51961 19.7044L10.3333 19.1858Z" />
<path d="M12.8333 19.5V18.3408H13.6667V19.1858L15.4794 19.7043C15.4794 19.7043 15.4793 19.7043 15.4794 19.7043C15.8015 19.7963 16.0739 20.0088 16.2636 20.26C16.4534 20.5113 16.5833 20.8313 16.5833 21.1667V21.5833C16.5833 21.8134 16.3968 22 16.1667 22H11.5833V21.1667H15.75C15.75 21.0436 15.6995 20.8958 15.5987 20.7623C15.4978 20.6288 15.3692 20.5395 15.2506 20.5057L13.1354 19.9006C12.9566 19.8494 12.8333 19.686 12.8333 19.5Z" />
<path d="M12 13.6667C10.8826 13.6667 9.91668 14.6659 9.91668 15.9758C9.91668 17.2858 10.8826 18.285 12 18.285C13.1174 18.285 14.0833 17.2858 14.0833 15.9758C14.0833 14.6659 13.1174 13.6667 12 13.6667ZM9.08334 15.9758C9.08334 14.2749 10.356 12.8333 12 12.8333C13.644 12.8333 14.9167 14.2749 14.9167 15.9758C14.9167 17.6767 13.644 19.1183 12 19.1183C10.356 19.1183 9.08334 17.6767 9.08334 15.9758Z" />
<path d="M12.4774 14.6461C12.6078 14.6653 12.7214 14.7451 12.7838 14.8613C12.9303 15.1342 13.2012 15.2846 13.5039 15.3234C13.8277 15.3649 14.0791 15.2674 14.1662 15.1804L14.7555 15.7696C14.4258 16.0992 13.8797 16.2117 13.3979 16.1499C13.0335 16.1032 12.6481 15.9505 12.3483 15.6554C11.9203 15.951 11.4299 16.1035 10.9614 16.1433C10.3612 16.1943 9.7502 16.0639 9.315 15.7573L9.79498 15.0761C10.0339 15.2444 10.4371 15.3515 10.8908 15.313C11.3371 15.275 11.7862 15.0995 12.122 14.7637C12.2152 14.6705 12.347 14.6269 12.4774 14.6461Z" />
<path d="M5.0387 12.122C5.20141 11.9593 5.46523 11.9593 5.62795 12.122L7.71128 14.2054C7.874 14.3681 7.874 14.6319 7.71128 14.7946C7.54857 14.9573 7.28475 14.9573 7.12203 14.7946L5.0387 12.7113C4.87598 12.5486 4.87598 12.2848 5.0387 12.122Z" />
<path d="M18.9613 12.122C19.124 12.2848 19.124 12.5486 18.9613 12.7113L16.878 14.7946C16.7152 14.9573 16.4514 14.9573 16.2887 14.7946C16.126 14.6319 16.126 14.3681 16.2887 14.2054L18.372 12.122C18.5348 11.9593 18.7986 11.9593 18.9613 12.122Z" />
</svg>
