<svg viewBox="0 0 24 24" fill="none" xmlns="http://www.w3.org/2000/svg">
<path d="M2 6.47059C2 6.21069 2.18655 6 2.41667 6H8.25C8.48012 6 8.66667 6.21069 8.66667 6.47059C8.66667 6.73049 8.48012 6.94118 8.25 6.94118H2.83333V21.0588H21.1667V6.94118H15.75C15.5199 6.94118 15.3333 6.73049 15.3333 6.47059C15.3333 6.21069 15.5199 6 15.75 6H21.5833C21.8135 6 22 6.21069 22 6.47059V21.5294C22 21.7893 21.8135 22 21.5833 22H2.41667C2.18655 22 2 21.7893 2 21.5294V6.47059Z" />
<path d="M2 10.4167C2 10.1865 2.18655 10 2.41667 10H21.5833C21.8135 10 22 10.1865 22 10.4167C22 10.6468 21.8135 10.8333 21.5833 10.8333H2.41667C2.18655 10.8333 2 10.6468 2 10.4167Z" />
<path d="M12 14.0833C12 13.8532 12.1865 13.6667 12.4167 13.6667H15.75C15.9801 13.6667 16.1667 13.8532 16.1667 14.0833C16.1667 14.3135 15.9801 14.5 15.75 14.5H12.4167C12.1865 14.5 12 14.3135 12 14.0833Z" />
<path d="M12 15.75C12 15.5199 12.1865 15.3333 12.4167 15.3333H17.4167C17.6468 15.3333 17.8333 15.5199 17.8333 15.75C17.8333 15.9801 17.6468 16.1667 17.4167 16.1667H12.4167C12.1865 16.1667 12 15.9801 12 15.75Z" />
<path d="M12 17.4167C12 17.1865 12.1865 17 12.4167 17H16.5833C16.8135 17 17 17.1865 17 17.4167C17 17.6468 16.8135 17.8333 16.5833 17.8333H12.4167C12.1865 17.8333 12 17.6468 12 17.4167Z" />
<path d="M9.5 4.5C9.5 3.11905 10.619 2 12 2C13.381 2 14.5 3.11905 14.5 4.5V8.25C14.5 8.48012 14.3135 8.66667 14.0833 8.66667H9.91667C9.68655 8.66667 9.5 8.48012 9.5 8.25V4.5ZM12 2.83333C11.0793 2.83333 10.3333 3.57929 10.3333 4.5V7.83333H13.6667V4.5C13.6667 3.57929 12.9207 2.83333 12 2.83333Z" />
<path d="M7.83332 13.6667C7.37309 13.6667 6.99999 14.0398 6.99999 14.5C6.99999 14.9602 7.37309 15.3333 7.83332 15.3333C8.29356 15.3333 8.66666 14.9602 8.66666 14.5C8.66666 14.0398 8.29356 13.6667 7.83332 13.6667ZM6.16666 14.5C6.16666 13.5795 6.91285 12.8333 7.83332 12.8333C8.7538 12.8333 9.49999 13.5795 9.49999 14.5C9.49999 15.4205 8.7538 16.1667 7.83332 16.1667C6.91285 16.1667 6.16666 15.4205 6.16666 14.5Z" />
<path d="M6.19926 17.8333H9.46743C9.30782 16.8347 8.58573 16.1667 7.83334 16.1667C7.08096 16.1667 6.35887 16.8347 6.19926 17.8333ZM5.33334 18.25C5.33334 16.7134 6.38447 15.3333 7.83334 15.3333C9.28222 15.3333 10.3333 16.7134 10.3333 18.25C10.3333 18.4801 10.1468 18.6667 9.91668 18.6667H5.75001C5.51989 18.6667 5.33334 18.4801 5.33334 18.25Z" />
</svg>
