<svg xmlns="http://www.w3.org/2000/svg" width="18" height="18" viewBox="0 0 24 24">
  <path d="M19.1742 22.0909H4.59091C3.17425 22.0909 2.09091 20.7909 2.09091 19.0909V2.59091C2.09091 2.29091 2.25758 2.09091 2.50758 2.09091H8.34091C8.59091 2.09091 8.75758 2.29091 8.75758 2.59091V4.09091H19.1742C19.4242 4.09091 19.5909 4.29091 19.5909 4.59091V6.09091H21.6742C21.9242 6.09091 22.0909 6.29091 22.0909 6.59091V18.5909C22.0909 20.4909 20.7576 22.0909 19.1742 22.0909ZM6.42424 21.0909H19.1742C20.3409 21.0909 21.2576 19.9909 21.2576 18.5909V7.09091H7.09091V19.0909C7.09091 19.8909 6.84091 20.5909 6.42424 21.0909ZM2.92425 3.09091V19.0909C2.92425 20.1909 3.67425 21.0909 4.59091 21.0909C5.50758 21.0909 6.25758 20.1909 6.25758 19.0909V6.59091C6.25758 6.29091 6.42425 6.09091 6.67425 6.09091H18.7576V5.09091H8.34091C8.09091 5.09091 7.92425 4.89091 7.92425 4.59091V3.09091H2.92425Z" />
</svg>
