<svg viewBox="0 0 24 24" fill="none" xmlns="http://www.w3.org/2000/svg">
<path d="M12 3C6.98341 3 3 6.98341 3 12C3 17.0166 6.98341 21 12 21C17.0166 21 21 17.0166 21 12C21 6.98341 17.0166 3 12 3ZM2 12C2 6.43113 6.43113 2 12 2C17.5689 2 22 6.43113 22 12C22 17.5689 17.5689 22 12 22C6.43113 22 2 17.5689 2 12Z" />
<path d="M8.58331 9.49998C8.58331 7.61217 10.1122 6.08331 12 6.08331C13.8869 6.08331 15.4166 7.61208 15.4166 9.49998C15.4166 10.7209 14.7749 11.7879 13.8154 12.3909L14.5775 17.3406C14.5997 17.4848 14.5578 17.6315 14.4628 17.7422C14.3678 17.8529 14.2292 17.9166 14.0833 17.9166H9.91665C9.77077 17.9166 9.63216 17.8529 9.53717 17.7422C9.44218 17.6315 9.40028 17.4848 9.42246 17.3406L10.1838 12.3909C9.22419 11.7879 8.58331 10.7207 8.58331 9.49998ZM12 7.08331C10.6645 7.08331 9.58331 8.16446 9.58331 9.49998C9.58331 10.4561 10.1397 11.2816 10.9487 11.6733C11.1463 11.769 11.2584 11.9823 11.225 12.1993L10.4994 16.9166H13.5004L12.7741 12.1994C12.7407 11.9824 12.8528 11.769 13.0504 11.6733C13.8596 11.2815 14.4166 10.4559 14.4166 9.49998C14.4166 8.16455 13.3348 7.08331 12 7.08331Z" />
</svg>
