<svg viewBox="0 0 24 24" fill="none" xmlns="http://www.w3.org/2000/svg">
  <path d="M7.87499 2.83427C7.11612 2.83427 6.49999 3.4504 6.49999 4.20927V6.95927C6.49999 8.15872 6.20066 9.4029 5.53403 10.3614C4.93043 11.2292 4.03091 11.8508 2.83332 11.9772V21.1676H21.1667V11.9775C19.9708 11.8525 19.071 11.2383 18.4665 10.3727C17.7989 9.41697 17.5 8.17208 17.5 6.95927V4.20927C17.5 3.4504 16.8839 2.83427 16.125 2.83427H7.87499ZM5.58332 4.20927C5.58332 2.94414 6.60986 1.9176 7.87499 1.9176H16.125C17.3901 1.9176 18.4167 2.94414 18.4167 4.20927V6.95927C18.4167 8.03812 18.6851 9.0849 19.218 9.84788C19.7389 10.5937 20.5197 11.0843 21.625 11.0843C21.8781 11.0843 22.0833 11.2895 22.0833 11.5426V21.6259C22.0833 21.8791 21.8781 22.0843 21.625 22.0843H2.37499C2.12186 22.0843 1.91666 21.8791 1.91666 21.6259V11.5426C1.91666 11.2895 2.12186 11.0843 2.37499 11.0843C3.47808 11.0843 4.25942 10.5886 4.78149 9.83795C5.31523 9.07056 5.58332 8.02306 5.58332 6.95927V4.20927Z" />
  <path d="M9.25 2.37594C9.25 2.12281 9.4552 1.9176 9.70833 1.9176H14.2917C14.5448 1.9176 14.75 2.12281 14.75 2.37594V7.4176C14.75 8.93665 13.519 10.1676 12 10.1676C10.481 10.1676 9.25 8.93665 9.25 7.4176V2.37594ZM10.1667 2.83427V7.4176C10.1667 8.43039 10.9872 9.25094 12 9.25094C13.0128 9.25094 13.8333 8.43039 13.8333 7.4176V2.83427H10.1667Z" />
  <path d="M5.58334 12.4592C5.58334 12.2061 5.78855 12.0009 6.04168 12.0009H7.87501C8.12814 12.0009 8.33334 12.2061 8.33334 12.4592V19.7926C8.33334 20.0457 8.12814 20.2509 7.87501 20.2509H6.04168C5.78855 20.2509 5.58334 20.0457 5.58334 19.7926V12.4592ZM6.50001 12.9176V19.3342H7.41668V12.9176H6.50001Z" />
  <path d="M15.6667 12.4592C15.6667 12.2061 15.8719 12.0009 16.125 12.0009H17.9583C18.2115 12.0009 18.4167 12.2061 18.4167 12.4592V19.7926C18.4167 20.0457 18.2115 20.2509 17.9583 20.2509H16.125C15.8719 20.2509 15.6667 20.0457 15.6667 19.7926V12.4592ZM16.5833 12.9176V19.3342H17.5V12.9176H16.5833Z" />
  <path d="M6.04167 14.7509H2.375V13.8343H6.04167V14.7509Z" />
  <path d="M21.625 14.7509H17.9583V13.8343H21.625V14.7509Z" />
  <path d="M16.125 14.7509H7.875V13.8343H16.125V14.7509Z" />
  <path d="M6.04167 18.4176H2.375V17.5009H6.04167V18.4176Z" />
  <path d="M21.625 18.4176H17.9583V17.5009H21.625V18.4176Z" />
  <path d="M16.125 18.4176H7.875V17.5009H16.125V18.4176Z" />
</svg>
