<svg viewBox="0 0 24 24" fill="none" xmlns="http://www.w3.org/2000/svg">
  <path d="M2.00001 21.5C2.00001 21.2239 2.11058 21.0833 2.38672 21.0833H21.6953C21.9715 21.0833 22 21.5 22 21.5C22 21.7761 21.9168 22 21.6406 22H2.35938C1.94272 21.9167 2.00001 21.5 2.00001 21.5Z" />
  <path d="M2.75 17.3333C2.75 17.0572 2.97386 16.8333 3.25 16.8333H5.75C6.02614 16.8333 6.25 17.0572 6.25 17.3333V21.5C6.25 21.7761 6.02614 22 5.75 22H3.25C2.97386 22 2.75 21.7761 2.75 21.5V17.3333ZM3.75 17.8333V21H5.25V17.8333H3.75Z" />
  <path d="M7.75 13.1667C7.75 12.8905 7.97386 12.6667 8.25 12.6667H10.75C11.0261 12.6667 11.25 12.8905 11.25 13.1667V21.5C11.25 21.7761 11.0261 22 10.75 22H8.25C7.97386 22 7.75 21.7761 7.75 21.5V13.1667ZM8.75 13.6667V21H10.25V13.6667H8.75Z" />
  <path d="M12.75 14.8333C12.75 14.5572 12.9739 14.3333 13.25 14.3333H15.75C16.0261 14.3333 16.25 14.5572 16.25 14.8333V21.5C16.25 21.7761 16.0261 22 15.75 22H13.25C12.9739 22 12.75 21.7761 12.75 21.5V14.8333ZM13.75 15.3333V21H15.25V15.3333H13.75Z" />
  <path d="M17.75 9C17.75 8.72386 17.9739 8.5 18.25 8.5H20.75C21.0261 8.5 21.25 8.72386 21.25 9V21.5C21.25 21.7761 21.0261 22 20.75 22H18.25C17.9739 22 17.75 21.7761 17.75 21.5V9ZM18.75 9.5V21H20.25V9.5H18.75Z" />
  <path d="M4.49999 11.25C4.31589 11.25 4.16666 11.3992 4.16666 11.5833C4.16666 11.7674 4.31589 11.9167 4.49999 11.9167C4.68409 11.9167 4.83332 11.7674 4.83332 11.5833C4.83332 11.3992 4.68409 11.25 4.49999 11.25ZM3.16666 11.5833C3.16666 10.847 3.76361 10.25 4.49999 10.25C5.23637 10.25 5.83332 10.847 5.83332 11.5833C5.83332 12.3197 5.23637 12.9167 4.49999 12.9167C3.76361 12.9167 3.16666 12.3197 3.16666 11.5833Z" />
  <path d="M9.49999 7.08331C9.31589 7.08331 9.16666 7.23255 9.16666 7.41665C9.16666 7.60074 9.31589 7.74998 9.49999 7.74998C9.68408 7.74998 9.83332 7.60074 9.83332 7.41665C9.83332 7.23255 9.68408 7.08331 9.49999 7.08331ZM8.16666 7.41665C8.16666 6.68027 8.76361 6.08331 9.49999 6.08331C10.2364 6.08331 10.8333 6.68027 10.8333 7.41665C10.8333 8.15303 10.2364 8.74998 9.49999 8.74998C8.76361 8.74998 8.16666 8.15303 8.16666 7.41665Z" />
  <path d="M14.5 8.75C14.3159 8.75 14.1667 8.89924 14.1667 9.08333C14.1667 9.26743 14.3159 9.41667 14.5 9.41667C14.6841 9.41667 14.8333 9.26743 14.8333 9.08333C14.8333 8.89924 14.6841 8.75 14.5 8.75ZM13.1667 9.08333C13.1667 8.34695 13.7636 7.75 14.5 7.75C15.2364 7.75 15.8333 8.34695 15.8333 9.08333C15.8333 9.81971 15.2364 10.4167 14.5 10.4167C13.7636 10.4167 13.1667 9.81971 13.1667 9.08333Z" />
  <path d="M19.3333 3C19.1492 3 19 3.14924 19 3.33333C19 3.51743 19.1492 3.66667 19.3333 3.66667C19.5174 3.66667 19.6667 3.51743 19.6667 3.33333C19.6667 3.14924 19.5174 3 19.3333 3ZM18 3.33333C18 2.59695 18.597 2 19.3333 2C20.0697 2 20.6667 2.59695 20.6667 3.33333C20.6667 4.06971 20.0697 4.66667 19.3333 4.66667C18.597 4.66667 18 4.06971 18 3.33333Z" />
  <path d="M9.24402 7.62898C9.42085 7.84108 9.39227 8.15637 9.18017 8.3332L5.46101 11.434C5.24891 11.6109 4.93362 11.5823 4.75679 11.3702C4.57995 11.1581 4.60854 10.8428 4.82064 10.666L8.5398 7.56514C8.7519 7.3883 9.06719 7.41689 9.24402 7.62898Z" />
  <path d="M13.5753 9.30184L10.1294 8.15351L10.4456 7.2048L13.8914 8.35314L13.5753 9.30184Z" />
  <path d="M18.858 4.10813C19.0285 4.26952 19.0483 4.55295 18.902 4.7412L15.7156 8.84325C15.5694 9.03149 15.3126 9.05326 15.142 8.89187C14.9715 8.73048 14.9517 8.44705 15.098 8.2588L18.2844 4.15675C18.4306 3.96851 18.6874 3.94674 18.858 4.10813Z" />
</svg>
