<?xml version="1.0" encoding="UTF-8"?>
<svg width="24px" height="24px" viewBox="0 0 24 24" version="1.1" xmlns="http://www.w3.org/2000/svg" xmlns:xlink="http://www.w3.org/1999/xlink">
    <!-- Generator: Sketch 62 (91390) - https://sketch.com -->
    <title>iconfinder_github_313481</title>
    <desc>Created with Sketch.</desc>
    <g id="__Forma_V4" stroke="none" stroke-width="1" fill="none" fill-rule="evenodd">
        <g id="Components" transform="translate(-1083.000000, -22.000000)" fill="#536171" fill-rule="nonzero">
            <g id="header" transform="translate(0.000000, -1.000000)">
                <g id="Github" transform="translate(1083.000000, 23.000000)">
                    <g id="iconfinder_github_313481">
                        <path d="M12.0000436,0 C5.37303408,0 0,5.33664589 0,11.9187749 C0,17.1855871 3.43802999,21.6522576 8.20680055,23.2279345 C8.80670241,23.3371038 9.02565743,22.9689607 9.02565743,22.654709 C9.02565743,22.3709555 9.01466606,21.4311465 9.00882144,20.435973 C5.67189459,21.1561438 4.96652794,19.0305482 4.96652794,19.0305482 C4.42018719,17.6541486 3.63421717,17.2875651 3.63421717,17.2875651 C2.54362926,16.5485062 3.71691413,16.5629755 3.71691413,16.5629755 C4.92177737,16.6458922 5.55604907,17.7909568 5.55604907,17.7909568 C6.62683507,19.6125246 8.36565198,19.085826 9.0482508,18.7803253 C9.15729214,18.0121546 9.46784189,17.4854561 9.80997001,17.1886195 C7.14613358,16.8874509 4.34394548,15.8646385 4.34394548,11.2976362 C4.34394548,9.99548907 4.81195093,8.93342774 5.5780318,8.09897574 C5.45573103,7.79633418 5.04259518,6.58368853 5.69666879,4.94328985 C5.69666879,4.94328985 6.70298955,4.62323319 8.99695775,6.16546615 C9.95346842,5.89990749 10.9795911,5.76899098 11.9998692,5.76465886 C13.0193621,5.76907762 14.0462699,5.90138041 15.0042635,6.16693906 C17.2938701,4.62323319 18.3016738,4.94476277 18.3016738,4.94476277 C18.9579282,6.58663437 18.5448796,7.79789374 18.4217937,8.09906238 C19.1908405,8.93342774 19.6551822,9.99557571 19.6551822,11.2977229 C19.6551822,15.8764219 16.8485452,16.8846784 14.1752004,17.180042 C14.607353,17.5495714 14.9896956,18.2741609 14.9896956,19.385695 C14.9896956,20.9788736 14.9735575,22.263519 14.9735575,22.6563552 C14.9735575,22.9735527 15.1918146,23.344555 15.7997419,23.2281078 C20.5649359,21.6494851 24,17.1829012 24,11.9189481 C24,5.33664589 18.6270532,0 12.0000436,0 Z" id="Path"></path>
                    </g>
                </g>
            </g>
        </g>
    </g>
</svg>