<?xml version="1.0" encoding="utf-8"?>
<!-- Generator: Adobe Illustrator 16.0.3, SVG Export Plug-In . SVG Version: 6.00 Build 0)  -->
<!DOCTYPE svg PUBLIC "-//W3C//DTD SVG 1.1//EN" "http://www.w3.org/Graphics/SVG/1.1/DTD/svg11.dtd">
<svg version="1.1" xmlns="http://www.w3.org/2000/svg" xmlns:xlink="http://www.w3.org/1999/xlink" x="0px" y="0px" width="24px"
	 height="24px" viewBox="0 0 24 24" enable-background="new 0 0 24 24" xml:space="preserve">
<g id="Outline_Icons">
	<g>
		<path fill="none" stroke="#000000" stroke-linecap="round" stroke-linejoin="round" stroke-miterlimit="10" d="M9,12.5H7.25
			c-0.414,0-0.75,0.336-0.75,0.75v1.5c0,0.414,0.336,0.75,0.75,0.75H9l3.5,3.5V9L9,12.5z"/>
		<path fill="none" stroke="#000000" stroke-linecap="round" stroke-linejoin="round" stroke-miterlimit="10" d="M16,11
			c0.834,0.688,1.5,1.835,1.5,3c0,1.163-0.669,2.312-1.5,3"/>
		<path fill="none" stroke="#000000" stroke-linecap="round" stroke-linejoin="round" stroke-miterlimit="10" d="M14,12.25
			c0.562,0.409,1,1.001,1,1.75c0,0.749-0.438,1.341-1,1.75"/>
		<g>
			<polygon fill="none" stroke="#000000" stroke-linecap="round" stroke-linejoin="round" stroke-miterlimit="10" points="
				21.5,23.5 2.5,23.5 2.5,0.5 15.5,0.5 21.5,6.5 			"/>
			<polyline fill="none" stroke="#000000" stroke-linecap="round" stroke-linejoin="round" stroke-miterlimit="10" points="
				15.5,0.5 15.5,6.5 21.5,6.5 			"/>
		</g>
	</g>
</g>
</svg>
