<svg viewBox="0 0 24 24" fill="none" xmlns="http://www.w3.org/2000/svg">
  <path d="M7.84091 13.2045C8.11705 13.2045 8.34091 13.4284 8.34091 13.7045V22.5C8.34091 22.7761 8.11705 23 7.84091 23C7.56477 23 7.34091 22.7761 7.34091 22.5V13.7045C7.34091 13.4284 7.56477 13.2045 7.84091 13.2045Z" />
  <path d="M4.55553 19.2146C4.7508 19.0194 5.06738 19.0194 5.26264 19.2146L7.84091 21.7929L10.4192 19.2146C10.6144 19.0194 10.931 19.0194 11.1263 19.2146C11.3215 19.4099 11.3215 19.7265 11.1263 19.9217L8.19446 22.8536C7.9992 23.0488 7.68262 23.0488 7.48735 22.8536L4.55553 19.9217C4.36027 19.7265 4.36027 19.4099 4.55553 19.2146Z" />
  <path d="M4.77888 7.56214C5.24623 4.12685 8.18445 1.47727 11.75 1.47727C14.448 1.47727 16.7838 2.99747 17.9652 5.22439C20.7834 5.29325 23 7.60427 23 10.3906C23 12.6634 21.8246 13.9771 20.6601 14.6999C20.0858 15.0563 19.5155 15.2698 19.0911 15.3945C18.8781 15.4571 18.6993 15.498 18.5718 15.5235C18.5081 15.5363 18.4569 15.5453 18.4205 15.5512C18.4023 15.5542 18.3878 15.5564 18.3772 15.558L18.3643 15.5598L18.3601 15.5604L18.3586 15.5606C18.3583 15.5606 18.3575 15.5607 18.2992 15.1135L18.3575 15.5607C18.0836 15.5964 17.8327 15.4033 17.797 15.1295C17.7614 14.856 17.9539 14.6054 18.2272 14.5692L18.2282 14.5691L18.2326 14.5685L18.2596 14.5643C18.2849 14.5601 18.3241 14.5533 18.3754 14.543C18.478 14.5225 18.6279 14.4883 18.8093 14.435C19.1737 14.328 19.6553 14.1466 20.1327 13.8502C21.0718 13.2673 22 12.2439 22 10.3906C22 8.05514 20.0718 6.13763 17.676 6.22575C17.4762 6.2331 17.2912 6.12071 17.2057 5.94C16.2362 3.89175 14.1599 2.47727 11.75 2.47727C8.53505 2.47727 5.91261 4.98935 5.72485 8.1578C5.71625 8.30295 5.6449 8.43716 5.52938 8.52546C5.41387 8.61376 5.26565 8.64741 5.12333 8.61763C3.25232 8.22616 1.5 9.64991 1.5 11.5585C1.5 12.3564 1.70761 12.9176 1.99247 13.3204C2.2804 13.7276 2.66998 14.0047 3.07902 14.1935C3.48953 14.3829 3.90673 14.4771 4.22603 14.5231C4.3844 14.5458 4.51538 14.5563 4.60492 14.5611C4.64961 14.5634 4.68372 14.5644 4.70548 14.5647L4.72855 14.565L4.7316 14.565C5.00752 14.5611 5.23488 14.7815 5.23899 15.0575C5.2431 15.3336 5.02261 15.5607 4.74649 15.5649L4.73905 15.0649C4.74649 15.5649 4.74676 15.5648 4.74649 15.5649L4.74394 15.5649L4.74 15.5649L4.72809 15.565C4.71837 15.565 4.70514 15.5649 4.68863 15.5646C4.65562 15.564 4.6094 15.5627 4.55185 15.5596C4.43691 15.5535 4.27577 15.5405 4.08361 15.5129C3.70184 15.4579 3.18427 15.3434 2.66003 15.1015C2.1343 14.8589 1.58912 14.482 1.17598 13.8978C0.759775 13.3092 0.5 12.5415 0.5 11.5585C0.5 9.20264 2.50383 7.40159 4.77888 7.56214Z" />
  <path d="M14.6818 9.78409C14.958 9.78409 15.1818 10.0079 15.1818 10.2841V20.0568C15.1818 20.333 14.958 20.5568 14.6818 20.5568C14.4057 20.5568 14.1818 20.333 14.1818 20.0568V10.2841C14.1818 10.0079 14.4057 9.78409 14.6818 9.78409Z" />
  <path d="M14.3283 9.93054C14.5235 9.73528 14.8401 9.73528 15.0354 9.93054L17.9672 12.8624C18.1625 13.0576 18.1625 13.3742 17.9672 13.5695C17.7719 13.7647 17.4553 13.7647 17.2601 13.5695L14.6818 10.9912L12.1036 13.5695C11.9083 13.7647 11.5917 13.7647 11.3964 13.5695C11.2012 13.3742 11.2012 13.0576 11.3964 12.8624L14.3283 9.93054Z" />
</svg>
