<svg viewBox="0 0 24 24" fill="none" xmlns="http://www.w3.org/2000/svg">
<path d="M11.5833 22H11.4167L2.25 17.2381C2.08333 17.1429 2 16.9524 2 16.7619V9.14286C2 8.95239 2.08333 8.85715 2.16667 8.76191C2.25 8.66667 2.5 8.66667 2.58333 8.66667L11.75 13.4286C11.9167 13.5238 12 13.7143 12 13.9048V21.5238C12 21.7143 11.9167 21.8095 11.8333 21.9048C11.75 22 11.6667 22 11.5833 22ZM2.83333 16.4762L11.1667 20.7619V14.1905L2.83333 9.90477V16.4762V16.4762Z" />
<path d="M11.5833 22C11.5 22 11.4167 22 11.3333 21.9048C11.25 21.8095 11.1667 21.7143 11.1667 21.5238V13.9048C11.1667 13.7143 11.25 13.5238 11.4167 13.4286L21.4167 8.66667C21.5833 8.57143 21.6667 8.66667 21.8333 8.66667C21.9167 8.85715 22 8.95239 22 9.14286V16.7619C22 16.9524 21.9167 17.1429 21.75 17.2381L11.75 22H11.5833ZM12 14.1905V20.7619L21.1667 16.381V9.80953L12 14.1905V14.1905ZM12 11.5238C10.3333 11.5238 9.08334 10.6667 9.08334 9.61905C9.08334 8.57143 10.3333 7.71429 12 7.71429C13.6667 7.71429 14.9167 8.57143 14.9167 9.61905C14.9167 10.6667 13.6667 11.5238 12 11.5238ZM12 8.66667C10.75 8.66667 9.91667 9.2381 9.91667 9.61905C9.91667 10 10.75 10.5714 12 10.5714C13.25 10.5714 14.0833 10 14.0833 9.61905C14.0833 9.2381 13.25 8.66667 12 8.66667ZM12 6.28572C10.3333 6.28572 9.08334 5.42858 9.08334 4.38096C9.08334 3.33334 10.3333 2.4762 12 2.4762C13.6667 2.4762 14.9167 3.33334 14.9167 4.38096C14.9167 5.42858 13.6667 6.28572 12 6.28572ZM12 3.42858C10.75 3.42858 9.91667 4.00001 9.91667 4.38096C9.91667 4.76191 10.75 5.33334 12 5.33334C13.25 5.33334 14.0833 4.76191 14.0833 4.38096C14.0833 4.00001 13.25 3.42858 12 3.42858ZM17.8333 9.14286C16.1667 9.14286 14.9167 8.28572 14.9167 7.2381C14.9167 6.19048 16.1667 5.33334 17.8333 5.33334C19.5 5.33334 20.75 6.19048 20.75 7.2381C20.75 8.28572 19.5 9.14286 17.8333 9.14286ZM17.8333 6.28572C16.5833 6.28572 15.75 6.85715 15.75 7.2381C15.75 7.61905 16.5833 8.19048 17.8333 8.19048C19.0833 8.19048 19.9167 7.61905 19.9167 7.2381C19.9167 6.85715 19.0833 6.28572 17.8333 6.28572ZM6.58334 9.14286C4.91667 9.14286 3.66667 8.28572 3.66667 7.2381C3.66667 6.19048 4.91667 5.33334 6.58334 5.33334C8.25001 5.33334 9.50001 6.19048 9.50001 7.2381C9.50001 8.28572 8.25001 9.14286 6.58334 9.14286ZM6.58334 6.28572C5.33334 6.28572 4.50001 6.85715 4.50001 7.2381C4.50001 7.61905 5.33334 8.19048 6.58334 8.19048C7.83334 8.19048 8.66667 7.61905 8.66667 7.2381C8.66667 6.85715 7.83334 6.28572 6.58334 6.28572Z" />
<path d="M2.41667 9.61905C2.25 9.61905 2.08333 9.52381 2 9.33333C1.91667 9.04762 2 8.85714 2.25 8.66666L4.41667 7.61905C4.66667 7.52381 4.83333 7.61905 5 7.90476C5.16667 8.19047 5 8.38095 4.75 8.57143L2.58333 9.61905H2.41667ZM8.33333 6.66666C8.16667 6.66666 8 6.57143 7.91667 6.38095C7.83333 6.19047 7.91667 5.90476 8.16667 5.80952L9.91667 4.85714C10.1667 4.7619 10.3333 4.85714 10.5 5.14286C10.5833 5.42857 10.5 5.61905 10.25 5.80952L8.5 6.66666H8.33333V6.66666ZM15.9167 6.7619H15.75L13.75 5.71428C13.5 5.61905 13.4167 5.33333 13.5 5.04762C13.5833 4.85714 13.8333 4.7619 14.0833 4.85714L16.0833 5.90476C16.3333 6 16.4167 6.28571 16.3333 6.57143C16.25 6.66666 16.0833 6.7619 15.9167 6.7619ZM21.5833 9.61905H21.4167L19.5 8.66666C19.25 8.57143 19.1667 8.28571 19.25 8C19.4167 7.71428 19.5833 7.61905 19.8333 7.71428L21.75 8.66666C22 8.85714 22.0833 9.04762 22 9.33333C21.9167 9.52381 21.75 9.61905 21.5833 9.61905Z" />
</svg>
