<svg viewBox="0 0 24 24" fill="none" xmlns="http://www.w3.org/2000/svg">
<path d="M19.0833 22H14.0833C13.8333 22 13.6667 21.8261 13.6667 21.5652V15.913H10.3333V21.5652C10.3333 21.8261 10.1667 22 9.91667 22H4.91667C4.66667 22 4.5 21.8261 4.5 21.5652V12.8696C4.5 12.6087 4.66667 12.4348 4.91667 12.4348C5.16667 12.4348 5.33333 12.6087 5.33333 12.8696V21.1304H9.5V15.4783C9.5 15.2174 9.66667 15.0435 9.91667 15.0435H14.0833C14.3333 15.0435 14.5 15.2174 14.5 15.4783V21.1304H18.6667V13.3043C18.6667 13.0435 18.8333 12.8696 19.0833 12.8696C19.3333 12.8696 19.5 13.0435 19.5 13.3043V21.5652C19.5 21.8261 19.3333 22 19.0833 22Z" />
<path d="M21.5833 12.8696C21.5 12.8696 21.3333 12.8696 21.25 12.7826L12 3.04347L2.75001 12.7826C2.58334 12.9565 2.33334 12.9565 2.16667 12.7826C2.00001 12.6087 2.00001 12.3478 2.16667 12.1739L11.6667 2.08695C11.8333 1.91303 12.0833 1.91303 12.25 2.08695L21.8333 12.0869C22 12.2609 22 12.5217 21.8333 12.6956C21.8333 12.8696 21.6667 12.8696 21.5833 12.8696V12.8696ZM18.25 6.7826C18 6.7826 17.8333 6.60869 17.8333 6.34782V3.73912H15.3333C15.0833 3.73912 14.9167 3.56521 14.9167 3.30434C14.9167 3.04347 15.0833 2.86956 15.3333 2.86956H18.25C18.5 2.86956 18.6667 3.04347 18.6667 3.30434V6.34782C18.6667 6.60869 18.5 6.7826 18.25 6.7826Z" />
</svg>
