<svg viewBox="0 0 24 24" fill="none" xmlns="http://www.w3.org/2000/svg">
  <path d="M2 5.74999C2 5.51988 2.18655 5.33333 2.41667 5.33333H19.0833C19.3135 5.33333 19.5 5.51988 19.5 5.74999C19.5 5.98011 19.3135 6.16666 19.0833 6.16666H2.41667C2.18655 6.16666 2 5.98011 2 5.74999Z" />
  <path d="M4.91667 3.66667C4.68667 3.66667 4.5 3.85334 4.5 4.08334C4.5 4.31334 4.68667 4.50001 4.91667 4.50001C5.14667 4.50001 5.33333 4.31334 5.33333 4.08334C5.33333 3.85334 5.14667 3.66667 4.91667 3.66667Z" />
  <path d="M6.58332 3.66667C6.35332 3.66667 6.16666 3.85334 6.16666 4.08334C6.16666 4.31334 6.35332 4.50001 6.58332 4.50001C6.81332 4.50001 6.99999 4.31334 6.99999 4.08334C6.99999 3.85334 6.81332 3.66667 6.58332 3.66667Z" />
  <path d="M8.25001 3.66667C8.02001 3.66667 7.83334 3.85334 7.83334 4.08334C7.83334 4.31334 8.02001 4.50001 8.25001 4.50001C8.48001 4.50001 8.66668 4.31334 8.66668 4.08334C8.66668 3.85334 8.48001 3.66667 8.25001 3.66667Z" />
  <path d="M4.08333 2.83333C3.39345 2.83333 2.83333 3.39345 2.83333 4.08333V14.0833C2.83333 14.7732 3.39345 15.3333 4.08333 15.3333H9.91667C10.1468 15.3333 10.3333 15.5199 10.3333 15.75C10.3333 15.9801 10.1468 16.1667 9.91667 16.1667H4.08333C2.93321 16.1667 2 15.2335 2 14.0833V4.08333C2 2.93321 2.93321 2 4.08333 2H17.4167C18.5678 2 19.5 2.93335 19.5 4.08333V9.08333C19.5 9.31345 19.3135 9.5 19.0833 9.5C18.8532 9.5 18.6667 9.31345 18.6667 9.08333V4.08333C18.6667 3.39332 18.1072 2.83333 17.4167 2.83333H4.08333Z" />
  <path d="M12.8333 14.9167C12.8333 14.6865 13.0199 14.5 13.25 14.5H21.5833C21.8134 14.5 22 14.6865 22 14.9167V21.5833C22 21.8135 21.8134 22 21.5833 22H13.25C13.0199 22 12.8333 21.8135 12.8333 21.5833V14.9167ZM13.6667 15.3333V21.1667H21.1667V15.3333H13.6667Z" />
  <path d="M17.4167 17.4167C17.6468 17.4167 17.8333 17.6032 17.8333 17.8333V19.5C17.8333 19.7301 17.6468 19.9167 17.4167 19.9167C17.1865 19.9167 17 19.7301 17 19.5V17.8333C17 17.6032 17.1865 17.4167 17.4167 17.4167Z" />
  <path d="M17.4167 12C16.266 12 15.3333 12.9326 15.3333 14.0833V14.9167C15.3333 15.1468 15.1468 15.3333 14.9167 15.3333C14.6865 15.3333 14.5 15.1468 14.5 14.9167V14.0833C14.5 12.4724 15.8057 11.1667 17.4167 11.1667C19.0267 11.1667 20.3333 12.4723 20.3333 14.0833V14.9167C20.3333 15.1468 20.1468 15.3333 19.9167 15.3333C19.6865 15.3333 19.5 15.1468 19.5 14.9167V14.0833C19.5 12.9327 18.5666 12 17.4167 12Z" />
  <path d="M16.5833 17.4167C16.5833 16.9564 16.9564 16.5833 17.4167 16.5833C17.8769 16.5833 18.25 16.9564 18.25 17.4167C18.25 17.8769 17.8769 18.25 17.4167 18.25C16.9564 18.25 16.5833 17.8769 16.5833 17.4167Z" />
</svg>
