<svg viewBox="0 0 24 24" fill="none" xmlns="http://www.w3.org/2000/svg">
  <path d="M21.5833 22H2.41667C2.16667 22 2 21.8333 2 21.5833C2 21.3333 2.16667 21.1667 2.41667 21.1667H21.5833C21.8333 21.1667 22 21.3333 22 21.5833C22 21.8333 21.8333 22 21.5833 22Z" />
  <path d="M19.9167 22H4.08332C3.83332 22 3.66666 21.8333 3.66666 21.5833V5.74999C3.66666 5.49999 3.83332 5.33333 4.08332 5.33333H19.9167C20.1667 5.33333 20.3333 5.49999 20.3333 5.74999V21.5833C20.3333 21.8333 20.1667 22 19.9167 22ZM4.49999 21.1667H19.5V6.16666H4.49999V21.1667Z" />
  <path d="M21.5833 6.16666H2.41667C2.16667 6.16666 2 5.99999 2 5.74999C2 5.49999 2.16667 5.33333 2.41667 5.33333H21.5833C21.8333 5.33333 22 5.49999 22 5.74999C22 5.99999 21.8333 6.16666 21.5833 6.16666Z" />
  <path d="M19.0833 6.16667H4.91667C4.66667 6.16667 4.5 6 4.5 5.75V4.08334C4.5 3.83334 4.66667 3.66667 4.91667 3.66667H19.0833C19.3333 3.66667 19.5 3.83334 19.5 4.08334V5.75C19.5 6 19.3333 6.16667 19.0833 6.16667ZM5.33333 5.33334H18.6667V4.50001H5.33333V5.33334Z" />
  <path d="M14.0833 4.5H9.91666C9.66666 4.5 9.49999 4.33333 9.49999 4.08333V2.41667C9.49999 2.16667 9.66666 2 9.91666 2H14.0833C14.3333 2 14.5 2.16667 14.5 2.41667V4.08333C14.5 4.33333 14.3333 4.5 14.0833 4.5ZM10.3333 3.66667H13.6667V2.83333H10.3333V3.66667ZM13.25 22H10.75C10.5 22 10.3333 21.8333 10.3333 21.5833V18.25C10.3333 18 10.5 17.8333 10.75 17.8333H13.25C13.5 17.8333 13.6667 18 13.6667 18.25V21.5833C13.6667 21.8333 13.5 22 13.25 22ZM11.1667 21.1667H12.8333V18.6667H11.1667V21.1667ZM9.08332 19.5H6.58332C6.33332 19.5 6.16666 19.3333 6.16666 19.0833C6.16666 18.8333 6.33332 18.6667 6.58332 18.6667H9.08332C9.33332 18.6667 9.49999 18.8333 9.49999 19.0833C9.49999 19.3333 9.33332 19.5 9.08332 19.5ZM17.4167 19.5H14.9167C14.6667 19.5 14.5 19.3333 14.5 19.0833C14.5 18.8333 14.6667 18.6667 14.9167 18.6667H17.4167C17.6667 18.6667 17.8333 18.8333 17.8333 19.0833C17.8333 19.3333 17.6667 19.5 17.4167 19.5ZM10.75 16.1667H6.58332C6.33332 16.1667 6.16666 16 6.16666 15.75C6.16666 15.5 6.33332 15.3333 6.58332 15.3333H10.75C11 15.3333 11.1667 15.5 11.1667 15.75C11.1667 16 11 16.1667 10.75 16.1667ZM17.4167 16.1667H13.25C13 16.1667 12.8333 16 12.8333 15.75C12.8333 15.5 13 15.3333 13.25 15.3333H17.4167C17.6667 15.3333 17.8333 15.5 17.8333 15.75C17.8333 16 17.6667 16.1667 17.4167 16.1667ZM10.75 13.6667H6.58332C6.33332 13.6667 6.16666 13.5 6.16666 13.25C6.16666 13 6.33332 12.8333 6.58332 12.8333H10.75C11 12.8333 11.1667 13 11.1667 13.25C11.1667 13.5 11 13.6667 10.75 13.6667ZM17.4167 13.6667H13.25C13 13.6667 12.8333 13.5 12.8333 13.25C12.8333 13 13 12.8333 13.25 12.8333H17.4167C17.6667 12.8333 17.8333 13 17.8333 13.25C17.8333 13.5 17.6667 13.6667 17.4167 13.6667ZM10.75 11.1667H6.58332C6.33332 11.1667 6.16666 11 6.16666 10.75C6.16666 10.5 6.33332 10.3333 6.58332 10.3333H10.75C11 10.3333 11.1667 10.5 11.1667 10.75C11.1667 11 11 11.1667 10.75 11.1667ZM17.4167 11.1667H13.25C13 11.1667 12.8333 11 12.8333 10.75C12.8333 10.5 13 10.3333 13.25 10.3333H17.4167C17.6667 10.3333 17.8333 10.5 17.8333 10.75C17.8333 11 17.6667 11.1667 17.4167 11.1667ZM10.75 8.66667H6.58332C6.33332 8.66667 6.16666 8.5 6.16666 8.25C6.16666 8 6.33332 7.83333 6.58332 7.83333H10.75C11 7.83333 11.1667 8 11.1667 8.25C11.1667 8.5 11 8.66667 10.75 8.66667ZM17.4167 8.66667H13.25C13 8.66667 12.8333 8.5 12.8333 8.25C12.8333 8 13 7.83333 13.25 7.83333H17.4167C17.6667 7.83333 17.8333 8 17.8333 8.25C17.8333 8.5 17.6667 8.66667 17.4167 8.66667Z" />
</svg>
