<svg viewBox="0 0 24 24" fill="none" xmlns="http://www.w3.org/2000/svg">
  <path d="M5.5 19C4.94772 19 4.5 19.4477 4.5 20C4.5 20.5523 4.94772 21 5.5 21C6.05228 21 6.5 20.5523 6.5 20C6.5 19.4477 6.05228 19 5.5 19ZM3.5 20C3.5 18.8954 4.39543 18 5.5 18C6.60457 18 7.5 18.8954 7.5 20C7.5 21.1046 6.60457 22 5.5 22C4.39543 22 3.5 21.1046 3.5 20Z" />
  <path d="M16.5 19C15.9477 19 15.5 19.4477 15.5 20C15.5 20.5523 15.9477 21 16.5 21C17.0523 21 17.5 20.5523 17.5 20C17.5 19.4477 17.0523 19 16.5 19ZM14.5 20C14.5 18.8954 15.3954 18 16.5 18C17.6046 18 18.5 18.8954 18.5 20C18.5 21.1046 17.6046 22 16.5 22C15.3954 22 14.5 21.1046 14.5 20Z" />
  <path d="M20.0133 1.38548C20.0664 1.15962 20.268 1 20.5 1H23.5C23.7761 1 24 1.22386 24 1.5C24 1.77614 23.7761 2 23.5 2H20.896L16.9867 18.6145C16.9336 18.8404 16.732 19 16.5 19H5.5C5.22386 19 5 18.7761 5 18.5C5 18.2239 5.22386 18 5.5 18H16.104L20.0133 1.38548Z" />
  <path d="M0.594379 7.20764C0.688354 7.07726 0.839278 7 1 7H19.1C19.3761 7 19.6 7.22386 19.6 7.5C19.6 7.77614 19.3761 8 19.1 8H1.69371L4.36038 16H17C17.2761 16 17.5 16.2239 17.5 16.5C17.5 16.7761 17.2761 17 17 17H4C3.78478 17 3.59372 16.8623 3.52566 16.6581L0.525658 7.65811C0.474834 7.50564 0.500403 7.33803 0.594379 7.20764Z" />
  <path d="M14.6464 3.14645C14.84 2.95289 15.1532 2.95095 15.3492 3.14211L19.4492 7.14211C19.6468 7.33495 19.6507 7.6515 19.4579 7.84916C19.2651 8.04682 18.9485 8.05073 18.7508 7.85789L15.0043 4.20277L11.3536 7.85355C11.1583 8.04882 10.8417 8.04882 10.6464 7.85355C10.4512 7.65829 10.4512 7.34171 10.6464 7.14645L12.7929 5H10V7.5C10 7.77614 9.77614 8 9.5 8C9.22386 8 9 7.77614 9 7.5V4.5C9 4.22385 9.22386 4 9.5 4H13.7929L14.6464 3.14645Z" />
  <path d="M3.17199 0.330513C3.29866 0.376918 3.40121 0.472542 3.45634 0.595671L6.45634 7.29567C6.56919 7.5477 6.45636 7.8435 6.20433 7.95635C5.9523 8.06919 5.65651 7.95637 5.54366 7.70434L2.75348 1.47295L1.15781 2.23887L3.45518 7.2931C3.56945 7.54449 3.45829 7.84092 3.2069 7.95519C2.95551 8.06945 2.65909 7.95829 2.54482 7.7069L0.0448173 2.2069C-0.0677667 1.95922 0.0383562 1.66698 0.283635 1.54924L2.78363 0.349242C2.90526 0.290863 3.04531 0.284109 3.17199 0.330513Z" />
</svg>