<svg viewBox="0 0 24 24" fill="none" xmlns="http://www.w3.org/2000/svg">
<path d="M9.69565 1.5C9.69565 1.22386 9.91951 1 10.1957 1H12.8043C13.0805 1 13.3043 1.22386 13.3043 1.5V3.93288C13.6043 4.00917 13.9379 4.09989 14.2665 4.20417C14.6003 4.31006 14.9455 4.43495 15.2518 4.58036L16.9874 2.8455C17.1827 2.65031 17.4992 2.65034 17.6944 2.84558L20.1544 5.30558C20.2482 5.39936 20.3009 5.52656 20.3009 5.65918C20.3009 5.79181 20.2481 5.919 20.1543 6.01276L18.4196 7.74673C18.5651 8.05321 18.6902 8.39876 18.7962 8.73282C18.9007 9.06176 18.9916 9.39556 19.068 9.69565H21.5C21.7761 9.69565 22 9.91951 22 10.1957V12.8043C22 13.0805 21.7761 13.3043 21.5 13.3043H19.0685C18.9919 13.6044 18.9008 13.9383 18.7963 14.2672C18.6902 14.601 18.5651 14.9464 18.4197 15.2527L20.1545 16.9883C20.3497 17.1835 20.3497 17.5001 20.1544 17.6953L17.6953 20.1544C17.5001 20.3496 17.1836 20.3497 16.9883 20.1546L15.252 18.4197C14.9459 18.5652 14.6008 18.6902 14.2671 18.7963C13.9383 18.9008 13.6044 18.9919 13.3043 19.0685V21.5C13.3043 21.7761 13.0805 22 12.8043 22H10.1957C9.91951 22 9.69565 21.7761 9.69565 21.5V19.0685C9.39564 18.992 9.06174 18.9011 8.73271 18.7965C8.39871 18.6904 8.05301 18.5651 7.74632 18.4192L6.01189 20.1543C5.91814 20.2481 5.79097 20.3008 5.65836 20.3009C5.52575 20.3009 5.39856 20.2482 5.30477 20.1545L2.84477 17.6954C2.75097 17.6016 2.69827 17.4744 2.69826 17.3418C2.69825 17.2092 2.75093 17.082 2.84471 16.9882L4.58031 15.2526C4.43485 14.9463 4.3098 14.601 4.20371 14.2672C4.09916 13.9383 4.00812 13.6044 3.93152 13.3043H1.5C1.22386 13.3043 1 13.0805 1 12.8043V10.1957C1 9.91951 1.22386 9.69565 1.5 9.69565H3.93152C4.00812 9.39559 4.09916 9.06173 4.20371 8.73279C4.30979 8.39902 4.43483 8.05372 4.58027 7.74749L2.84478 6.01276C2.75098 5.919 2.69828 5.79181 2.69826 5.65918C2.69825 5.52656 2.75093 5.39936 2.84471 5.30558L5.30471 2.84558C5.49994 2.65034 5.81646 2.65031 6.01174 2.8455L7.74737 4.58038C8.05374 4.43494 8.3992 4.31004 8.7331 4.20415C9.06192 4.09988 9.39566 4.00915 9.69565 3.93286V1.5ZM10.6957 2V4.32435C10.6957 4.55535 10.5374 4.75629 10.3128 4.81042C9.9388 4.90059 9.47846 5.01686 9.03538 5.15737C8.58499 5.3002 8.18517 5.45811 7.91628 5.62235C7.71926 5.74269 7.46546 5.7125 7.30218 5.54928L5.65834 3.90616L3.90544 5.65905L5.54913 7.30202C5.71247 7.46529 5.74274 7.71919 5.62235 7.91628C5.45803 8.1853 5.29989 8.58524 5.15673 9.03569C5.01588 9.47885 4.89917 9.93923 4.80856 10.3134C4.75422 10.5377 4.55341 10.6957 4.32261 10.6957H2V12.3043H4.32261C4.55341 12.3043 4.75422 12.4623 4.80856 12.6866C4.89917 13.0608 5.01588 13.5212 5.15673 13.9643C5.29989 14.4148 5.45803 14.8147 5.62235 15.0837C5.74271 15.2808 5.71248 15.5346 5.54921 15.6979L3.90543 17.3417L5.65812 19.0937L7.30115 17.45C7.4646 17.2865 7.71885 17.2563 7.916 17.3771C8.18519 17.5421 8.58508 17.7003 9.03555 17.8435C9.47874 17.9843 9.93904 18.1008 10.3134 18.1914C10.5377 18.2458 10.6957 18.4466 10.6957 18.6774V21H12.3043V18.6774C12.3043 18.4466 12.4623 18.2458 12.6866 18.1914C13.0608 18.1008 13.5211 17.9841 13.9642 17.8433C14.4145 17.7001 14.8141 17.542 15.0826 17.3778C15.2796 17.2573 15.5335 17.2874 15.6969 17.4506L17.3416 19.0939L19.0938 17.3417L17.4507 15.6978C17.2875 15.5345 17.2573 15.2807 17.3776 15.0837C17.542 14.8147 17.7001 14.4148 17.8433 13.9643C17.9841 13.5212 18.1008 13.0608 18.1914 12.6866C18.2458 12.4623 18.4466 12.3043 18.6774 12.3043H21V10.6957H18.6765C18.4455 10.6957 18.2446 10.5374 18.1904 10.3128C18.1003 9.93898 17.9838 9.47864 17.8431 9.03544C17.7001 8.58499 17.5419 8.18471 17.3775 7.91516C17.2573 7.71809 17.2876 7.46434 17.4509 7.30115L19.0937 5.65905L17.3408 3.90616L15.697 5.54928C15.5337 5.7125 15.2799 5.74269 15.0828 5.62235C14.8139 5.45808 14.4143 5.30016 13.9641 5.15735C13.5213 5.01685 13.0612 4.90058 12.6872 4.81042C12.4626 4.75629 12.3043 4.55535 12.3043 4.32435V2H10.6957Z" />
<path d="M11.5 8.08696C9.61503 8.08696 8.08696 9.61503 8.08696 11.5C8.08696 13.385 9.61503 14.913 11.5 14.913C13.385 14.913 14.913 13.385 14.913 11.5C14.913 9.61503 13.385 8.08696 11.5 8.08696ZM7.08696 11.5C7.08696 9.06275 9.06275 7.08696 11.5 7.08696C13.9373 7.08696 15.913 9.06275 15.913 11.5C15.913 13.9373 13.9373 15.913 11.5 15.913C9.06275 15.913 7.08696 13.9373 7.08696 11.5Z" />
</svg>
