<svg viewBox="0 0 24 24" fill="none" xmlns="http://www.w3.org/2000/svg">
  <path d="M17.8333 19.5833C17.4191 19.5833 17.0833 19.9191 17.0833 20.3333C17.0833 20.7032 17.3726 21 17.8333 21C18.2941 21 18.5833 20.7032 18.5833 20.3333C18.5833 19.9191 18.2475 19.5833 17.8333 19.5833ZM16.0833 20.3333C16.0833 19.3668 16.8668 18.5833 17.8333 18.5833C18.7998 18.5833 19.5833 19.3668 19.5833 20.3333C19.5833 21.3442 18.7533 22 17.8333 22C16.9134 22 16.0833 21.3442 16.0833 20.3333Z" />
  <path d="M8.66666 19.5833C8.25244 19.5833 7.91666 19.9191 7.91666 20.3333C7.91666 20.7032 8.2059 21 8.66666 21C9.12741 21 9.41666 20.7032 9.41666 20.3333C9.41666 19.9191 9.08087 19.5833 8.66666 19.5833ZM6.91666 20.3333C6.91666 19.3668 7.70016 18.5833 8.66666 18.5833C9.63315 18.5833 10.4167 19.3668 10.4167 20.3333C10.4167 21.3442 9.58661 22 8.66666 22C7.7467 22 6.91666 21.3442 6.91666 20.3333Z" />
  <path d="M2 2.5C2 2.22386 2.22386 2 2.5 2H5C5.23455 2 5.43757 2.16304 5.48821 2.39205L9.06818 18.5833H17.8333C18.1095 18.5833 18.3333 18.8072 18.3333 19.0833C18.3333 19.3595 18.1095 19.5833 17.8333 19.5833H8.66666C8.43211 19.5833 8.22908 19.4203 8.17845 19.1913L4.59848 3H2.5C2.22386 3 2 2.77614 2 2.5Z" />
  <path d="M6 8.5C6 8.22386 6.22386 8 6.5 8H21.5C21.6557 8 21.8025 8.07253 21.8971 8.19619C21.9917 8.31985 22.0233 8.48052 21.9826 8.6308L19.5659 17.5475C19.5068 17.7654 19.3091 17.9167 19.0833 17.9167H8.27415C7.998 17.9167 7.77415 17.6928 7.77415 17.4167C7.77415 17.1405 7.998 16.9167 8.27415 16.9167H18.7008L20.8464 9H6.5C6.22386 9 6 8.77614 6 8.5Z" />
</svg>
