<svg viewBox="0 0 24 24" fill="none" xmlns="http://www.w3.org/2000/svg">
  <path d="M2 12C2 9.2391 4.23817 7 7 7C9.17756 7 11.0245 8.39246 11.7104 10.3333H17.8333C17.9438 10.3333 18.0498 10.3772 18.128 10.4554L19.378 11.7054C19.5407 11.8681 19.5407 12.1319 19.378 12.2946L18.128 13.5446C18.0498 13.6228 17.9438 13.6667 17.8333 13.6667H16.7559L16.0446 14.378C15.8819 14.5407 15.6181 14.5407 15.4554 14.378L14.7441 13.6667H14.2559L13.5446 14.378C13.3819 14.5407 13.1181 14.5407 12.9554 14.378L12.2441 13.6667H11.7104C11.0245 15.6068 9.17761 17 7 17C4.23817 17 2 14.7609 2 12ZM7 7.83333C4.6985 7.83333 2.83333 9.69924 2.83333 12C2.83333 14.3008 4.6985 16.1667 7 16.1667C8.90553 16.1667 10.51 14.8851 11.0049 13.1365C11.0557 12.9572 11.2194 12.8333 11.4058 12.8333H12.4167C12.5272 12.8333 12.6332 12.8772 12.7113 12.9554L13.25 13.4941L13.7887 12.9554C13.8668 12.8772 13.9728 12.8333 14.0833 12.8333H14.9167C15.0272 12.8333 15.1332 12.8772 15.2113 12.9554L15.75 13.4941L16.2887 12.9554C16.3668 12.8772 16.4728 12.8333 16.5833 12.8333H17.6607L18.4941 12L17.6607 11.1667H11.4058C11.2194 11.1667 11.0557 11.0428 11.0049 10.8634C10.51 9.11419 8.90561 7.83333 7 7.83333Z" />
  <path d="M5.33332 11.1667C4.87309 11.1667 4.49999 11.5398 4.49999 12C4.49999 12.4602 4.87309 12.8333 5.33332 12.8333C5.79356 12.8333 6.16666 12.4602 6.16666 12C6.16666 11.5398 5.79356 11.1667 5.33332 11.1667ZM3.66666 12C3.66666 11.0795 4.41285 10.3333 5.33332 10.3333C6.2538 10.3333 6.99999 11.0795 6.99999 12C6.99999 12.9205 6.2538 13.6667 5.33332 13.6667C4.41285 13.6667 3.66666 12.9205 3.66666 12Z" />
  <path d="M9 2.45455C9 2.20351 9.20787 2 9.46429 2H21.5357C21.7921 2 22 2.20351 22 2.45455V21.5455C22 21.7965 21.7921 22 21.5357 22H9.46429C9.20787 22 9 21.7965 9 21.5455V18.8373C9 18.5862 9.20787 18.3827 9.46429 18.3827C9.7207 18.3827 9.92857 18.5862 9.92857 18.8373V21.0909H21.0714V2.90909H9.92857V5.63636C9.92857 5.8874 9.7207 6.09091 9.46429 6.09091C9.20787 6.09091 9 5.8874 9 5.63636V2.45455Z" />
</svg>
