<svg viewBox="0 0 24 24" fill="none" xmlns="http://www.w3.org/2000/svg">
  <path d="M0 6.5C0 6.22386 0.223858 6 0.5 6H7.5C7.77614 6 8 6.22386 8 6.5C8 6.77614 7.77614 7 7.5 7H1V22H23V7H16.5C16.2239 7 16 6.77614 16 6.5C16 6.22386 16.2239 6 16.5 6H23.5C23.7761 6 24 6.22386 24 6.5V22.5C24 22.7761 23.7761 23 23.5 23H0.5C0.223858 23 0 22.7761 0 22.5V6.5Z" />
  <path d="M0 10.5C0 10.2239 0.223858 10 0.5 10H23.5C23.7761 10 24 10.2239 24 10.5C24 10.7761 23.7761 11 23.5 11H0.5C0.223858 11 0 10.7761 0 10.5Z" />
  <path d="M12 14.5C12 14.2239 12.2239 14 12.5 14H16.5C16.7761 14 17 14.2239 17 14.5C17 14.7761 16.7761 15 16.5 15H12.5C12.2239 15 12 14.7761 12 14.5Z" />
  <path d="M12 16.5C12 16.2239 12.2239 16 12.5 16H18.5C18.7761 16 19 16.2239 19 16.5C19 16.7761 18.7761 17 18.5 17H12.5C12.2239 17 12 16.7761 12 16.5Z" />
  <path d="M12 18.5C12 18.2239 12.2239 18 12.5 18H17.5C17.7761 18 18 18.2239 18 18.5C18 18.7761 17.7761 19 17.5 19H12.5C12.2239 19 12 18.7761 12 18.5Z" />
  <path d="M9 4C9 2.34286 10.3429 1 12 1C13.6571 1 15 2.34286 15 4V8.5C15 8.77614 14.7761 9 14.5 9H9.5C9.22386 9 9 8.77614 9 8.5V4ZM12 2C10.8951 2 10 2.89514 10 4V8H14V4C14 2.89514 13.1049 2 12 2Z" />
  <path d="M7 14C6.44772 14 6 14.4477 6 15C6 15.5523 6.44772 16 7 16C7.55228 16 8 15.5523 8 15C8 14.4477 7.55228 14 7 14ZM5 15C5 13.8954 5.89543 13 7 13C8.10457 13 9 13.8954 9 15C9 16.1046 8.10457 17 7 17C5.89543 17 5 16.1046 5 15Z" />
  <path d="M5.0391 19H8.9609C8.76937 17.8016 7.90286 17 7 17C6.09714 17 5.23063 17.8016 5.0391 19ZM4 19.5C4 17.6561 5.26135 16 7 16C8.73865 16 10 17.6561 10 19.5C10 19.7761 9.77614 20 9.5 20H4.5C4.22386 20 4 19.7761 4 19.5Z" />
</svg>
