<svg viewBox="0 0 24 24" fill="none" xmlns="http://www.w3.org/2000/svg">
  <path d="M17.4167 22H2.41667C2.16667 22 2 21.8095 2 21.5238C2 21.4286 2 18.2857 2.41667 16.8571C2.75 15.7143 4.66667 14.8571 6.83333 14C7.16667 13.9048 7.5 13.7143 7.83333 13.619V11.9048C7.16667 11.4286 6.16667 10.4762 6.16667 8.66667V6.7619C6.16667 6.7619 6.16667 6.66667 6.08333 6.57143C5.91667 5.80952 5.66667 4.47619 6.25 3.71429C6.5 3.42857 6.83333 3.33333 7.25 3.33333C7.75 2.38095 9.16667 2 10.25 2C11.5 2 13.1667 2.47619 13.4167 3.71429C13.6667 4.7619 13.25 5.80952 13 6.47619C13.3333 6.7619 13.5 7.14286 13.5 7.71429C13.5 8.38095 13.25 8.85714 12.8333 9.04762C12.75 10.6667 12.25 11.4286 12 11.7143V13.5238C12.4167 13.7143 12.75 13.8095 13.0833 14C15.3333 14.9524 17.0833 15.619 17.4167 16.8571C17.8333 18.2857 17.8333 21.4286 17.8333 21.5238C17.8333 21.8095 17.6667 22 17.4167 22ZM2.83333 21.0476H17C17 20.0952 16.9167 18.0952 16.6667 17.1429C16.4167 16.381 14.6667 15.619 12.8333 14.9524C12.4167 14.7619 11.9167 14.5714 11.4167 14.381C11.25 14.2857 11.1667 14.0952 11.1667 13.9048V11.5238C11.1667 11.3333 11.25 11.2381 11.3333 11.1429C11.3333 11.0476 12 10.5714 12 8.66667C12 8.38095 12.1667 8.19048 12.4167 8.19048C12.5833 8.19048 12.5833 7.90476 12.5833 7.71429C12.5833 7.52381 12.5 7.2381 12.4167 7.2381C12.1667 7.2381 12 6.95238 12 6.7619C12 6.57143 12.0833 6.47619 12.1667 6.19048C12.4167 5.71429 12.75 4.7619 12.5833 4C12.5 3.42857 11.4167 3.04762 10.25 3.04762C9.08333 3.04762 8 3.52381 7.91667 4C7.83333 4.19048 7.66667 4.38095 7.41667 4.38095C7.25 4.28571 7 4.28571 6.83333 4.38095C6.58333 4.66667 6.83333 5.90476 6.91667 6.28571C7 6.47619 7 6.57143 7 6.7619V8.66667C7 10.5714 8.33333 11.0476 8.41667 11.0476C8.58333 11.1429 8.66667 11.2381 8.66667 11.5238V13.9048C8.66667 14.0952 8.58333 14.2857 8.41667 14.381C8 14.5714 7.58333 14.7619 7.08333 14.9524C5.41667 15.619 3.41667 16.4762 3.16667 17.2381C2.91667 18.0952 2.83333 20.0952 2.83333 21.0476Z" />
  <path d="M21.5833 22H19.5C19.25 22 19.0833 21.8095 19.0833 21.5238C19.0833 21.2381 19.25 21.0476 19.5 21.0476H21.1667C21.1667 20.0952 21.0833 18.0952 20.8333 17.1428C20.5833 16.3809 18.8333 15.2381 15.6667 13.9048C15.4167 13.8095 15.3333 13.619 15.3333 13.4286V12C15.3333 11.8095 15.4167 11.7143 15.5 11.619C15.5 11.619 16.1667 11.0476 16.1667 9.14285C16.1667 8.85714 16.3333 8.66666 16.5833 8.66666C16.5833 8.66666 16.6667 8.66666 16.6667 8.57142C16.75 8.47618 16.75 8.28571 16.75 8.19047C16.75 7.99999 16.6667 7.71428 16.5833 7.71428C16.3333 7.71428 16.1667 7.42856 16.1667 7.23809C16.1667 7.04761 16.25 6.95237 16.3333 6.66666C16.5833 6.09523 17 5.14285 16.8333 4.38095C16.75 4.09523 16.3333 3.61904 15.75 3.33333C15.4167 3.14285 14.9167 3.04761 14.4167 3.42856C14.25 3.61904 14 3.5238 13.8333 3.33333C13.6667 3.14285 13.75 2.85714 13.9167 2.66666C14.5833 2.09523 15.3333 1.99999 16.0833 2.38095C16.8333 2.7619 17.5 3.42856 17.6667 4.09523C17.9167 5.14285 17.4167 6.28571 17.1667 6.95237C17.5 7.23809 17.6667 7.61904 17.6667 8.19047C17.6667 8.57142 17.5833 8.85714 17.4167 9.14285C17.3333 9.33333 17.1667 9.42856 17 9.5238C16.9167 11.1428 16.4167 11.9048 16.1667 12.1905V13.0476C19.6667 14.5714 21.25 15.7143 21.5833 16.7619C22 18.1905 22 21.3333 22 21.4286C22 21.8095 21.8333 22 21.5833 22Z" />
</svg>
