<svg height="46" viewBox="0 0 48 46" width="48" xmlns="http://www.w3.org/2000/svg"><g fill="none" fill-rule="evenodd" opacity=".12"><g stroke="#000" stroke-linejoin="round" stroke-width="2"><g stroke-linecap="round"><path d="m21 41c0 2.208-1.792 4-4 4h-12c-2.208 0-4-1.792-4-4v-12c0-2.208 1.792-4 4-4h12c2.208 0 4 1.792 4 4z"/><path d="m47 41c0 2.208-1.792 4-4 4h-12c-2.208 0-4-1.792-4-4v-12c0-2.208 1.792-4 4-4h12c2.208 0 4 1.792 4 4z"/><path d="m33 17c0 2.208-1.792 4-4 4h-12c-2.208 0-4-1.792-4-4v-12c0-2.208 1.792-4 4-4h12c2.208 0 4 1.792 4 4z"/></g><g transform="translate(6 28)"><path d="m1 1h5c1.656 0 3 1.344 3 3s-1.344 3-3 3h-5z"/><path d="m1 7h5c1.656 0 3 1.344 3 3s-1.344 3-3 3h-5z"/></g><g stroke-linecap="round" transform="translate(18 4)"><path d="m0 12.968 5.156-11.936 4.844 11.936"/><path d="m1.728 9h6.648"/></g><path d="m42.122 39.242c-1.086 1.086-2.586 1.758-4.242 1.758-3.314 0-6-2.686-6-6s2.686-6 6-6c1.578 0 3.016.612 4.086 1.608" stroke-linecap="round"/></g><path d="m0-2h48v48h-48z"/></g></svg>