<svg width="120" height="25" viewBox="0 0 120 25" fill="none" xmlns="http://www.w3.org/2000/svg">
<g clip-path="url(#clip0_129_16116)">
<path d="M7.38 17.3145C6.105 16.0253 5.385 14.2713 5.4 12.4574C5.4 10.6435 6.12 8.88961 7.425 7.61538C8.535 6.62598 8.64 4.91702 7.65 3.80769C6.66 2.69836 4.95 2.59343 3.84 3.58283C3.765 3.65778 3.69 3.71774 3.63 3.7927C-1.17 8.55981 -1.18501 16.3101 3.57 21.1072C4.56 22.2165 6.27 22.3065 7.38 21.3171C8.49 20.3277 8.58 18.6187 7.59 17.5094C7.515 17.4494 7.455 17.3745 7.38 17.3145Z" fill="#FFDA00"/>
<path d="M7.425 7.61538C10.11 4.947 14.46 4.96199 17.13 7.64537C18.12 8.76968 19.83 8.87462 20.94 7.88522C22.05 6.89582 22.17 5.18686 21.18 4.07753C21.105 4.00257 21.03 3.91263 20.955 3.85266C16.2 -0.944431 8.475 -0.989404 3.675 3.74773C3.66 3.76272 3.645 3.77771 3.63 3.7927C2.505 4.7821 2.4 6.47607 3.39 7.60039C4.38 8.72471 6.075 8.82965 7.2 7.84025C7.275 7.76529 7.35 7.69034 7.425 7.61538Z" fill="#67B3FF"/>
<path d="M17.1 17.3445C15.81 18.6337 14.055 19.3383 12.24 19.3383C10.425 19.3383 8.67 18.6187 7.395 17.3145C6.405 16.2052 4.695 16.1002 3.585 17.0896C2.475 18.079 2.37 19.788 3.36 20.8973C3.435 20.9723 3.495 21.0472 3.57 21.1072C8.325 25.9043 16.065 25.9493 20.865 21.1971C20.88 21.1822 20.88 21.1822 20.895 21.1672C21.96 20.1178 21.96 18.4088 20.91 17.3445C19.875 16.3101 18.165 16.2951 17.1 17.3445Z" fill="#EB5A68"/>
<path d="M7.32001 7.78029C6.27001 8.82965 4.56001 8.82965 3.49501 7.78029C2.43001 6.73092 2.44501 5.02196 3.49501 3.9576C4.54501 2.89325 6.25501 2.90824 7.32001 3.9576L7.33501 3.97259C8.38501 5.03695 8.37001 6.73092 7.32001 7.78029Z" fill="#47A1FF"/>
<path d="M7.32001 21.0173C6.27001 22.0666 4.56001 22.0666 3.49501 21.0173C2.43001 19.9679 2.44501 18.2589 3.49501 17.1946C4.54501 16.1452 6.25501 16.1452 7.32001 17.1946L7.33501 17.2096C8.38501 18.2739 8.37001 19.9679 7.32001 21.0173Z" fill="#D5465F"/>
<path fill-rule="evenodd" clip-rule="evenodd" d="M32.955 15.1108C33.735 14.5262 33.84 14.856 34.5 15.5156C34.83 15.8454 35.73 16.415 35.145 16.8947C33.915 17.8991 32.805 18.3489 31.245 18.3489C27.705 18.3339 25.2 15.6805 25.395 12.1726C25.485 10.5986 26.1 9.11446 27.33 8.09508C28.455 7.15065 29.85 6.73091 31.32 6.76089C32.04 6.76089 32.76 6.89581 33.42 7.18064C33.87 7.34554 34.29 7.5704 34.68 7.85523C35.46 8.45486 35.1 8.79965 34.485 9.41428C34.35 9.5492 34.215 9.68412 34.095 9.83403C33.78 10.1488 33.57 10.3737 33.165 10.0739C32.37 9.51922 31.365 9.2194 30.42 9.47425C27.36 10.2538 27.495 15.6955 31.245 15.7105C31.86 15.6805 32.46 15.4856 32.955 15.1108ZM118.02 18.4088C117.51 18.4088 117.09 18.0041 117.09 17.4794C117.09 17.4794 117.09 17.4794 117.09 17.4644L117.135 5.41171C117.135 4.90202 117.54 4.48227 118.065 4.48227C118.065 4.48227 118.065 4.48227 118.08 4.48227H119.085C119.595 4.48227 120.015 4.90202 120.015 5.41171C120.015 5.41171 120.015 5.41171 120.015 5.4267L119.97 17.4794C119.97 17.9891 119.565 18.4088 119.04 18.4088C119.04 18.4088 119.04 18.4088 119.025 18.4088H118.02ZM112.77 16.9997C111.675 18.0191 110.64 18.5587 109.11 18.5587C106.005 18.5437 104.505 15.9653 104.505 13.0871L104.52 8.18503C104.52 7.67534 104.94 7.25559 105.45 7.25559C105.45 7.25559 105.45 7.25559 105.465 7.25559H106.47C106.98 7.25559 107.4 7.66034 107.4 8.18503C107.4 8.18503 107.4 8.18503 107.4 8.20002L107.385 13.102C107.385 14.7061 108.255 15.9653 109.95 15.9653C111.645 15.9653 112.68 14.5562 112.695 12.9671V11.1982C112.68 11.1232 112.68 11.0633 112.68 10.9883L112.695 8.20002C112.695 7.69033 113.1 7.27058 113.625 7.27058C113.625 7.27058 113.625 7.27058 113.64 7.27058H114.63C115.14 7.27058 115.56 7.67534 115.56 8.20002C115.56 8.20002 115.56 8.20002 115.56 8.21501L115.53 17.4794C115.53 17.9891 115.11 18.3938 114.6 18.3938H113.745C113.25 18.3788 112.845 17.9741 112.83 17.4794L112.77 16.9997ZM100.83 7.27058H102.765C103.275 7.27058 103.695 7.70532 103.68 8.21501C103.68 8.21501 103.68 8.21501 103.68 8.23V8.87461C103.68 9.3843 103.26 9.80405 102.75 9.80405H100.815L100.785 17.4194C100.785 17.9291 100.38 18.3489 99.855 18.3489C99.855 18.3489 99.855 18.3489 99.84 18.3489H98.835C98.325 18.3489 97.905 17.9291 97.905 17.4194L97.935 6.88082C97.935 4.58721 99.255 2.77331 101.595 2.56344C101.67 2.56344 101.715 2.54844 101.79 2.54844C101.925 2.53345 102.06 2.53345 102.21 2.54844H103.11C103.62 2.54844 104.04 2.98318 104.025 3.49287V4.07752C104.025 4.58721 103.605 5.00695 103.095 5.00695H102.375C101.265 5.00695 100.8 5.84644 100.785 6.89581L100.83 7.27058ZM93.87 7.2406H96C96.51 7.2406 96.915 7.66034 96.915 8.17004V8.81464C96.915 9.32434 96.495 9.72909 95.985 9.72909H93.855L93.84 14.3913C93.84 15.2907 94.275 15.8004 95.175 15.8004H95.61C96.12 15.8004 96.525 16.2202 96.525 16.7298V17.3745C96.525 17.8841 96.105 18.2889 95.595 18.2889H94.785C94.635 18.2889 94.485 18.2889 94.335 18.2739C92.04 18.124 91.02 16.6399 91.02 14.3913C91.035 11.3631 91.035 8.36492 91.05 5.33675C91.05 4.82706 91.47 4.42231 91.98 4.42231H92.97C93.48 4.42231 93.885 4.84205 93.885 5.35174V7.2406H93.87ZM63.12 7.12067H65.25C65.76 7.12067 66.165 7.54042 66.165 8.05011V8.69472C66.165 9.20441 65.745 9.60916 65.235 9.60916H63.105V14.2713C63.105 15.1708 63.54 15.6805 64.44 15.6805H64.875C65.385 15.6805 65.79 16.1002 65.79 16.6099V17.2545C65.79 17.7642 65.37 18.169 64.86 18.169H64.215C61.71 18.154 60.255 17.0746 60.255 14.2713C60.27 11.2432 60.27 8.24499 60.285 5.21683C60.285 4.70714 60.705 4.30238 61.215 4.30238H62.205C62.715 4.30238 63.12 4.72213 63.12 5.23182V7.12067ZM50.64 8.43987C51.66 7.49544 52.77 6.88082 54.195 6.88082C57.315 6.89581 58.92 9.42927 58.905 12.3525L58.89 17.2545C58.89 17.7642 58.47 18.184 57.96 18.184H56.955C56.445 18.184 56.025 17.7642 56.025 17.2545L56.04 12.3825C56.04 10.7785 55.17 9.51922 53.475 9.51922C51.78 9.51922 50.745 10.9134 50.73 12.5024L50.715 17.2545C50.715 17.7642 50.295 18.169 49.785 18.169H48.795C48.285 18.169 47.88 17.7492 47.88 17.2395C47.895 14.2863 47.895 11.3181 47.91 8.36492V7.97515C47.91 7.46546 48.33 7.04572 48.84 7.04572H49.68C50.175 7.06071 50.58 7.46546 50.595 7.96016L50.64 8.43987ZM81.45 8.5598C82.47 7.61537 83.58 7.00074 85.005 7.00074C88.125 7.01574 89.73 9.56419 89.7 12.4724V17.3894C89.7 17.8991 89.295 18.3189 88.77 18.3189C88.77 18.3189 88.77 18.3189 88.755 18.3189H87.75C87.24 18.3189 86.82 17.8991 86.82 17.3894L86.835 12.5174C86.835 10.9134 85.965 9.65414 84.27 9.65414C82.575 9.65414 81.54 11.0483 81.525 12.6373L81.495 17.3894C81.495 17.8991 81.075 18.3039 80.565 18.3039H79.575C79.065 18.3039 78.66 17.8841 78.66 17.3745L78.69 8.09508C78.69 7.58539 79.11 7.16564 79.62 7.16564H80.475C80.97 7.18064 81.375 7.58539 81.39 8.09508L81.45 8.5598ZM41.235 6.79087C37.86 6.77588 35.475 9.20441 35.46 12.5624C35.445 15.9503 37.8 18.3489 41.205 18.3639C44.61 18.3788 46.995 15.9953 47.01 12.5924C47.025 9.26437 44.58 6.80586 41.235 6.79087ZM69.225 13.7167C69.465 15.2757 70.95 15.9053 72.405 15.9353C73.14 15.9353 73.845 15.7704 74.52 15.4706C74.625 15.4256 74.73 15.3807 74.835 15.3207C75.18 15.1258 75.495 15.0059 75.81 15.3207C75.975 15.5006 76.14 15.6655 76.305 15.8154C76.47 15.9653 76.62 16.1452 76.755 16.3101C77.22 16.8947 76.89 17.0297 76.365 17.4044C75.225 18.169 73.74 18.5437 72.375 18.5437C68.715 18.5288 66.285 16.2951 66.285 12.6073C66.3 9.11446 68.715 6.80586 72.21 6.82085C75.78 6.83584 77.79 8.93457 77.85 12.4874C77.865 13.4468 77.895 13.7616 76.905 13.7616L69.225 13.7167ZM41.235 9.39929C42.975 9.39929 44.145 10.9284 44.145 12.5924C44.145 14.3313 43.05 15.7404 41.22 15.7404C39.39 15.7404 38.31 14.3313 38.31 12.5774C38.31 10.8234 39.42 9.39929 41.235 9.39929ZM69.3 11.3181L75.045 11.3331C74.835 9.89399 73.65 9.32434 72.285 9.32434C70.92 9.32434 69.72 9.96895 69.3 11.3181Z" fill="#29303A"/>
</g>
<defs>
<clipPath id="clip0_129_16116">
<rect width="120" height="24.75" fill="white"/>
</clipPath>
</defs>
</svg>
