<svg width="22" height="32" viewBox="0 0 22 32" fill="none" xmlns="http://www.w3.org/2000/svg">
<g clip-path="url(#clip0_635_27985)">
<path d="M10.6665 16C10.6665 13.0845 13.03 10.721 15.9455 10.721C18.861 10.721 21.2246 13.0845 21.2246 16C21.2246 18.9156 18.861 21.279 15.9455 21.279C13.03 21.279 10.6665 18.9156 10.6665 16Z" fill="#1ABCFE"/>
<path d="M0.108398 26.5581C0.108398 23.6426 2.4719 21.279 5.38743 21.279H10.6665V26.5581C10.6665 29.4736 8.30299 31.8371 5.38743 31.8371C2.4719 31.8371 0.108398 29.4736 0.108398 26.5581Z" fill="#0ACF83"/>
<path d="M10.6665 0.162924V10.721H15.9455C18.8611 10.721 21.2246 8.35748 21.2246 5.44195C21.2246 2.52643 18.8611 0.162924 15.9455 0.162924H10.6665Z" fill="#FF7262"/>
<path d="M0.108398 5.44195C0.108398 8.35748 2.4719 10.721 5.38743 10.721H10.6665V0.16292H5.38743C2.4719 0.16292 0.108398 2.52642 0.108398 5.44195Z" fill="#F24E1E"/>
<path d="M0.108398 16C0.108398 18.9156 2.4719 21.279 5.38743 21.279H10.6665V10.721H5.38743C2.4719 10.721 0.108398 13.0845 0.108398 16Z" fill="#A259FF"/>
</g>
<defs>
<clipPath id="clip0_635_27985">
<rect width="21.3333" height="32" fill="white"/>
</clipPath>
</defs>
</svg>
