<svg width="36" height="32" viewBox="0 0 36 32" fill="none" xmlns="http://www.w3.org/2000/svg">
<path fill-rule="evenodd" clip-rule="evenodd" d="M25.6052 1.90324C26.0987 2.19341 26.5021 2.78282 26.7133 3.78876C26.9244 4.794 26.9193 6.12003 26.6711 7.69795C26.5777 8.29194 26.4508 8.91524 26.2912 9.56268C24.8693 9.23784 23.3234 8.99139 21.6912 8.83634C20.7381 7.46532 19.7501 6.21766 18.7575 5.12051C19.2256 4.65885 19.6896 4.23779 20.1455 3.86039C21.363 2.85249 22.4879 2.18498 23.4481 1.86857C24.409 1.55193 25.1118 1.61307 25.6052 1.90324ZM16.4729 5.12051C16.0048 4.65887 15.5408 4.23781 15.085 3.86043C13.8675 2.85253 12.7426 2.18502 11.7824 1.8686C10.8215 1.55197 10.1186 1.6131 9.62521 1.90328C9.13179 2.19345 8.7284 2.78286 8.51716 3.78879C8.30607 4.79404 8.31117 6.12007 8.55937 7.69799C8.65279 8.29194 8.77963 8.91519 8.93926 9.56259C10.3612 9.23776 11.9071 8.99132 13.5393 8.83629C14.4923 7.4653 15.4803 6.21765 16.4729 5.12051ZM17.6152 3.92612C17.1153 3.43317 16.6171 2.98112 16.1247 2.57347C14.818 1.49172 13.5168 0.693594 12.2987 0.29221C11.0813 -0.108958 9.85351 -0.140055 8.81364 0.47147C7.77377 1.08299 7.18633 2.18158 6.91869 3.45609C6.65092 4.73128 6.67892 6.27814 6.94529 7.97168C7.04614 8.61285 7.1822 9.2815 7.35245 9.9724C6.67818 10.1681 6.04001 10.3829 5.44292 10.6151C3.86764 11.2278 2.53669 11.9776 1.58552 12.8522C0.633651 13.7274 0 14.7902 0 16C0 17.2097 0.633651 18.2725 1.58552 19.1478C2.53669 20.0224 3.86764 20.7722 5.44292 21.3848C6.03987 21.617 6.67789 21.8317 7.35198 22.0274C7.18172 22.7184 7.04565 23.3871 6.94479 24.0283C6.67841 25.7218 6.65041 27.2687 6.91819 28.5439C7.18582 29.8184 7.77327 30.917 8.81314 31.5285C9.853 32.14 11.0808 32.1089 12.2982 31.7078C13.5163 31.3064 14.8175 30.5082 16.1242 29.4265C16.6168 29.0187 17.1151 28.5665 17.6152 28.0734C18.1153 28.5665 18.6137 29.0187 19.1063 29.4266C20.413 30.5083 21.7142 31.3064 22.9323 31.7078C24.1497 32.109 25.3775 32.1401 26.4173 31.5286C27.4572 30.917 28.0446 29.8184 28.3123 28.5439C28.5801 27.2687 28.5521 25.7219 28.2857 24.0283C28.1848 23.3871 28.0487 22.7183 27.8784 22.0273C28.5524 21.8317 29.1903 21.6169 29.7871 21.3848C31.3624 20.7722 32.6933 20.0224 33.6445 19.1478C34.5964 18.2725 35.23 17.2097 35.23 16C35.23 14.7902 34.5964 13.7274 33.6445 12.8522C32.6933 11.9776 31.3624 11.2278 29.7871 10.6151C29.1901 10.383 28.5521 10.1682 27.878 9.97252C28.0482 9.28157 28.1843 8.61286 28.2852 7.97164C28.5515 6.2781 28.5795 4.73124 28.3118 3.45605C28.0441 2.18155 27.4567 1.08296 26.4168 0.471435C25.377 -0.140089 24.1492 -0.108992 22.9317 0.292175C21.7137 0.69356 20.4125 1.49168 19.1058 2.57344C18.6133 2.9811 18.1152 3.43315 17.6152 3.92612ZM25.8485 11.1499C24.9135 10.9389 23.9167 10.7623 22.87 10.6252C23.213 11.1742 23.5493 11.7387 23.8774 12.3175C24.2029 12.8919 24.5125 13.4664 24.8057 14.039C25.2123 13.0475 25.5604 12.0801 25.8485 11.1499ZM25.7498 15.9994C26.4376 14.4749 27.0032 12.9812 27.4387 11.5588C28.0603 11.7398 28.6458 11.9372 29.1905 12.149C30.654 12.7182 31.7822 13.3756 32.5305 14.0637C33.2781 14.7511 33.5842 15.4063 33.5842 16C33.5842 16.5936 33.2781 17.2489 32.5305 17.9362C31.7822 18.6243 30.654 19.2817 29.1905 19.8509C28.6459 20.0627 28.0606 20.2601 27.4392 20.441C27.0035 19.0183 26.4378 17.5243 25.7498 15.9994ZM23.9393 15.9994C23.4943 15.0601 23.0004 14.1074 22.4587 13.1518C21.9144 12.1916 21.3486 11.2754 20.7696 10.4095C19.7506 10.3327 18.696 10.2922 17.615 10.2922C16.5342 10.2922 15.4797 10.3326 14.4609 10.4095C13.8818 11.2754 13.316 12.1916 12.7718 13.1518C12.2301 14.1074 11.7361 15.0601 11.2912 15.9995C11.7363 16.9392 12.2304 17.8922 12.7723 18.8482C13.3165 19.8084 13.8823 20.7246 14.4614 21.5905C15.4801 21.6673 16.5344 21.7077 17.615 21.7077C18.6958 21.7077 19.7503 21.6673 20.769 21.5904C21.3481 20.7246 21.9139 19.8084 22.4582 18.8482C23.0001 17.8922 23.4942 16.9392 23.9393 15.9994ZM22.8695 21.3748C23.2125 20.8258 23.5488 20.2612 23.8769 19.6824C24.2026 19.1077 24.5124 18.5329 24.8058 17.9599C25.2125 18.9517 25.5608 19.9194 25.849 20.8499C24.9137 21.061 23.9165 21.2377 22.8695 21.3748ZM19.5522 23.3114C18.9157 23.3393 18.2693 23.3536 17.615 23.3536C16.9609 23.3536 16.3146 23.3393 15.6782 23.3114C16.3185 24.1673 16.9677 24.9595 17.6152 25.6801C18.2628 24.9595 18.9119 24.1673 19.5522 23.3114ZM18.7575 26.8789C19.7499 25.7819 20.7378 24.5344 21.6906 23.1636C23.3232 23.0086 24.8694 22.7621 26.2916 22.4371C26.4513 23.0846 26.5782 23.708 26.6716 24.302C26.9198 25.88 26.9249 27.206 26.7138 28.2112C26.5026 29.2172 26.0992 29.8066 25.6058 30.0967C25.1123 30.3869 24.4095 30.4481 23.4486 30.1314C22.4884 29.815 21.3635 29.1475 20.146 28.1396C19.69 27.7621 19.2258 27.3408 18.7575 26.8789ZM16.4729 26.8789C15.4805 25.7819 14.4927 24.5345 13.5398 23.1637C11.9072 23.0086 10.361 22.7622 8.93879 22.4372C8.77914 23.0847 8.65229 23.708 8.55886 24.302C8.31067 25.8799 8.30556 27.2059 8.51666 28.2112C8.72789 29.2171 9.13128 29.8065 9.62471 30.0967C10.1181 30.3869 10.821 30.448 11.7818 30.1314C12.7421 29.8149 13.867 29.1474 15.0844 28.1395C15.5405 27.762 16.0047 27.3408 16.4729 26.8789ZM9.38141 20.85C10.3168 21.0611 11.3139 21.2377 12.361 21.3748C12.018 20.8259 11.6817 20.2613 11.3536 19.6825C11.0278 19.1078 10.718 18.5329 10.4246 17.9599C10.0179 18.9517 9.66963 19.9195 9.38141 20.85ZM10.4247 14.039C10.7179 13.4664 11.0275 12.8918 11.3531 12.3175C11.6811 11.7387 12.0175 11.1741 12.3604 10.6252C11.3138 10.7622 10.3169 10.9388 9.38187 11.1498C9.66999 12.08 10.0181 13.0475 10.4247 14.039ZM9.4806 15.9994C8.79263 17.5243 8.22689 19.0183 7.79122 20.4411C7.16964 20.2602 6.58422 20.0628 6.03948 19.8509C4.57599 19.2817 3.44779 18.6243 2.69951 17.9362C1.95193 17.2489 1.64582 16.5936 1.64582 16C1.64582 15.4063 1.95193 14.7511 2.69951 14.0637C3.44779 13.3756 4.57599 12.7182 6.03948 12.149C6.58435 11.9371 7.16993 11.7397 7.79167 11.5587C8.22724 12.9812 8.79283 14.4749 9.4806 15.9994ZM15.6777 8.68857C16.3143 8.66066 16.9607 8.64637 17.615 8.64637C18.2695 8.64637 18.916 8.66067 19.5527 8.68858C18.9122 7.83245 18.2629 7.04004 17.6152 6.31933C16.9675 7.04003 16.3182 7.83243 15.6777 8.68857ZM20.7442 15.9998C20.7442 17.7603 19.3431 19.1874 17.6147 19.1874C15.8864 19.1874 14.4853 17.7603 14.4853 15.9998C14.4853 14.2394 15.8864 12.8122 17.6147 12.8122C19.3431 12.8122 20.7442 14.2394 20.7442 15.9998Z" fill="#61DAFB"/>
</svg>
