<?xml version="1.0" encoding="UTF-8"?>
<svg width="20px" height="24px" viewBox="0 0 20 24" version="1.1" xmlns="http://www.w3.org/2000/svg" xmlns:xlink="http://www.w3.org/1999/xlink">
    <!-- Generator: Sketch 62 (91390) - https://sketch.com -->
    <title>storybook-icon/default</title>
    <desc>Created with Sketch.</desc>
    <defs>
        <path d="M0.7443351,22.1152054 L0.000864113856,2.30507095 C-0.0236898165,1.65081992 0.477966449,1.0963498 1.13140307,1.05551 L17.9813101,0.00239081997 C18.6464305,-0.0391792103 19.2193164,0.466308308 19.2608864,1.13142879 C19.2624526,1.15648796 19.2632363,1.18158992 19.2632363,1.20669799 L19.2632363,22.7933429 C19.2632363,23.4597613 18.7229975,24 18.0565792,24 C18.0385257,24 18.0204744,23.9995948 18.002439,23.9987848 L1.89600302,23.2753934 C1.26872104,23.2472202 0.767884044,22.742678 0.7443351,22.1152054 Z" id="path-1"></path>
        <path d="M0.7443351,22.1152054 L0.000864113856,2.30507095 C-0.0236898165,1.65081992 0.477966449,1.0963498 1.13140307,1.05551 L17.9813101,0.00239081997 C18.6464305,-0.0391792103 19.2193164,0.466308308 19.2608864,1.13142879 C19.2624526,1.15648796 19.2632363,1.18158992 19.2632363,1.20669799 L19.2632363,22.7933429 C19.2632363,23.4597613 18.7229975,24 18.0565792,24 C18.0385257,24 18.0204744,23.9995948 18.002439,23.9987848 L1.89600302,23.2753934 C1.26872104,23.2472202 0.767884044,22.742678 0.7443351,22.1152054 Z" id="path-3"></path>
    </defs>
    <g id="__Forma_V4" stroke="none" stroke-width="1" fill="none" fill-rule="evenodd">
        <g id="Components" transform="translate(-1225.000000, -231.000000)">
            <g id="Storybook" transform="translate(1225.000000, 109.000000)">
                <g id="storybook" transform="translate(0.000000, 122.000000)">
                    <g id="storybook-icon/default">
                        <g id="path1_fill-path" fill="#FF4785" fill-rule="nonzero">
                            <path d="M0.7443351,22.1152054 L0.000864113856,2.30507095 C-0.0236898165,1.65081992 0.477966449,1.0963498 1.13140307,1.05551 L17.9813101,0.00239081997 C18.6464305,-0.0391792103 19.2193164,0.466308308 19.2608864,1.13142879 C19.2624526,1.15648796 19.2632363,1.18158992 19.2632363,1.20669799 L19.2632363,22.7933429 C19.2632363,23.4597613 18.7229975,24 18.0565792,24 C18.0385257,24 18.0204744,23.9995948 18.002439,23.9987848 L1.89600302,23.2753934 C1.26872104,23.2472202 0.767884044,22.742678 0.7443351,22.1152054 Z" id="path-1"></path>
                        </g>
                        <g id="path2_fill-path-Clipped">
                            <mask id="mask-2" fill="white">
                                <use xlink:href="#path-1"></use>
                            </mask>
                            <g id="path-1"></g>
                            <path d="M14.2244449,2.94998233 L14.3395389,0.181814197 L16.6535378,0 L16.7532267,2.85471605 C16.7566961,2.95406675 16.678969,3.03741891 16.5796183,3.04088831 C16.5370775,3.04237387 16.4953869,3.02873527 16.4619493,3.00239434 L15.569597,2.29943101 L14.5130737,3.1008684 C14.4338713,3.16094821 14.3209608,3.14544634 14.260881,3.06624398 C14.2355903,3.03290372 14.2227065,2.9917934 14.2244449,2.94998233 Z" id="path2_fill-path" fill="#FFFFFF" fill-rule="nonzero" mask="url(#mask-2)"></path>
                        </g>
                        <g id="path9_fill-path-Clipped">
                            <mask id="mask-4" fill="white">
                                <use xlink:href="#path-3"></use>
                            </mask>
                            <g id="path-1"></g>
                            <path d="M11.2650622,9.04592826 C11.2650622,9.51538842 14.4272819,9.29038842 14.8517821,8.960625 C14.8517821,5.76371338 13.1363942,4.08378662 9.99522966,4.08378662 C6.85406502,4.08378662 5.09412173,5.78985071 5.09412173,8.34894816 C5.09412173,12.8060429 11.1091178,12.8913462 11.1091178,15.3224888 C11.1091178,16.0049148 10.7749514,16.4101052 10.0397852,16.4101052 C9.08184138,16.4101052 8.7031194,15.9208768 8.74767492,14.2574634 C8.74767492,13.8966076 5.09412173,13.7841076 4.98273291,14.2574634 C4.69909163,18.288506 7.21050924,19.4512134 10.0843407,19.4512134 C12.8690611,19.4512134 15.0522819,17.9668895 15.0522819,15.2798372 C15.0522819,10.5028552 8.94817476,10.6308101 8.94817476,8.26364496 C8.94817476,7.30398336 9.6610632,7.1760285 10.0843407,7.1760285 C10.529896,7.1760285 11.3318954,7.25456004 11.2650622,9.04592826 Z" id="path9_fill-path" fill="#FFFFFF" fill-rule="nonzero" mask="url(#mask-4)"></path>
                        </g>
                    </g>
                </g>
            </g>
        </g>
    </g>
</svg>