<svg height="52" viewBox="0 0 52 52" width="52" xmlns="http://www.w3.org/2000/svg"><g fill="none" fill-rule="evenodd" opacity=".12" stroke="#000" stroke-width="2"><circle cx="26" cy="26" r="25"/><circle cx="26" cy="26" r="21"/><g fill-rule="nonzero" transform="translate(14.5 14)"><path d="m7.15137346 16.6520376c-1.16189363-1.2037617-1.89830508-2.8756531-1.88194038-4.6980146 0-1.8390805.73641145-3.49425289 1.91466977-4.68129573.99824664-1.01985371 1.01461137-2.6583072.01636473-3.67816092-.99824664-1.01985371-2.60198717-1.03657262-3.6165985-.01671891-2.09468147 2.12330198-3.40385739 5.08254965-3.42022209 8.35945666-.0163647 3.276907 1.27644652 6.2361546 3.37112799 8.3928944.99824665 1.0198538 2.60198714 1.0365727 3.61659848.016719.98188194-1.0198538.99824664-2.6750262 0-3.6948799z"/><path d="m7.18410285 7.27272727c1.17825835-1.18704283 2.81472823-1.93939392 4.59848045-1.92267502 1.8001169 0 3.4202221.7523511 4.5821157 1.95611284.9982466 1.01985371 2.6019871 1.03657262 3.6002338.01671891.9982466-1.01985371 1.0146113-2.6583072.0163647-3.69487982-2.0946815-2.15673981-4.9912332-3.49425287-8.1823495-3.51097179-3.19111634 0-6.10403275 1.30407524-8.19871423 3.44409614-.99824663 1.01985369-1.01461133 2.65830722-.01636469 3.69487983.98188194 1.01985371 2.60198713 1.01985371 3.60023377.01671891z"/><path d="m16.3483343 16.6854755c-1.1782583 1.1870428-2.8147282 1.9393939-4.5984804 1.922675-1.8001169 0-3.42022209-.7523511-4.58211575-1.9561129-.99824664-1.0198537-2.60198713-1.0365726-3.60023377-.0167189s-1.01461134 2.6583072-.0163647 3.6948798c2.09468149 2.1567399 4.9912332 3.4942529 8.18234952 3.5109718 3.207481.0167189 6.1040327-1.3040752 8.2150789-3.4440961.9982466-1.0198537 1.0146113-2.6583072.0163647-3.6948798-1.0146114-1.0198537-2.6183518-1.0365727-3.6165985-.0167189z"/></g></g></svg>