<svg height="23" viewBox="0 0 65 23" width="65" xmlns="http://www.w3.org/2000/svg"><path d="m462.222222 676v2.547781c-1.236955 0-1.955187.301101-1.855433 1.459184l.299264 3.427923c.23941 2.594105-1.077348 3.566894-3.092388 3.914318 2.134745.370587 3.331798 1.297053 3.092388 3.914318l-.299264 3.427924c-.099754 1.158082.638429 1.459184 1.855433 1.459184v2.547781c-3.670964 0-5.047575-1.158083-4.768263-4.261743l.299264-3.335277c.159607-1.737123-1.037446-2.269841-2.753223-2.269841v-2.964691c1.695826 0 2.91283-.532718 2.753223-2.269841l-.299264-3.312116c-.299263-3.149983 1.097299-4.284904 4.768263-4.284904zm10.925354 3.095238c2.416703 0 3.963392.714286 5.36508 1.938776l-1.933362 2.474489c-.918347-.790816-2.03003-1.30102-3.33505-1.30102-2.126698 0-3.81839 1.811224-3.81839 6.147959 0 4.260204 1.595024 6.071429 3.890891 6.071429 1.667525 0 2.68254-.790817 3.625054-1.581633l1.78836 2.423469c-1.232519 1.326531-3.045045 2.39796-5.630917 2.39796-4.5434 0-7.781782-3.239796-7.781782-9.311225 0-5.918367 3.407551-9.260204 7.830116-9.260204zm21.058773 12.959184c0 3.316326-2.532973 5.612245-6.802843 5.612245-3.160186 0-5.210689-1.096939-6.609855-2.551021l2.002255-2.346939c1.230302 1.14796 2.725962 1.785715 4.511106 1.785715 1.664525 0 2.774209-.790817 2.774209-2.168368 0-1.27551-.699583-1.887755-3.015445-2.627551-3.93214-1.27551-5.403677-2.831632-5.403677-5.510204 0-3.265306 2.822456-5.153061 6.296249-5.153061 2.557097 0 4.535229.841837 5.982642 2.295918l-1.857514 2.270409c-1.133807-.994898-2.484726-1.479592-3.835646-1.479592-1.49566 0-2.484726.586734-2.484726 1.734694 0 1.122449.74783 1.581632 3.401422 2.448979 3.184309 1.020408 5.041823 2.44898 5.041823 5.688776zm15.476191 0c0 3.316326-2.532974 5.612245-6.802844 5.612245-3.160186 0-5.210688-1.096939-6.609855-2.551021l2.002256-2.346939c1.230301 1.14796 2.725962 1.785715 4.511105 1.785715 1.664526 0 2.774209-.790817 2.774209-2.168368 0-1.27551-.699583-1.887755-3.015445-2.627551-3.93214-1.27551-5.403677-2.831632-5.403677-5.510204 0-3.265306 2.822457-5.153061 6.296249-5.153061 2.557097 0 4.535229.841837 5.982643 2.295918l-1.857514 2.270409c-1.133808-.994898-2.484727-1.479592-3.835646-1.479592-1.495661 0-2.484727.586734-2.484727 1.734694 0 1.122449.747831 1.581632 3.401422 2.448979 3.18431 1.020408 5.041824 2.44898 5.041824 5.688776zm3.095238-16.054422c3.670964 0 5.047575 1.158082 4.768263 4.261743l-.299264 3.335277c-.159607 1.737123 1.057397 2.269841 2.753223 2.269841v2.964691c-1.675875 0-2.91283.532718-2.753223 2.269841l.299264 3.312115c.299263 3.149984-1.097299 4.284905-4.768263 4.284905v-2.547781c1.236955 0 1.955187-.301102 1.855433-1.459184l-.299264-3.427924c-.23941-2.594104 1.077348-3.566893 3.112339-3.914318-2.134745-.370586-3.351749-1.297052-3.112339-3.914318l.299264-3.427923c.099754-1.158083-.638429-1.459184-1.855433-1.459184z" opacity=".12" transform="translate(-455 -676)"/></svg>