<?xml version="1.0" encoding="UTF-8"?>
<svg width="48px" height="48px" viewBox="0 0 48 48" version="1.1" xmlns="http://www.w3.org/2000/svg" xmlns:xlink="http://www.w3.org/1999/xlink">
    <!-- Generator: Sketch 54.1 (76490) - https://sketchapp.com -->
    <title>icon-resources</title>
    <desc>Created with Sketch.</desc>
    <g id="Mockups" stroke="none" stroke-width="1" fill="none" fill-rule="evenodd" opacity="0.12">
        <g id="Home-Copy" transform="translate(-1305.000000, -470.000000)">
            <g id="icon-resources" transform="translate(1305.000000, 470.000000)">
                <g id="Outline_Icons_1_" stroke="#000000" stroke-linejoin="round" stroke-width="2">
                    <g id="Outline_Icons">
                        <path d="M42.876,23.504 C46.966,19.412 47.756,13.26 45.256,8.374 L38.632,14.976 L33.304,14.976 L33.304,9.36 L39.762,2.736 C34.878,0.238 28.66,1.028 24.57,5.116 C20.482,9.204 19.65,15.338 22.15,20.224 L2.496,39.862 C0.934,41.422 0.922,43.954 2.486,45.516 C4.048,47.08 6.574,47.08 8.138,45.516 L27.77,25.882 C32.656,28.38 38.79,27.59 42.876,23.504 Z" id="Path"></path>
                    </g>
                </g>
                <g id="Invisible_Shape">
                    <rect id="Rectangle" x="0" y="0" width="48" height="48"></rect>
                </g>
            </g>
        </g>
    </g>
</svg>