<svg width="24" height="24" viewBox="0 0 24 24" xmlns="http://www.w3.org/2000/svg">
  <path
    d="M8 0C8.55228 0 9 0.447715 9 1V2H15V1C15 0.447715 15.4477 0 16 0C16.5523 0 17 0.447715 17 1V2H19.7778C21.5574 2 23 3.44264 23 5.22222V20.7778C23 22.5574 21.5574 24 19.7778 24H4.22222C2.44264 24 1 22.5574 1 20.7778V5.22222C1 3.44264 2.44264 2 4.22222 2H7V1C7 0.447715 7.44772 0 8 0ZM7 4H4.22222C3.54721 4 3 4.54721 3 5.22222V9H21V5.22222C21 4.54721 20.4528 4 19.7778 4H17V5C17 5.55228 16.5523 6 16 6C15.4477 6 15 5.55228 15 5V4H9V5C9 5.55228 8.55228 6 8 6C7.44772 6 7 5.55228 7 5V4ZM21 11H3V20.7778C3 21.4528 3.54721 22 4.22222 22H19.7778C20.4528 22 21 21.4528 21 20.7778V11Z"
    fill="#000" />
</svg>