<?xml version="1.0" encoding="UTF-8" standalone="no"?>
<svg width="100%" height="100%" viewBox="0 0 16 24" version="1.1"
    xmlns="http://www.w3.org/2000/svg"
    xmlns:xlink="http://www.w3.org/1999/xlink" xml:space="preserve"
    style="fill-rule:evenodd;clip-rule:evenodd;stroke-linejoin:round;stroke-miterlimit:1.41421;">
    <path d="M8,4l0,-3l-4,4l4,4l0,-3c3.31,0 6,2.69 6,6c0,1.01 -0.25,1.97 -0.7,2.8l1.46,1.46c0.78,-1.23 1.24,-2.69 1.24,-4.26c0,-4.42 -3.58,-8 -8,-8Zm0,14c-3.31,0 -6,-2.69 -6,-6c0,-1.01 0.25,-1.97 0.7,-2.8l-1.46,-1.46c-0.78,1.23 -1.24,2.69 -1.24,4.26c0,4.42 3.58,8 8,8l0,3l4,-4l-4,-4l0,3Z" style="fill-rule:nonzero;"/>
</svg>