<?xml version="1.0" encoding="utf-8"?>
<!-- Generator: Adobe Illustrator 22.1.0, SVG Export Plug-In . SVG Version: 6.00 Build 0)  -->
<svg version="1.1" id="Layer_1" xmlns="http://www.w3.org/2000/svg" xmlns:xlink="http://www.w3.org/1999/xlink" x="0px" y="0px"
	 viewBox="0 0 10 24" style="enable-background:new 0 0 10 24;" xml:space="preserve">
<path style="fill:none;" d="M0,0h10v24H0V0z"/>
<path d="M4,18c0,1.1-0.9,2-2,2s-2-0.9-2-2s0.9-2,2-2S4,16.9,4,18z M2,10c-1.1,0-2,0.9-2,2s0.9,2,2,2s2-0.9,2-2S3.1,10,2,10z M2,4
	C0.9,4,0,4.9,0,6s0.9,2,2,2s2-0.9,2-2S3.1,4,2,4z M8,8c1.1,0,2-0.9,2-2S9.1,4,8,4S6,4.9,6,6S6.9,8,8,8z M8,10c-1.1,0-2,0.9-2,2
	s0.9,2,2,2s2-0.9,2-2S9.1,10,8,10z M8,16c-1.1,0-2,0.9-2,2s0.9,2,2,2s2-0.9,2-2S9.1,16,8,16z"/>
</svg>
