<?xml version="1.0" encoding="utf-8"?>
<!-- Generator: Adobe Illustrator 22.1.0, SVG Export Plug-In . SVG Version: 6.00 Build 0)  -->
<svg version="1.1" id="Layer_1" xmlns="http://www.w3.org/2000/svg" xmlns:xlink="http://www.w3.org/1999/xlink" x="0px" y="0px"
	 width="24px" height="24px" viewBox="0 0 24 24" enable-background="new 0 0 24 24" xml:space="preserve">
<g>
	<path d="M13.4,17H6.6C6.3,17,6,16.7,6,16.4v-2.8C6,13.3,6.3,13,6.6,13h6.8c0.3,0,0.6,0.3,0.6,0.6v2.8
		C14,16.7,13.7,17,13.4,17z"/>
	<path d="M22.5,11h-21C1.2,11,1,10.8,1,10.5v-1C1,9.2,1.2,9,1.5,9h20.9C22.8,9,23,9.2,23,9.5v0.9
		C23,10.8,22.8,11,22.5,11z"/>
	<path d="M4.5,16h-3C1.2,16,1,15.8,1,15.5v-1C1,14.2,1.2,14,1.5,14h3C4.8,14,5,14.2,5,14.5v1C5,15.8,4.8,16,4.5,16z"
		/>
	<path d="M12.6,21H1.4C1.2,21,1,20.8,1,20.6v-1.1C1,19.2,1.2,19,1.4,19h11.1c0.2,0,0.4,0.2,0.4,0.4v1.1
		C13,20.8,12.8,21,12.6,21z"/>
	<path d="M15.6,6H1.4C1.2,6,1,5.8,1,5.6V4.4C1,4.2,1.2,4,1.4,4h14.1C15.8,4,16,4.2,16,4.4v1.1C16,5.8,15.8,6,15.6,6z
		"/>
	<path d="M4.5,16h-3C1.2,16,1,15.8,1,15.5v-1C1,14.2,1.2,14,1.5,14h3C4.8,14,5,14.2,5,14.5v1C5,15.8,4.8,16,4.5,16z"
		/>
	<path d="M19.5,16h-4c-0.3,0-0.5-0.2-0.5-0.5v-1c0-0.3,0.2-0.5,0.5-0.5h4c0.3,0,0.5,0.2,0.5,0.5v1
		C20,15.8,19.8,16,19.5,16z"/>
</g>
</svg>
