<?xml version="1.0" encoding="utf-8"?>
<!-- Generator: Adobe Illustrator 22.1.0, SVG Export Plug-In . SVG Version: 6.00 Build 0)  -->
<svg version="1.1" id="Layer_1" xmlns="http://www.w3.org/2000/svg" xmlns:xlink="http://www.w3.org/1999/xlink" x="0px" y="0px"
	 width="22px" height="24px" viewBox="0 0 22 24" style="enable-background:new 0 0 22 24;" xml:space="preserve">
<g>
	<path d="M12.4,17H5.6C5.3,17,5,16.7,5,16.4v-2.8C5,13.3,5.3,13,5.6,13h6.8c0.3,0,0.6,0.3,0.6,0.6v2.8
		C13,16.7,12.7,17,12.4,17z"/>
	<path d="M21.5,11H0.5C0.2,11,0,10.8,0,10.5V9.5C0,9.2,0.2,9,0.5,9h20.9C21.8,9,22,9.2,22,9.5v0.9
		C22,10.8,21.8,11,21.5,11z"/>
	<path d="M3.5,16h-3C0.2,16,0,15.8,0,15.5v-1C0,14.2,0.2,14,0.5,14h3C3.8,14,4,14.2,4,14.5v1C4,15.8,3.8,16,3.5,16z"/>
	<path d="M11.6,21H0.4C0.2,21,0,20.8,0,20.6v-1.1C0,19.2,0.2,19,0.4,19h11.1c0.2,0,0.4,0.2,0.4,0.4v1.1
		C12,20.8,11.8,21,11.6,21z"/>
	<path d="M14.6,6H0.4C0.2,6,0,5.8,0,5.6V4.4C0,4.2,0.2,4,0.4,4h14.1C14.8,4,15,4.2,15,4.4v1.1C15,5.8,14.8,6,14.6,6z"/>
	<path d="M3.5,16h-3C0.2,16,0,15.8,0,15.5v-1C0,14.2,0.2,14,0.5,14h3C3.8,14,4,14.2,4,14.5v1C4,15.8,3.8,16,3.5,16z"/>
	<path d="M18.5,16h-4c-0.3,0-0.5-0.2-0.5-0.5v-1c0-0.3,0.2-0.5,0.5-0.5h4c0.3,0,0.5,0.2,0.5,0.5v1
		C19,15.8,18.8,16,18.5,16z"/>
</g>
</svg>
