<?xml version="1.0" encoding="utf-8"?>
<!-- Generator: Adobe Illustrator 22.1.0, SVG Export Plug-In . SVG Version: 6.00 Build 0)  -->
<svg version="1.1" id="Layer_1" xmlns="http://www.w3.org/2000/svg" xmlns:xlink="http://www.w3.org/1999/xlink" x="0px" y="0px"
	 width="20px" height="24px" viewBox="0 0 20 24" enable-background="new 0 0 20 24" xml:space="preserve">
<g>
	<path d="M19,15H1c-0.6,0-1-0.4-1-1v-4c0-0.6,0.4-1,1-1h18c0.5,0,1,0.4,1,1v4C20,14.6,19.5,15,19,15z"/>
	<path d="M17.5,7h-15C2.2,7,2,6.8,2,6.5v-1C2,5.2,2.2,5,2.5,5h15C17.8,5,18,5.2,18,5.5v1C18,6.8,17.8,7,17.5,7z"/>
	<path d="M17.5,19h-15C2.2,19,2,18.8,2,18.5v-1C2,17.2,2.2,17,2.5,17h15c0.3,0,0.5,0.2,0.5,0.5v1
		C18,18.8,17.8,19,17.5,19z"/>
	<path d="M15.6,23H4.4C4.2,23,4,22.8,4,22.6v-1.1C4,21.2,4.2,21,4.4,21h11.1c0.2,0,0.4,0.2,0.4,0.4v1.1
		C16,22.8,15.8,23,15.6,23z"/>
	<path d="M15.6,3H4.4C4.2,3,4,2.8,4,2.6V1.4C4,1.2,4.2,1,4.4,1h11.1C15.8,1,16,1.2,16,1.4v1.1C16,2.8,15.8,3,15.6,3z
		"/>
</g>
</svg>
