<?xml version="1.0" encoding="utf-8"?>
<!-- Generator: Adobe Illustrator 22.1.0, SVG Export Plug-In . SVG Version: 6.00 Build 0)  -->
<svg version="1.1" id="Layer_1" xmlns="http://www.w3.org/2000/svg" xmlns:xlink="http://www.w3.org/1999/xlink" x="0px" y="0px"
	 width="24px" height="24px" viewBox="0 0 24 24" enable-background="new 0 0 24 24" xml:space="preserve">
<g>
	<path d="M21,15H3c-0.6,0-1-0.4-1-1v-4c0-0.6,0.4-1,1-1h18c0.5,0,1,0.4,1,1v4C22,14.6,21.5,15,21,15z"/>
	<path d="M19.5,7h-15C4.2,7,4,6.8,4,6.5v-1C4,5.2,4.2,5,4.5,5h15C19.8,5,20,5.2,20,5.5v1C20,6.8,19.8,7,19.5,7z"/>
	<path d="M19.5,19h-15C4.2,19,4,18.8,4,18.5v-1C4,17.2,4.2,17,4.5,17h15c0.3,0,0.5,0.2,0.5,0.5v1
		C20,18.8,19.8,19,19.5,19z"/>
	<path d="M17.6,23H6.4C6.2,23,6,22.8,6,22.6v-1.1C6,21.2,6.2,21,6.4,21h11.1c0.2,0,0.4,0.2,0.4,0.4v1.1
		C18,22.8,17.8,23,17.6,23z"/>
	<path d="M17.6,3H6.4C6.2,3,6,2.8,6,2.6V1.4C6,1.2,6.2,1,6.4,1h11.1C17.8,1,18,1.2,18,1.4v1.1C18,2.8,17.8,3,17.6,3z
		"/>
</g>
</svg>
