<?xml version="1.0" encoding="utf-8"?>
<!-- Generator: Adobe Illustrator 22.1.0, SVG Export Plug-In . SVG Version: 6.00 Build 0)  -->
<svg version="1.1" id="Layer_1" xmlns="http://www.w3.org/2000/svg" xmlns:xlink="http://www.w3.org/1999/xlink" x="0px" y="0px"
	 viewBox="0 0 15 18" style="enable-background:new 0 0 15 18;" xml:space="preserve">
<path d="M7.5,1.5C3.4,1.5,0,4.9,0,9s3.4,7.5,7.5,7.5S15,13.1,15,9S11.6,1.5,7.5,1.5z M7.5,15c-3.3,0-6-2.7-6-6s2.7-6,6-6s6,2.7,6,6
	S10.8,15,7.5,15z M8.2,7.5L9,8.2l0.8-0.8l0.8,0.8l0.8-0.8L9.8,5.9L8.2,7.5z M5.2,7.5L6,8.2l0.8-0.8L5.2,5.9L3.6,7.5l0.8,0.8L5.2,7.5
	z M7.5,13.1c1.7,0,3.2-1.1,3.8-2.6H3.7C4.3,12,5.8,13.1,7.5,13.1z"/>
<path style="fill:none;" d="M0,0h15v18H0V0z"/>
</svg>
