<?xml version="1.0" encoding="utf-8"?>
<!-- Generator: Adobe Illustrator 22.1.0, SVG Export Plug-In . SVG Version: 6.00 Build 0)  -->
<svg version="1.1" id="Layer_1" xmlns="http://www.w3.org/2000/svg" xmlns:xlink="http://www.w3.org/1999/xlink" x="0px" y="0px"
	 viewBox="0 0 10.8 24" style="enable-background:new 0 0 10.8 24;" xml:space="preserve">
<path d="M8.6,10.8c1-0.7,1.6-1.8,1.6-2.8c0-2.3-1.8-4-4-4H0v14h7c2.1,0,3.7-1.7,3.7-3.8C10.8,12.7,9.9,11.4,8.6,10.8z M3,6.5h3
	c0.8,0,1.5,0.7,1.5,1.5S6.8,9.5,6,9.5H3V6.5z M6.5,15.5H3v-3h3.5C7.3,12.5,8,13.2,8,14S7.3,15.5,6.5,15.5z"/>
<path style="fill:none;" d="M0,0h10.8v24H0V0z"/>
</svg>
