<?xml version="1.0" encoding="utf-8"?>
<!-- Generator: Adobe Illustrator 22.1.0, SVG Export Plug-In . SVG Version: 6.00 Build 0)  -->
<svg version="1.1" id="Layer_1" xmlns="http://www.w3.org/2000/svg" xmlns:xlink="http://www.w3.org/1999/xlink" x="0px" y="0px"
	 viewBox="0 0 14.4 18" style="enable-background:new 0 0 14.4 18;" xml:space="preserve">
<path style="fill:none;" d="M0,0h14.4v18H0V0z"/>
<g>
	<polygon points="6.3,3.8 6.3,7.9 2.2,7.9 2.2,3.8 0,3.8 0,7.9 0,9.7 0,14.2 2.2,14.2 2.2,9.7 6.3,9.7 6.3,14.2 8.5,14.2 8.5,9.7 
		8.5,7.9 8.5,3.8 	"/>
	<path d="M9.8,14.2V13l2.5-2.2c0.2-0.1,0.3-0.3,0.4-0.4c0.1-0.2,0.2-0.3,0.2-0.5c0-0.2-0.1-0.4-0.2-0.5C12.4,9.1,12.2,9,11.9,9
		c-0.2,0-0.5,0.1-0.6,0.3C11.2,9.4,11.1,9.7,11,10L9.6,9.8c0-0.3,0.2-0.6,0.3-0.9c0.1-0.2,0.3-0.5,0.5-0.7c0.2-0.1,0.5-0.3,0.8-0.4
		c0.3-0.1,0.6-0.1,0.9-0.1c0.3,0,0.6,0.1,0.8,0.1c0.3,0.1,0.5,0.2,0.8,0.4c0.2,0.2,0.4,0.4,0.5,0.6s0.2,0.5,0.2,0.9
		c0,0.2,0,0.5-0.1,0.6c-0.1,0.1-0.2,0.4-0.2,0.5c-0.1,0.2-0.2,0.3-0.4,0.5c-0.2,0.1-0.3,0.3-0.4,0.4L11.8,13h2.6v1.3H9.8z"/>
</g>
</svg>
