<?xml version="1.0" encoding="utf-8"?>
<!-- Generator: Adobe Illustrator 22.1.0, SVG Export Plug-In . SVG Version: 6.00 Build 0)  -->
<svg version="1.1" id="Layer_1" xmlns="http://www.w3.org/2000/svg" xmlns:xlink="http://www.w3.org/1999/xlink" x="0px" y="0px"
	 viewBox="0 0 15 18" style="enable-background:new 0 0 15 18;" xml:space="preserve">
<path style="fill:none;" d="M0,0h15v18H0V0z"/>
<path d="M7.5,1.5C3.4,1.5,0,4.9,0,9s3.4,7.5,7.5,7.5S15,13.1,15,9S11.6,1.5,7.5,1.5z M8.2,14.2H6.8v-1.5h1.5V14.2z M9.8,8.4L9.1,9.1
	c-0.5,0.5-0.9,1-0.9,2.1H6.8v-0.4c0-0.8,0.3-1.6,0.9-2.1l0.9-0.9C8.8,7.5,9,7.2,9,6.8c0-0.8-0.7-1.5-1.5-1.5S6,5.9,6,6.8H4.5
	c0-1.7,1.3-3,3-3s3,1.3,3,3C10.5,7.4,10.2,8,9.8,8.4z"/>
</svg>
