<?xml version="1.0" encoding="utf-8"?>
<!-- Generator: Adobe Illustrator 22.1.0, SVG Export Plug-In . SVG Version: 6.00 Build 0)  -->
<svg version="1.1" id="Layer_1" xmlns="http://www.w3.org/2000/svg" xmlns:xlink="http://www.w3.org/1999/xlink" x="0px" y="0px"
	 viewBox="0 0 15 18" style="enable-background:new 0 0 15 18;" xml:space="preserve">
<path style="fill:none;" d="M0,0h15v18H0V0z"/>
<path d="M1.4,9c0-1.3,1-2.3,2.3-2.3h3V5.2h-3C1.7,5.2,0,6.9,0,9s1.7,3.8,3.8,3.8h3v-1.4h-3C2.5,11.3,1.4,10.3,1.4,9z M4.5,9.8h6V8.2
	h-6V9.8z M11.2,5.2h-3v1.4h3c1.3,0,2.3,1,2.3,2.3s-1,2.3-2.3,2.3h-3v1.4h3c2.1,0,3.8-1.7,3.8-3.8S13.3,5.2,11.2,5.2z"/>
</svg>
