<?xml version="1.0" encoding="utf-8"?>
<!-- Generator: Adobe Illustrator 22.1.0, SVG Export Plug-In . SVG Version: 6.00 Build 0)  -->
<svg version="1.1" id="Layer_1" xmlns="http://www.w3.org/2000/svg" xmlns:xlink="http://www.w3.org/1999/xlink" x="0px" y="0px"
	 viewBox="0 0 13.9 18" style="enable-background:new 0 0 13.9 18;" xml:space="preserve">
<path d="M1.1,7.9C0.5,7.9,0,8.4,0,9s0.5,1.1,1.1,1.1S2.2,9.6,2.2,9S1.7,7.9,1.1,7.9z M1.1,3.4C0.5,3.4,0,3.9,0,4.5s0.5,1.1,1.1,1.1
	s1.1-0.5,1.1-1.1S1.7,3.4,1.1,3.4z M1.1,12.4c-0.6,0-1.1,0.5-1.1,1.1s0.5,1.1,1.1,1.1s1.1-0.5,1.1-1.1S1.7,12.4,1.1,12.4z M3.4,14.2
	h10.5v-1.5H3.4V14.2z M3.4,9.8h10.5V8.2H3.4V9.8z M3.4,3.8v1.5h10.5V3.8H3.4z"/>
<path style="fill:none;" d="M0,0h13.9v18H0V0z"/>
</svg>
