<?xml version="1.0" encoding="utf-8"?>
<!-- Generator: Adobe Illustrator 22.1.0, SVG Export Plug-In . SVG Version: 6.00 Build 0)  -->
<svg version="1.1" id="Layer_1" xmlns="http://www.w3.org/2000/svg" xmlns:xlink="http://www.w3.org/1999/xlink" x="0px" y="0px"
	 viewBox="0 0 14.2 18" style="enable-background:new 0 0 14.2 18;" xml:space="preserve">
<path d="M0,12.8h1.5v0.4H0.8v0.8h0.8v0.4H0V15h2.2v-3H0V12.8z M0.8,6h0.8V3H0v0.8h0.8V6z M0,8.2h1.3L0,9.8v0.7h2.2V9.8H0.9l1.3-1.6
	V7.5H0V8.2z M3.8,3.8v1.5h10.5V3.8H3.8z M3.8,14.2h10.5v-1.5H3.8V14.2z M3.8,9.8h10.5V8.2H3.8V9.8z"/>
<path style="fill:none;" d="M0,0h14.2v18H0V0z"/>
</svg>
