<?xml version="1.0" encoding="utf-8"?>
<!-- Generator: Adobe Illustrator 22.1.0, SVG Export Plug-In . SVG Version: 6.00 Build 0)  -->
<svg version="1.1" id="Layer_1" xmlns="http://www.w3.org/2000/svg" xmlns:xlink="http://www.w3.org/1999/xlink" x="0px" y="0px"
	 viewBox="0 0 12 18" style="enable-background:new 0 0 12 18;" xml:space="preserve">
<path style="fill:none;" d="M0,0h12v18H0V0z"/>
<path d="M10.5,6H9.8V4.5c0-2.1-1.7-3.8-3.8-3.8S2.2,2.4,2.2,4.5V6H1.5C0.7,6,0,6.7,0,7.5V15c0,0.8,0.7,1.5,1.5,1.5h9
	c0.8,0,1.5-0.7,1.5-1.5V7.5C12,6.7,11.3,6,10.5,6z M6,12.8c-0.8,0-1.5-0.7-1.5-1.5S5.2,9.8,6,9.8s1.5,0.7,1.5,1.5S6.8,12.8,6,12.8z
	 M8.3,6H3.7V4.5c0-1.3,1-2.3,2.3-2.3s2.3,1,2.3,2.3V6z"/>
</svg>
