<?xml version="1.0" encoding="utf-8"?>
<!-- Generator: Adobe Illustrator 22.1.0, SVG Export Plug-In . SVG Version: 6.00 Build 0)  -->
<svg version="1.1" id="Layer_1" xmlns="http://www.w3.org/2000/svg" xmlns:xlink="http://www.w3.org/1999/xlink" x="0px" y="0px"
	 viewBox="0 0 3 18" style="enable-background:new 0 0 3 18;" xml:space="preserve">
<path style="fill:none;" d="M0,0h3v18H0V0z"/>
<path d="M1.5,6C2.3,6,3,5.3,3,4.5S2.3,3,1.5,3S0,3.7,0,4.5S0.7,6,1.5,6z M1.5,7.5C0.7,7.5,0,8.2,0,9s0.7,1.5,1.5,1.5S3,9.8,3,9
	S2.3,7.5,1.5,7.5z M1.5,12C0.7,12,0,12.7,0,13.5S0.7,15,1.5,15S3,14.3,3,13.5S2.3,12,1.5,12z"/>
</svg>
