<?xml version="1.0" encoding="utf-8"?>
<!-- Generator: Adobe Illustrator 22.1.0, SVG Export Plug-In . SVG Version: 6.00 Build 0)  -->
<svg version="1.1" id="Layer_1" xmlns="http://www.w3.org/2000/svg" xmlns:xlink="http://www.w3.org/1999/xlink" x="0px" y="0px"
	 viewBox="0 0 12 18" style="enable-background:new 0 0 12 18;" xml:space="preserve">
<path style="fill:none;" d="M0,0h12v18H0V0z"/>
<path d="M1.5,7.5C0.7,7.5,0,8.2,0,9s0.7,1.5,1.5,1.5S3,9.8,3,9S2.3,7.5,1.5,7.5z M10.5,7.5C9.7,7.5,9,8.2,9,9s0.7,1.5,1.5,1.5
	S12,9.8,12,9S11.3,7.5,10.5,7.5z M6,7.5C5.2,7.5,4.5,8.2,4.5,9s0.7,1.5,1.5,1.5S7.5,9.8,7.5,9S6.8,7.5,6,7.5z"/>
</svg>
