<?xml version="1.0" encoding="utf-8"?>
<!-- Generator: Adobe Illustrator 22.1.0, SVG Export Plug-In . SVG Version: 6.00 Build 0)  -->
<svg version="1.1" id="Layer_1" xmlns="http://www.w3.org/2000/svg" xmlns:xlink="http://www.w3.org/1999/xlink" x="0px" y="0px"
	 viewBox="0 0 13.5 18" style="enable-background:new 0 0 13.5 18;" xml:space="preserve">
<path d="M11.2,12.8h-9v-1.5h9V12.8z M11.2,9.8h-9V8.2h9V9.8z M11.2,6.8h-9V5.2h9V6.8z M0,16.5l1.1-1.1l1.1,1.1l1.1-1.1l1.1,1.1
	l1.1-1.1l1.1,1.1l1.1-1.1L9,16.5l1.1-1.1l1.1,1.1l1.1-1.1l1.1,1.1v-15l-1.1,1.1l-1.1-1.1l-1.1,1.1L9,1.5L7.9,2.6L6.8,1.5L5.6,2.6
	L4.5,1.5L3.4,2.6L2.2,1.5L1.1,2.6L0,1.5V16.5z"/>
<path style="fill:none;" d="M0,0h13.5v18H0V0z"/>
</svg>
