<?xml version="1.0" encoding="UTF-8" standalone="no"?>
<svg width="100%" height="100%" viewBox="0 0 24 24" version="1.1"
    xmlns="http://www.w3.org/2000/svg"
    xmlns:xlink="http://www.w3.org/1999/xlink" xml:space="preserve" style="fill-rule:evenodd;clip-rule:evenodd;stroke-linejoin:round;stroke-miterlimit:1.41421;">
    <path d="M5.756,3.636c0.254,-0.254 0.594,-0.374 0.946,-0.374l12.716,0c0.351,0 0.692,0.12 0.946,0.374c0.254,0.254 0.374,0.595 0.374,0.946l0,12.716c0,0.351 -0.12,0.692 -0.374,0.946c-0.254,0.254 -0.595,0.374 -0.946,0.374l-12.716,0c-0.352,0 -0.692,-0.12 -0.946,-0.374c-0.254,-0.254 -0.374,-0.595 -0.374,-0.946l0,-12.716c0,-0.351 0.12,-0.692 0.374,-0.946Zm0.862,0.877c-0.003,0.01 -0.01,0.031 -0.01,0.069l0,12.716c0,0.038 0.007,0.06 0.01,0.069c0.003,0.006 0.004,0.009 0.005,0.01c0,0 0,0 0,0c0,0 0,0 0,0c0.001,0 0.004,0.002 0.01,0.005c0.009,0.003 0.031,0.009 0.069,0.009l12.716,0c0.038,0 0.059,-0.006 0.069,-0.009c0.009,-0.004 0.011,-0.006 0.01,-0.005c-0.002,0.001 0.001,-0.001 0.004,-0.01c0.004,-0.009 0.01,-0.031 0.01,-0.069l0,-12.716c0,-0.038 -0.006,-0.059 -0.01,-0.069c-0.003,-0.009 -0.006,-0.011 -0.004,-0.01c-0.001,0 -0.004,-0.002 -0.01,-0.004c-0.01,-0.004 -0.031,-0.01 -0.069,-0.01l-12.716,0c-0.038,0 -0.06,0.006 -0.069,0.01c-0.009,0.003 -0.011,0.006 -0.01,0.004c0.001,-0.001 -0.001,0.001 -0.005,0.01Zm12.879,-0.009c0,0 0,0 0,-0.001c0,0.001 0,0.001 0,0.001Z" />
    <path d="M8.208,6.702c0,-0.339 0.274,-0.613 0.613,-0.613l8.477,0c0.339,0 0.614,0.274 0.614,0.613c0,0.338 -0.275,0.613 -0.614,0.613l-8.477,0c-0.339,0 -0.613,-0.275 -0.613,-0.613Z" />
    <path d="M8.208,9.527c0,-0.339 0.274,-0.613 0.613,-0.613l8.477,0c0.339,0 0.614,0.274 0.614,0.613c0,0.339 -0.275,0.613 -0.614,0.613l-8.477,0c-0.339,0 -0.613,-0.274 -0.613,-0.613Z" />
    <path d="M8.208,12.353c0,-0.339 0.274,-0.613 0.613,-0.613l8.477,0c0.339,0 0.614,0.274 0.614,0.613c0,0.339 -0.275,0.613 -0.614,0.613l-8.477,0c-0.339,0 -0.613,-0.274 -0.613,-0.613Z" />
    <path d="M8.208,15.179c0,-0.338 0.274,-0.613 0.613,-0.613l3.885,0c0.339,0 0.614,0.275 0.614,0.613c0,0.339 -0.275,0.613 -0.614,0.613l-3.885,0c-0.339,0 -0.613,-0.274 -0.613,-0.613Z" />
    <path d="M3.636,6.463c0.254,-0.255 0.595,-0.374 0.946,-0.374l1.413,0c0.339,0 0.613,0.274 0.613,0.613c0,0.338 -0.274,0.613 -0.613,0.613l-1.413,0c-0.038,0 -0.059,0.006 -0.069,0.01c-0.009,0.003 -0.011,0.006 -0.01,0.005c0.002,-0.001 -0.001,0 -0.004,0.009c-0.004,0.01 -0.01,0.032 -0.01,0.069l0,12.01c0,0.038 0.006,0.06 0.01,0.069c0.003,0.009 0.006,0.011 0.004,0.01c-0.001,-0.001 0.001,0.001 0.01,0.004c0.01,0.004 0.031,0.01 0.069,0.01l12.01,0c0.037,0 0.059,-0.006 0.069,-0.01c0.009,-0.003 0.011,-0.005 0.009,-0.004c-0.001,0.001 0.002,-0.001 0.005,-0.01c0.004,-0.009 0.01,-0.031 0.01,-0.069l0,-1.413c0,-0.339 0.275,-0.613 0.613,-0.613c0.339,0 0.613,0.274 0.613,0.613l0,1.413c0,0.351 -0.119,0.692 -0.373,0.946c-0.255,0.254 -0.595,0.374 -0.946,0.374l-12.01,0c-0.351,0 -0.692,-0.12 -0.946,-0.374c-0.254,-0.254 -0.374,-0.595 -0.374,-0.946l0,-12.01c0,-0.351 0.12,-0.691 0.374,-0.945Z" />
</svg>