<svg width="22" height="24" viewBox="0 0 22 24" xmlns="http://www.w3.org/2000/svg">
  <path
    d="M2.42562 1.49995C2.86482 0.568596 3.68104 0 4.68932 0H17.3107C18.3057 0 19.2616 0.665698 19.6045 1.57075L19.6055 1.5735C19.6055 1.5735 21.8673 7.28362 21.9336 7.64181C22 8 22 8 22 8.45455V21.5455C22 22.8564 20.9025 24 19.5714 24H2.42857C1.09747 24 0 22.8564 0 21.5455V8.45455C0 8 0 8 0.0663521 7.64181C0.132704 7.28362 2.39645 1.56828 2.39645 1.56828C2.40532 1.54515 2.41505 1.52236 2.42562 1.49995ZM2.83836 6H10V2H4.68932C4.53766 2 4.38798 2.04591 4.24862 2.32409L2.83836 6ZM12 2V6H19.1616L17.7363 2.28466L17.7343 2.27944C17.6879 2.15648 17.4797 2 17.3107 2H12ZM2.42857 8C2.23586 8 2 8.21401 2 8.45455V21.5455C2 21.786 2.23586 22 2.42857 22H19.5714C19.7641 22 20 21.786 20 21.5455V8.45455C20 8.21401 19.7641 8 19.5714 8H2.42857ZM12 19C12 18.4477 12.4477 18 13 18H18C18.5523 18 19 18.4477 19 19C19 19.5523 18.5523 20 18 20H13C12.4477 20 12 19.5523 12 19Z"
    fill="#000" />
</svg>