<svg width="24" height="24" viewBox="0 0 24 24" xmlns="http://www.w3.org/2000/svg">
  <path
    d="M3.42562 1.49995C3.86482 0.568596 4.68104 0 5.68932 0H18.3107C19.3057 0 20.2616 0.665698 20.6045 1.57075L20.6055 1.5735C20.6055 1.5735 22.8673 7.28362 22.9336 7.64181C23 8 23 8 23 8.45455V21.5455C23 22.8564 21.9025 24 20.5714 24H3.42857C2.09747 24 1 22.8564 1 21.5455V8.45455C1 8 1 8 1.06635 7.64181C1.1327 7.28362 3.39645 1.56828 3.39645 1.56828C3.40532 1.54515 3.41505 1.52236 3.42562 1.49995ZM3.83836 6H11V2H5.68932C5.53766 2 5.38798 2.04591 5.24862 2.32409L3.83836 6ZM13 2V6H20.1616L18.7363 2.28466L18.7343 2.27944C18.6879 2.15648 18.4797 2 18.3107 2H13ZM3.42857 8C3.23586 8 3 8.21401 3 8.45455V21.5455C3 21.786 3.23586 22 3.42857 22H20.5714C20.7641 22 21 21.786 21 21.5455V8.45455C21 8.21401 20.7641 8 20.5714 8H3.42857ZM13 19C13 18.4477 13.4477 18 14 18H19C19.5523 18 20 18.4477 20 19C20 19.5523 19.5523 20 19 20H14C13.4477 20 13 19.5523 13 19Z"
    fill="#000" />
</svg>