<?xml version="1.0" encoding="utf-8"?>
<!-- Generator: Adobe Illustrator 22.1.0, SVG Export Plug-In . SVG Version: 6.00 Build 0)  -->
<svg version="1.1" id="Layer_1" xmlns="http://www.w3.org/2000/svg" xmlns:xlink="http://www.w3.org/1999/xlink" x="0px" y="0px"
	 viewBox="0 0 13.1 18" style="enable-background:new 0 0 13.1 18;" xml:space="preserve">
<path d="M9.4,10.5H8.8l-0.2-0.2c0.7-0.9,1.2-2,1.2-3.2c0-2.7-2.2-4.9-4.9-4.9S0,4.4,0,7.1S2.2,12,4.9,12c1.2,0,2.3-0.4,3.2-1.2
	L8.2,11v0.6l3.8,3.7l1.1-1.1L9.4,10.5z M4.9,10.5C3,10.5,1.5,9,1.5,7.1S3,3.8,4.9,3.8s3.4,1.5,3.4,3.4S6.7,10.5,4.9,10.5z"/>
<path style="fill:none;" d="M0,0h13.1v18H0V0z"/>
</svg>
