<?xml version="1.0" encoding="utf-8"?>
<!-- Generator: Adobe Illustrator 22.1.0, SVG Export Plug-In . SVG Version: 6.00 Build 0)  -->
<svg version="1.1" id="Layer_1" xmlns="http://www.w3.org/2000/svg" xmlns:xlink="http://www.w3.org/1999/xlink" x="0px" y="0px"
	 viewBox="0 0 14.6 18" style="enable-background:new 0 0 14.6 18;" xml:space="preserve">
<path style="fill:none;" d="M0,0h14.6v18H0V0z"/>
<path d="M12.9,9.7c0-0.2,0.1-0.5,0.1-0.7s0-0.5-0.1-0.7L14.5,7c0.1-0.1,0.2-0.3,0.1-0.5L13,4c-0.1-0.2-0.3-0.2-0.5-0.2l-1.9,0.8
	C10.3,4.2,9.9,4,9.4,3.8l-0.3-2c0-0.2-0.2-0.3-0.4-0.3h-3c-0.2,0-0.3,0.1-0.4,0.3l-0.3,2C4.7,4,4.3,4.2,3.9,4.5L2,3.8
	C1.8,3.7,1.6,3.8,1.6,4L0.1,6.5C0,6.7,0,6.9,0.1,7l1.6,1.2c0,0.2-0.1,0.5-0.1,0.7s0,0.5,0.1,0.7L0.1,11C0,11.1,0,11.3,0.1,11.5
	L1.6,14c0.1,0.2,0.3,0.2,0.5,0.2l1.9-0.8c0.4,0.3,0.8,0.5,1.3,0.7l0.3,2c0,0.2,0.2,0.3,0.4,0.3h3c0.2,0,0.3-0.1,0.4-0.3l0.3-2
	c0.5-0.2,0.9-0.4,1.3-0.7l1.9,0.8c0.2,0.1,0.4,0,0.5-0.2l1.5-2.6c0.1-0.2,0.1-0.4-0.1-0.5L12.9,9.7z M7.3,11.6
	c-1.4,0-2.6-1.2-2.6-2.6s1.2-2.6,2.6-2.6S9.9,7.6,9.9,9S8.7,11.6,7.3,11.6z"/>
</svg>
