<?xml version="1.0" encoding="utf-8"?>
<!-- Generator: Adobe Illustrator 22.1.0, SVG Export Plug-In . SVG Version: 6.00 Build 0)  -->
<svg version="1.1" id="Layer_1" xmlns="http://www.w3.org/2000/svg" xmlns:xlink="http://www.w3.org/1999/xlink" x="0px" y="0px"
	 viewBox="0 0 15 18" style="enable-background:new 0 0 15 18;" xml:space="preserve">
<path d="M4.5,13.5C3.7,13.5,3,14.2,3,15s0.7,1.5,1.5,1.5S6,15.8,6,15S5.3,13.5,4.5,13.5z M0,1.5V3h1.5l2.7,5.7l-1,1.8
	C3.1,10.7,3,11,3,11.2c0,0.8,0.7,1.5,1.5,1.5h9v-1.5H4.8c-0.1,0-0.2-0.1-0.2-0.2l0-0.1l0.7-1.2h5.6c0.6,0,1.1-0.3,1.3-0.8l2.7-4.9
	C15,4,15,3.9,15,3.8C15,3.3,14.7,3,14.2,3H3.2L2.5,1.5C2.5,1.5,0,1.5,0,1.5z M12,13.5c-0.8,0-1.5,0.7-1.5,1.5s0.7,1.5,1.5,1.5
	c0.8,0,1.5-0.7,1.5-1.5S12.8,13.5,12,13.5z"/>
<path style="fill:none;" d="M0,0h15v18H0V0z"/>
</svg>
