<?xml version="1.0" encoding="utf-8"?>
<!-- Generator: Adobe Illustrator 22.1.0, SVG Export Plug-In . SVG Version: 6.00 Build 0)  -->
<svg version="1.1" id="Layer_1" xmlns="http://www.w3.org/2000/svg" xmlns:xlink="http://www.w3.org/1999/xlink" x="0px" y="0px"
	 viewBox="0 0 16.5 18" style="enable-background:new 0 0 16.5 18;" xml:space="preserve">
<path style="fill:none;" d="M0,0h16.5v18H0V0z"/>
<path d="M10.5,2.2H3.8c-0.6,0-1.2,0.4-1.4,0.9L0.1,8.5C0,8.6,0,8.8,0,9v1.4l0,0l0,0.1C0,11.3,0.7,12,1.5,12h4.7l-0.7,3.4l0,0.2
	c0,0.3,0.1,0.6,0.3,0.8l0.8,0.8l4.9-4.9c0.3-0.3,0.4-0.6,0.4-1.1V3.8C12,2.9,11.3,2.2,10.5,2.2z M13.5,2.2v9h3v-9H13.5z"/>
</svg>
