<?xml version="1.0" encoding="utf-8"?>
<!-- Generator: Adobe Illustrator 22.1.0, SVG Export Plug-In . SVG Version: 6.00 Build 0)  -->
<svg version="1.1" id="Layer_1" xmlns="http://www.w3.org/2000/svg" xmlns:xlink="http://www.w3.org/1999/xlink" x="0px" y="0px"
	 viewBox="0 0 16.5 18" style="enable-background:new 0 0 16.5 18;" xml:space="preserve">
<path style="fill:none;" d="M0,0h16.5v18H0V0z"/>
<path d="M0,15.8h3v-9H0V15.8z M16.5,7.5C16.5,6.7,15.8,6,15,6h-4.7L11,2.6l0-0.2c0-0.3-0.1-0.6-0.3-0.8L9.9,0.8L4.9,5.7
	C4.7,6,4.5,6.3,4.5,6.8v7.5c0,0.8,0.7,1.5,1.5,1.5h6.8c0.6,0,1.2-0.4,1.4-0.9l2.3-5.3c0.1-0.2,0.1-0.4,0.1-0.5V7.5L16.5,7.5
	L16.5,7.5z"/>
</svg>
