<?xml version="1.0" encoding="utf-8"?>
<!-- Generator: Adobe Illustrator 22.1.0, SVG Export Plug-In . SVG Version: 6.00 Build 0)  -->
<svg version="1.1" id="Layer_1" xmlns="http://www.w3.org/2000/svg" xmlns:xlink="http://www.w3.org/1999/xlink" x="0px" y="0px"
	 viewBox="0 0 16.5 18" style="enable-background:new 0 0 16.5 18;" xml:space="preserve">
<path style="fill:none;" d="M0,0h16.5v18H0V0z"/>
<path d="M11.2,8.2c1.2,0,2.2-1,2.2-2.2s-1-2.2-2.2-2.2S9,4.8,9,6S10,8.2,11.2,8.2z M5.2,8.2c1.2,0,2.2-1,2.2-2.2s-1-2.2-2.2-2.2
	S3,4.8,3,6S4,8.2,5.2,8.2z M5.2,9.8C3.5,9.8,0,10.6,0,12.4v1.9h10.5v-1.9C10.5,10.6,7,9.8,5.2,9.8z M11.2,9.8c-0.2,0-0.5,0-0.7,0
	c0.9,0.6,1.5,1.5,1.5,2.6v1.9h4.5v-1.9C16.5,10.6,13,9.8,11.2,9.8z"/>
</svg>
